<svg width="72" height="72" viewBox="0 0 72 72" fill="none" xmlns="http://www.w3.org/2000/svg">
<circle cx="36" cy="36" r="31.5" fill="url(#paint0_linear)" stroke="white" stroke-width="9"/>
<g clip-path="url(#clip0)">
<path d="M45.5417 31.0623V39.5485C44.9087 40.0264 44.0692 40.1556 43.32 39.8973L43.0746 39.8068C43.8367 38.3085 43.5525 36.4743 42.3512 35.2473L37.9983 30.8943L41.46 29.6802L45.5417 31.0623Z" fill="white"/>
<path d="M35.0404 36.8488L39.6 41.3309V41.3438C39.4837 41.7571 39.2642 42.1317 38.9542 42.4417C38.3987 42.9842 37.6625 43.2555 36.9392 43.2167L32.0825 38.3601C31.9662 38.4634 31.9146 38.6055 31.9146 38.7476C31.9146 38.9155 31.9921 39.0963 32.16 39.1996L36.7712 43.7205C36.6421 44.0305 36.4612 44.3146 36.2158 44.5601C35.6862 45.0896 34.9887 45.348 34.2912 45.348C33.6196 45.348 32.9479 45.1026 32.4313 44.5988L29.5896 42.0284C28.9696 41.4601 28.2463 41.0596 27.4454 40.8142C27.4583 40.7755 27.4583 40.7367 27.4583 40.698V29.848L30.7779 28.4788C31.7338 28.0784 32.8058 28.1559 33.6842 28.6338L33.4775 28.7371C32.3667 29.2926 31.5788 30.3517 31.3592 31.6176C31.1654 32.8446 31.5788 34.1105 32.4571 35.0017C33.1029 35.6476 33.9683 36.048 34.8854 36.1255C34.8208 36.2159 34.795 36.3063 34.795 36.3967C34.795 36.5776 34.8725 36.7455 35.0404 36.8488Z" fill="white"/>
<path d="M41.8475 39.3932C41.7442 39.5999 41.615 39.7807 41.4471 39.9486C40.9433 40.4524 40.3492 40.7366 39.7292 40.7882L35.0662 36.1382H35.2212C35.8412 36.1382 36.4612 35.9832 37.0037 35.712L37.4171 35.4924L39.6388 34.3687L41.4342 36.1641C41.4342 36.1641 41.4342 36.1641 41.4471 36.177C42.2996 37.0424 42.4417 38.3728 41.8475 39.3932Z" fill="white"/>
<path d="M25.1979 41.6667H21.9687C21.434 41.6667 21 41.2327 21 40.6979V29.7188C21 29.184 21.434 28.75 21.9687 28.75H25.1979C25.7327 28.75 26.1667 29.184 26.1667 29.7188V40.6979C26.1667 41.2327 25.7327 41.6667 25.1979 41.6667Z" fill="white"/>
<path d="M51.0313 41.6667H47.8021C47.2673 41.6667 46.8333 41.2327 46.8333 40.6979V29.7188C46.8333 29.184 47.2673 28.75 47.8021 28.75H51.0313C51.566 28.75 52 29.184 52 29.7188V40.6979C52 41.2327 51.566 41.6667 51.0313 41.6667Z" fill="white"/>
<path d="M44.1725 28.8794C44.1596 28.8794 44.1467 28.8665 44.1208 28.8665L41.1629 27.6523C40.2458 27.2777 39.2125 27.3036 38.3212 27.7557L34.795 29.5252L34.0587 29.8869C33.3096 30.2615 32.78 30.9848 32.6379 31.8115C32.5087 32.6382 32.78 33.4907 33.3742 34.0848C33.8779 34.5886 34.5496 34.8469 35.2212 34.8469C35.6217 34.8469 36.035 34.7565 36.4096 34.5627L36.8358 34.3432L38.6829 33.4131L43.8237 30.8298L45.5417 31.5402V29.719C45.5417 29.6286 45.5417 29.5382 45.5675 29.4607L44.1725 28.8794Z" fill="white"/>
</g>
<defs>
<linearGradient id="paint0_linear" x1="51.5" y1="2.5" x2="30.5" y2="71" gradientUnits="userSpaceOnUse">
<stop stop-color="#6AEFB2"/>
<stop offset="1" stop-color="#51C789"/>
</linearGradient>
<clipPath id="clip0">
<rect width="31" height="31" fill="white" transform="translate(21 21)"/>
</clipPath>
</defs>
</svg>
