<svg width="72" height="72" viewBox="0 0 72 72" fill="none" xmlns="http://www.w3.org/2000/svg">
<circle cx="36" cy="36" r="31.5" fill="url(#paint0_linear)" stroke="white" stroke-width="9"/>
<g clip-path="url(#clip0)">
<path d="M35.9578 41.9516V41.8309C35.3405 41.8242 34.7501 41.7906 34.1798 41.7437C33.8712 42.5421 33.4351 43.2868 32.8916 43.951C33.9182 44.1187 34.9581 44.2127 35.998 44.2261L35.9578 41.9516Z" fill="white"/>
<path d="M33.2405 37.5097C32.744 35.1346 30.9929 33.2023 28.6648 32.471C28.0207 32.2764 27.3565 32.1758 26.6855 32.1758C25.0216 32.1825 23.4114 32.7997 22.1836 33.9135C19.4529 36.3959 19.2583 40.6295 21.7408 43.3602C24.2232 46.0908 28.4568 46.2854 31.1875 43.803C32.583 42.5349 33.3814 40.7435 33.3747 38.8582C33.3747 38.4087 33.3277 37.9525 33.2405 37.5097ZM26.6855 37.9592C27.8194 37.9592 28.8191 38.7106 29.1277 39.8042C29.5034 41.1528 28.7252 42.5483 27.3699 42.9308V43.5212C27.3699 43.8902 27.068 44.1921 26.6989 44.1921C26.3299 44.1921 26.028 43.8902 26.028 43.5212V42.9375C24.921 42.6356 24.1561 41.6359 24.1494 40.4886C24.1494 40.1196 24.4513 39.8177 24.8203 39.8177C25.1894 39.8177 25.4913 40.1196 25.4913 40.4886C25.4913 41.1461 26.028 41.6761 26.6855 41.6761C27.343 41.6761 27.8731 41.1394 27.8731 40.4819C27.8731 39.8244 27.3363 39.2943 26.6788 39.2943C25.5315 39.2943 24.5318 38.5228 24.2366 37.4157C23.881 36.0739 24.6862 34.6783 26.0347 34.316V34.0275C26.0347 33.6585 26.3366 33.3566 26.7057 33.3566C27.0747 33.3566 27.3766 33.6585 27.3766 34.0275V34.3295C28.4702 34.6381 29.2216 35.6378 29.2216 36.7716C29.2216 37.1407 28.9197 37.4426 28.5507 37.4426C28.1817 37.4426 27.8798 37.1407 27.8798 36.7716C27.8798 36.1141 27.343 35.5774 26.6855 35.5774C26.028 35.5774 25.498 36.1074 25.4913 36.7716C25.4913 37.4292 26.028 37.9592 26.6855 37.9592Z" fill="white"/>
<path d="M35.9376 40.4821L35.8974 38.107C35.4814 38.1003 35.0721 38.0869 34.683 38.0601C34.7031 38.3284 34.7165 38.5901 34.7165 38.8518C34.7165 39.3751 34.6629 39.9051 34.5622 40.4217C35.005 40.462 35.468 40.4821 35.9376 40.4821Z" fill="white"/>
<path d="M43.2843 29.3779C42.8214 29.6195 42.3316 29.814 41.8284 29.9616C40.3188 30.4179 38.3396 30.6661 36.2731 30.6661C34.2939 30.6661 32.4086 30.438 30.9527 30.0153C30.4495 29.8811 29.9664 29.6933 29.5034 29.4584L29.5504 31.3505C30.3086 31.6322 31.013 32.0348 31.6504 32.538C31.6705 32.5447 31.684 32.5447 31.7041 32.5514C32.9923 32.8802 34.6159 33.0546 36.2731 33.0546C38.192 33.0546 40.0773 32.8131 41.4393 32.4038C42.8952 31.961 43.2172 31.4981 43.2172 31.4108C43.2172 31.3169 43.2105 31.2297 43.2843 31.1358V29.3779Z" fill="white"/>
<path d="M41.4325 26.7148C40.0706 26.2988 38.1853 26.064 36.2664 26.064C34.3341 26.064 32.5226 26.2988 31.1673 26.7148C29.7517 27.1442 29.443 27.5668 29.4363 27.701C29.4363 27.701 29.4431 27.701 29.4431 27.7144C29.4766 27.8621 29.8792 28.3183 31.3217 28.7343C32.6568 29.1234 34.4146 29.3381 36.2664 29.3381C38.1853 29.3381 40.0639 29.1033 41.4258 28.694C42.8818 28.2579 43.2105 27.795 43.2105 27.701C43.2105 27.6138 42.8885 27.1576 41.4325 26.7148Z" fill="white"/>
<path d="M50.9866 45.2789V43.2661C50.5371 43.4942 50.0674 43.6888 49.5776 43.8364C48.0748 44.2926 46.1089 44.5409 44.0358 44.5409C42.1974 44.5409 40.406 44.3329 38.9971 43.9639C38.4201 43.8163 37.8632 43.615 37.3265 43.3533L37.36 45.299C37.36 45.3057 37.36 45.3057 37.36 45.3124C37.36 45.4131 37.6552 45.8626 39.0709 46.2987C40.4128 46.708 42.2243 46.9361 44.1632 46.9361C46.0955 46.9361 47.9137 46.7013 49.269 46.2786C50.6847 45.8358 50.9933 45.3728 50.9933 45.2789H50.9866Z" fill="white"/>
<path d="M43.2709 33.1221C42.8079 33.3569 42.3249 33.5515 41.8217 33.6991C40.3121 34.1553 38.3328 34.4035 36.2597 34.4035C35.2399 34.4035 34.2268 34.3365 33.2204 34.209C33.7638 34.9604 34.1664 35.8058 34.4213 36.7048C34.9983 36.7451 35.6223 36.7719 36.2664 36.7719C36.2865 36.7719 36.3133 36.7719 36.3335 36.7719C37.4338 35.5643 40.3926 34.9604 43.2709 34.8799V33.1221Z" fill="white"/>
<path d="M49.5307 40.1264C48.0345 40.5693 46.0888 40.8108 44.0492 40.8108C42.0699 40.8108 40.1846 40.5827 38.7287 40.16C38.2255 40.0191 37.7357 39.8312 37.2661 39.5964L37.2929 41.1395L37.2996 41.7031C37.823 42.3539 40.3255 43.1926 44.0425 43.1926C45.9815 43.1926 47.8131 42.9645 49.1885 42.5485C50.6377 42.1057 50.953 41.6494 50.953 41.5555C50.953 41.4817 50.9933 41.4012 50.9933 41.3341H51V39.5562C50.5303 39.791 50.0406 39.9923 49.5307 40.1264Z" fill="white"/>
<path d="M49.2153 36.8722C47.8466 36.4563 45.968 36.2349 44.0492 36.2349H43.9351C42.1504 36.2349 40.453 36.4361 39.1514 36.8052C37.7626 37.1943 37.2862 37.6371 37.2258 37.8183C37.2191 37.8317 37.2191 37.8384 37.2191 37.8451C37.2191 37.8451 37.2191 37.8451 37.2325 37.8719C37.2728 38.0128 37.6686 38.4691 39.1111 38.8917C40.4463 39.2742 42.2041 39.4889 44.0559 39.4889C45.968 39.4889 47.7795 39.2675 49.1549 38.8582C50.6444 38.4154 50.9799 37.9524 50.9866 37.8518V37.8451C50.9799 37.7445 50.6444 37.3016 49.2153 36.8722Z" fill="white"/>
</g>
<defs>
<linearGradient id="paint0_linear" x1="51.5" y1="2.5" x2="30.5" y2="71" gradientUnits="userSpaceOnUse">
<stop stop-color="#25C2FF"/>
<stop offset="1" stop-color="#3C77FF"/>
</linearGradient>
<clipPath id="clip0">
<rect width="31" height="31" fill="white" transform="translate(20 21)"/>
</clipPath>
</defs>
</svg>
