<svg width="19" height="19" viewBox="0 0 19 19" fill="none" xmlns="http://www.w3.org/2000/svg">
<path d="M18.4829 13.9441L15.8314 11.2926C14.8844 10.3456 13.2746 10.7244 12.8958 11.9555C12.6117 12.8078 11.6647 13.2812 10.8125 13.0918C8.91852 12.6183 6.36171 10.1562 5.88822 8.16759C5.60413 7.31528 6.17231 6.36831 7.02458 6.08426C8.25564 5.70547 8.63443 4.09563 7.68746 3.14866L5.03595 0.497158C4.27838 -0.165719 3.14202 -0.165719 2.47914 0.497158L0.679906 2.29639C-1.11933 4.19033 0.8693 9.20925 5.32004 13.66C9.77079 18.1107 14.7897 20.1941 16.6836 18.3001L18.4829 16.5009C19.1458 15.7433 19.1458 14.607 18.4829 13.9441Z" fill="#6A7FD3"/>
</svg>
