<svg width="21" height="21" viewBox="0 0 21 21" fill="none" xmlns="http://www.w3.org/2000/svg">
<g clip-path="url(#clip0)">
<path d="M20.815 1.17236L14.4462 7.50021L20.815 13.8281C20.9302 13.5874 21 13.3214 21 13.0373V1.9631C21 1.67899 20.9302 1.413 20.815 1.17236Z" fill="#6A7FD3"/>
<path d="M19.1543 0.117188H1.8457C1.56159 0.117188 1.2956 0.187037 1.05496 0.302168L9.19505 8.40124C9.91479 9.12098 11.0852 9.12098 11.805 8.40124L19.945 0.302168C19.7044 0.187037 19.4384 0.117188 19.1543 0.117188Z" fill="#6A7FD3"/>
<path d="M0.18498 1.17236C0.0698496 1.413 0 1.67899 0 1.9631V13.0373C0 13.3214 0.0698496 13.5875 0.18498 13.8281L6.55385 7.50021L0.18498 1.17236Z" fill="#6A7FD3"/>
<path d="M13.5762 8.37012L12.6749 9.27135C11.4757 10.4706 9.52428 10.4706 8.32502 9.27135L7.42383 8.37012L1.05496 14.698C1.2956 14.8131 1.56159 14.8829 1.8457 14.8829H19.1543C19.4384 14.8829 19.7044 14.8131 19.945 14.698L13.5762 8.37012Z" fill="#6A7FD3"/>
</g>
<defs>
<clipPath id="clip0">
<rect width="21" height="21" fill="white"/>
</clipPath>
</defs>
</svg>
