<svg width="326" height="478" viewBox="0 0 326 478" fill="none" xmlns="http://www.w3.org/2000/svg">
<path d="M77.8613 23.0371C76.722 23.0371 75.8398 23.4668 75.2148 24.3262C74.5898 25.179 74.2773 26.3704 74.2773 27.9004C74.2773 31.084 75.472 32.6758 77.8613 32.6758C78.8639 32.6758 80.0781 32.4251 81.5039 31.9238V34.4629C80.332 34.9512 79.0234 35.1953 77.5781 35.1953C75.5013 35.1953 73.9128 34.5671 72.8125 33.3105C71.7122 32.0475 71.1621 30.2376 71.1621 27.8809C71.1621 26.3965 71.4323 25.0977 71.9727 23.9844C72.513 22.8646 73.2878 22.0085 74.2969 21.416C75.3125 20.8171 76.5007 20.5176 77.8613 20.5176C79.248 20.5176 80.6413 20.8529 82.041 21.5234L81.0645 23.9844C80.5306 23.7305 79.9935 23.5091 79.4531 23.3203C78.9128 23.1315 78.3822 23.0371 77.8613 23.0371ZM86.6895 29.5215C86.6895 30.6022 86.8652 31.4193 87.2168 31.9727C87.5749 32.526 88.1543 32.8027 88.9551 32.8027C89.7493 32.8027 90.319 32.5293 90.6641 31.9824C91.0156 31.429 91.1914 30.6087 91.1914 29.5215C91.1914 28.4408 91.0156 27.6302 90.6641 27.0898C90.3125 26.5495 89.7363 26.2793 88.9355 26.2793C88.1413 26.2793 87.5684 26.5495 87.2168 27.0898C86.8652 27.6237 86.6895 28.4342 86.6895 29.5215ZM94.2383 29.5215C94.2383 31.2988 93.7695 32.6888 92.832 33.6914C91.8945 34.694 90.5892 35.1953 88.916 35.1953C87.8678 35.1953 86.9434 34.9674 86.1426 34.5117C85.3418 34.0495 84.7266 33.3887 84.2969 32.5293C83.8672 31.6699 83.6523 30.6673 83.6523 29.5215C83.6523 27.7376 84.1178 26.3509 85.0488 25.3613C85.9798 24.3717 87.2884 23.877 88.9746 23.877C90.0228 23.877 90.9473 24.1048 91.748 24.5605C92.5488 25.0163 93.1641 25.6706 93.5938 26.5234C94.0234 27.3763 94.2383 28.3757 94.2383 29.5215ZM106.777 35H103.799V28.623C103.799 27.8353 103.659 27.2461 103.379 26.8555C103.099 26.4583 102.653 26.2598 102.041 26.2598C101.208 26.2598 100.605 26.5397 100.234 27.0996C99.8633 27.653 99.6777 28.5742 99.6777 29.8633V35H96.6992V24.082H98.9746L99.375 25.4785H99.541C99.873 24.9512 100.329 24.554 100.908 24.2871C101.494 24.0137 102.158 23.877 102.9 23.877C104.17 23.877 105.133 24.222 105.791 24.9121C106.449 25.5957 106.777 26.5853 106.777 27.8809V35ZM114.443 32.8223C114.964 32.8223 115.589 32.7083 116.318 32.4805V34.6973C115.576 35.0293 114.665 35.1953 113.584 35.1953C112.393 35.1953 111.523 34.8958 110.977 34.2969C110.436 33.6914 110.166 32.7865 110.166 31.582V26.3184H108.74V25.0586L110.381 24.0625L111.24 21.7578H113.145V24.082H116.201V26.3184H113.145V31.582C113.145 32.0052 113.262 32.3177 113.496 32.5195C113.737 32.7214 114.053 32.8223 114.443 32.8223ZM125.469 35L124.893 33.5156H124.814C124.313 34.1471 123.796 34.5866 123.262 34.834C122.734 35.0749 122.044 35.1953 121.191 35.1953C120.143 35.1953 119.316 34.8958 118.711 34.2969C118.112 33.6979 117.812 32.8451 117.812 31.7383C117.812 30.5794 118.216 29.7266 119.023 29.1797C119.837 28.6263 121.061 28.3203 122.695 28.2617L124.59 28.2031V27.7246C124.59 26.6178 124.023 26.0645 122.891 26.0645C122.018 26.0645 120.993 26.3281 119.814 26.8555L118.828 24.8438C120.085 24.1862 121.478 23.8574 123.008 23.8574C124.473 23.8574 125.596 24.1764 126.377 24.8145C127.158 25.4525 127.549 26.4225 127.549 27.7246V35H125.469ZM124.59 29.9414L123.438 29.9805C122.572 30.0065 121.927 30.1628 121.504 30.4492C121.081 30.7357 120.869 31.1719 120.869 31.7578C120.869 32.5977 121.351 33.0176 122.314 33.0176C123.005 33.0176 123.555 32.819 123.965 32.4219C124.382 32.0247 124.59 31.4974 124.59 30.8398V29.9414ZM135.059 35.1953C131.66 35.1953 129.961 33.3301 129.961 29.5996C129.961 27.7441 130.423 26.3281 131.348 25.3516C132.272 24.3685 133.597 23.877 135.322 23.877C136.585 23.877 137.718 24.1243 138.721 24.6191L137.842 26.9238C137.373 26.735 136.937 26.582 136.533 26.4648C136.13 26.3411 135.726 26.2793 135.322 26.2793C133.773 26.2793 132.998 27.3796 132.998 29.5801C132.998 31.7155 133.773 32.7832 135.322 32.7832C135.895 32.7832 136.426 32.7083 136.914 32.5586C137.402 32.4023 137.891 32.1615 138.379 31.8359V34.3848C137.897 34.6908 137.409 34.9023 136.914 35.0195C136.426 35.1367 135.807 35.1953 135.059 35.1953ZM145.518 32.8223C146.038 32.8223 146.663 32.7083 147.393 32.4805V34.6973C146.65 35.0293 145.739 35.1953 144.658 35.1953C143.467 35.1953 142.598 34.8958 142.051 34.2969C141.51 33.6914 141.24 32.7865 141.24 31.582V26.3184H139.814V25.0586L141.455 24.0625L142.314 21.7578H144.219V24.082H147.275V26.3184H144.219V31.582C144.219 32.0052 144.336 32.3177 144.57 32.5195C144.811 32.7214 145.127 32.8223 145.518 32.8223ZM155.039 35V20.7227H158.066V35H155.039ZM171.504 35H168.525V28.623C168.525 27.8353 168.385 27.2461 168.105 26.8555C167.826 26.4583 167.38 26.2598 166.768 26.2598C165.934 26.2598 165.332 26.5397 164.961 27.0996C164.59 27.653 164.404 28.5742 164.404 29.8633V35H161.426V24.082H163.701L164.102 25.4785H164.268C164.6 24.9512 165.055 24.554 165.635 24.2871C166.221 24.0137 166.885 23.877 167.627 23.877C168.896 23.877 169.86 24.222 170.518 24.9121C171.175 25.5957 171.504 26.5853 171.504 27.8809V35ZM180.605 26.3184H178.027V35H175.049V26.3184H173.408V24.8828L175.049 24.082V23.2812C175.049 22.0378 175.355 21.1296 175.967 20.5566C176.579 19.9837 177.559 19.6973 178.906 19.6973C179.935 19.6973 180.85 19.8503 181.65 20.1562L180.889 22.3438C180.29 22.1549 179.736 22.0605 179.229 22.0605C178.805 22.0605 178.499 22.1875 178.311 22.4414C178.122 22.6888 178.027 23.0078 178.027 23.3984V24.082H180.605V26.3184ZM184.697 29.5215C184.697 30.6022 184.873 31.4193 185.225 31.9727C185.583 32.526 186.162 32.8027 186.963 32.8027C187.757 32.8027 188.327 32.5293 188.672 31.9824C189.023 31.429 189.199 30.6087 189.199 29.5215C189.199 28.4408 189.023 27.6302 188.672 27.0898C188.32 26.5495 187.744 26.2793 186.943 26.2793C186.149 26.2793 185.576 26.5495 185.225 27.0898C184.873 27.6237 184.697 28.4342 184.697 29.5215ZM192.246 29.5215C192.246 31.2988 191.777 32.6888 190.84 33.6914C189.902 34.694 188.597 35.1953 186.924 35.1953C185.876 35.1953 184.951 34.9674 184.15 34.5117C183.35 34.0495 182.734 33.3887 182.305 32.5293C181.875 31.6699 181.66 30.6673 181.66 29.5215C181.66 27.7376 182.126 26.3509 183.057 25.3613C183.988 24.3717 185.296 23.877 186.982 23.877C188.031 23.877 188.955 24.1048 189.756 24.5605C190.557 25.0163 191.172 25.6706 191.602 26.5234C192.031 27.3763 192.246 28.3757 192.246 29.5215ZM200.801 23.877C201.204 23.877 201.54 23.9062 201.807 23.9648L201.582 26.7578C201.341 26.6927 201.048 26.6602 200.703 26.6602C199.753 26.6602 199.01 26.9043 198.477 27.3926C197.949 27.8809 197.686 28.5645 197.686 29.4434V35H194.707V24.082H196.963L197.402 25.918H197.549C197.887 25.306 198.343 24.8145 198.916 24.4434C199.495 24.0658 200.124 23.877 200.801 23.877ZM213.564 35H210.586V28.623C210.586 27.8353 210.452 27.2461 210.186 26.8555C209.925 26.4583 209.512 26.2598 208.945 26.2598C208.184 26.2598 207.63 26.5397 207.285 27.0996C206.94 27.6595 206.768 28.5807 206.768 29.8633V35H203.789V24.082H206.064L206.465 25.4785H206.631C206.924 24.9772 207.347 24.5866 207.9 24.3066C208.454 24.0202 209.089 23.877 209.805 23.877C211.439 23.877 212.546 24.4108 213.125 25.4785H213.389C213.682 24.9707 214.111 24.5768 214.678 24.2969C215.251 24.0169 215.895 23.877 216.611 23.877C217.848 23.877 218.783 24.196 219.414 24.834C220.052 25.4655 220.371 26.4811 220.371 27.8809V35H217.383V28.623C217.383 27.8353 217.249 27.2461 216.982 26.8555C216.722 26.4583 216.309 26.2598 215.742 26.2598C215.013 26.2598 214.466 26.5202 214.102 27.041C213.743 27.5618 213.564 28.3887 213.564 29.5215V35ZM230.371 35L229.795 33.5156H229.717C229.215 34.1471 228.698 34.5866 228.164 34.834C227.637 35.0749 226.947 35.1953 226.094 35.1953C225.046 35.1953 224.219 34.8958 223.613 34.2969C223.014 33.6979 222.715 32.8451 222.715 31.7383C222.715 30.5794 223.118 29.7266 223.926 29.1797C224.74 28.6263 225.964 28.3203 227.598 28.2617L229.492 28.2031V27.7246C229.492 26.6178 228.926 26.0645 227.793 26.0645C226.921 26.0645 225.895 26.3281 224.717 26.8555L223.73 24.8438C224.987 24.1862 226.38 23.8574 227.91 23.8574C229.375 23.8574 230.498 24.1764 231.279 24.8145C232.061 25.4525 232.451 26.4225 232.451 27.7246V35H230.371ZM229.492 29.9414L228.34 29.9805C227.474 30.0065 226.829 30.1628 226.406 30.4492C225.983 30.7357 225.771 31.1719 225.771 31.7578C225.771 32.5977 226.253 33.0176 227.217 33.0176C227.907 33.0176 228.457 32.819 228.867 32.4219C229.284 32.0247 229.492 31.4974 229.492 30.8398V29.9414ZM240.127 32.8223C240.648 32.8223 241.273 32.7083 242.002 32.4805V34.6973C241.26 35.0293 240.348 35.1953 239.268 35.1953C238.076 35.1953 237.207 34.8958 236.66 34.2969C236.12 33.6914 235.85 32.7865 235.85 31.582V26.3184H234.424V25.0586L236.064 24.0625L236.924 21.7578H238.828V24.082H241.885V26.3184H238.828V31.582C238.828 32.0052 238.945 32.3177 239.18 32.5195C239.421 32.7214 239.736 32.8223 240.127 32.8223ZM244.092 21.2598C244.092 20.2897 244.632 19.8047 245.713 19.8047C246.794 19.8047 247.334 20.2897 247.334 21.2598C247.334 21.722 247.197 22.0833 246.924 22.3438C246.657 22.5977 246.253 22.7246 245.713 22.7246C244.632 22.7246 244.092 22.2363 244.092 21.2598ZM247.197 35H244.219V24.082H247.197V35ZM252.705 29.5215C252.705 30.6022 252.881 31.4193 253.232 31.9727C253.59 32.526 254.17 32.8027 254.971 32.8027C255.765 32.8027 256.335 32.5293 256.68 31.9824C257.031 31.429 257.207 30.6087 257.207 29.5215C257.207 28.4408 257.031 27.6302 256.68 27.0898C256.328 26.5495 255.752 26.2793 254.951 26.2793C254.157 26.2793 253.584 26.5495 253.232 27.0898C252.881 27.6237 252.705 28.4342 252.705 29.5215ZM260.254 29.5215C260.254 31.2988 259.785 32.6888 258.848 33.6914C257.91 34.694 256.605 35.1953 254.932 35.1953C253.883 35.1953 252.959 34.9674 252.158 34.5117C251.357 34.0495 250.742 33.3887 250.312 32.5293C249.883 31.6699 249.668 30.6673 249.668 29.5215C249.668 27.7376 250.133 26.3509 251.064 25.3613C251.995 24.3717 253.304 23.877 254.99 23.877C256.038 23.877 256.963 24.1048 257.764 24.5605C258.564 25.0163 259.18 25.6706 259.609 26.5234C260.039 27.3763 260.254 28.3757 260.254 29.5215ZM272.793 35H269.814V28.623C269.814 27.8353 269.674 27.2461 269.395 26.8555C269.115 26.4583 268.669 26.2598 268.057 26.2598C267.223 26.2598 266.621 26.5397 266.25 27.0996C265.879 27.653 265.693 28.5742 265.693 29.8633V35H262.715V24.082H264.99L265.391 25.4785H265.557C265.889 24.9512 266.344 24.554 266.924 24.2871C267.51 24.0137 268.174 23.877 268.916 23.877C270.186 23.877 271.149 24.222 271.807 24.9121C272.464 25.5957 272.793 26.5853 272.793 27.8809V35Z" fill="black"/>
<path d="M80.0195 243H71.7969V228.723H80.0195V231.203H74.8242V234.338H79.6582V236.818H74.8242V240.5H80.0195V243ZM92.5488 243H89.5703V236.623C89.5703 235.835 89.4368 235.246 89.1699 234.855C88.9095 234.458 88.4961 234.26 87.9297 234.26C87.168 234.26 86.6146 234.54 86.2695 235.1C85.9245 235.66 85.752 236.581 85.752 237.863V243H82.7734V232.082H85.0488L85.4492 233.479H85.6152C85.9082 232.977 86.3314 232.587 86.8848 232.307C87.4382 232.02 88.0729 231.877 88.7891 231.877C90.4232 231.877 91.5299 232.411 92.1094 233.479H92.373C92.666 232.971 93.0957 232.577 93.6621 232.297C94.235 232.017 94.8796 231.877 95.5957 231.877C96.8327 231.877 97.7669 232.196 98.3984 232.834C99.0365 233.465 99.3555 234.481 99.3555 235.881V243H96.3672V236.623C96.3672 235.835 96.2337 235.246 95.9668 234.855C95.7064 234.458 95.293 234.26 94.7266 234.26C93.9974 234.26 93.4505 234.52 93.0859 235.041C92.7279 235.562 92.5488 236.389 92.5488 237.521V243ZM108.418 243.195C107.135 243.195 106.13 242.73 105.4 241.799H105.244C105.348 242.71 105.4 243.238 105.4 243.381V247.805H102.422V232.082H104.844L105.264 233.498H105.4C106.097 232.417 107.129 231.877 108.496 231.877C109.785 231.877 110.794 232.375 111.523 233.371C112.253 234.367 112.617 235.751 112.617 237.521C112.617 238.687 112.445 239.699 112.1 240.559C111.761 241.418 111.276 242.072 110.645 242.521C110.013 242.971 109.271 243.195 108.418 243.195ZM107.539 234.26C106.803 234.26 106.266 234.488 105.928 234.943C105.589 235.393 105.413 236.138 105.4 237.18V237.502C105.4 238.674 105.573 239.514 105.918 240.021C106.27 240.529 106.823 240.783 107.578 240.783C108.913 240.783 109.58 239.683 109.58 237.482C109.58 236.408 109.414 235.604 109.082 235.07C108.757 234.53 108.242 234.26 107.539 234.26ZM118.057 243H115.078V227.805H118.057V243ZM123.564 237.521C123.564 238.602 123.74 239.419 124.092 239.973C124.45 240.526 125.029 240.803 125.83 240.803C126.624 240.803 127.194 240.529 127.539 239.982C127.891 239.429 128.066 238.609 128.066 237.521C128.066 236.441 127.891 235.63 127.539 235.09C127.188 234.549 126.611 234.279 125.811 234.279C125.016 234.279 124.443 234.549 124.092 235.09C123.74 235.624 123.564 236.434 123.564 237.521ZM131.113 237.521C131.113 239.299 130.645 240.689 129.707 241.691C128.77 242.694 127.464 243.195 125.791 243.195C124.743 243.195 123.818 242.967 123.018 242.512C122.217 242.049 121.602 241.389 121.172 240.529C120.742 239.67 120.527 238.667 120.527 237.521C120.527 235.738 120.993 234.351 121.924 233.361C122.855 232.372 124.163 231.877 125.85 231.877C126.898 231.877 127.822 232.105 128.623 232.561C129.424 233.016 130.039 233.671 130.469 234.523C130.898 235.376 131.113 236.376 131.113 237.521ZM132.012 232.082H135.273L137.334 238.225C137.51 238.758 137.63 239.39 137.695 240.119H137.754C137.826 239.449 137.965 238.817 138.174 238.225L140.195 232.082H143.389L138.77 244.396C138.346 245.536 137.741 246.389 136.953 246.955C136.172 247.521 135.257 247.805 134.209 247.805C133.695 247.805 133.19 247.749 132.695 247.639V245.275C133.053 245.36 133.444 245.402 133.867 245.402C134.395 245.402 134.854 245.24 135.244 244.914C135.641 244.595 135.951 244.11 136.172 243.459L136.348 242.922L132.012 232.082ZM154.736 243H151.758V236.623C151.758 235.835 151.624 235.246 151.357 234.855C151.097 234.458 150.684 234.26 150.117 234.26C149.355 234.26 148.802 234.54 148.457 235.1C148.112 235.66 147.939 236.581 147.939 237.863V243H144.961V232.082H147.236L147.637 233.479H147.803C148.096 232.977 148.519 232.587 149.072 232.307C149.626 232.02 150.26 231.877 150.977 231.877C152.611 231.877 153.717 232.411 154.297 233.479H154.561C154.854 232.971 155.283 232.577 155.85 232.297C156.423 232.017 157.067 231.877 157.783 231.877C159.02 231.877 159.954 232.196 160.586 232.834C161.224 233.465 161.543 234.481 161.543 235.881V243H158.555V236.623C158.555 235.835 158.421 235.246 158.154 234.855C157.894 234.458 157.48 234.26 156.914 234.26C156.185 234.26 155.638 234.52 155.273 235.041C154.915 235.562 154.736 236.389 154.736 237.521V243ZM169.131 233.996C168.499 233.996 168.005 234.198 167.646 234.602C167.288 234.999 167.083 235.565 167.031 236.301H171.211C171.198 235.565 171.006 234.999 170.635 234.602C170.264 234.198 169.762 233.996 169.131 233.996ZM169.551 243.195C167.793 243.195 166.419 242.71 165.43 241.74C164.44 240.77 163.945 239.396 163.945 237.619C163.945 235.79 164.401 234.377 165.312 233.381C166.23 232.378 167.497 231.877 169.111 231.877C170.654 231.877 171.855 232.316 172.715 233.195C173.574 234.074 174.004 235.288 174.004 236.838V238.283H166.963C166.995 239.13 167.246 239.79 167.715 240.266C168.184 240.741 168.841 240.979 169.688 240.979C170.345 240.979 170.967 240.91 171.553 240.773C172.139 240.637 172.751 240.419 173.389 240.119V242.424C172.868 242.684 172.311 242.876 171.719 243C171.126 243.13 170.404 243.195 169.551 243.195ZM186.504 243H183.525V236.623C183.525 235.835 183.385 235.246 183.105 234.855C182.826 234.458 182.38 234.26 181.768 234.26C180.934 234.26 180.332 234.54 179.961 235.1C179.59 235.653 179.404 236.574 179.404 237.863V243H176.426V232.082H178.701L179.102 233.479H179.268C179.6 232.951 180.055 232.554 180.635 232.287C181.221 232.014 181.885 231.877 182.627 231.877C183.896 231.877 184.86 232.222 185.518 232.912C186.175 233.596 186.504 234.585 186.504 235.881V243ZM194.17 240.822C194.691 240.822 195.316 240.708 196.045 240.48V242.697C195.303 243.029 194.391 243.195 193.311 243.195C192.119 243.195 191.25 242.896 190.703 242.297C190.163 241.691 189.893 240.786 189.893 239.582V234.318H188.467V233.059L190.107 232.062L190.967 229.758H192.871V232.082H195.928V234.318H192.871V239.582C192.871 240.005 192.988 240.318 193.223 240.52C193.464 240.721 193.779 240.822 194.17 240.822ZM203.691 243V228.723H206.719V243H203.691ZM220.156 243H217.178V236.623C217.178 235.835 217.038 235.246 216.758 234.855C216.478 234.458 216.032 234.26 215.42 234.26C214.587 234.26 213.984 234.54 213.613 235.1C213.242 235.653 213.057 236.574 213.057 237.863V243H210.078V232.082H212.354L212.754 233.479H212.92C213.252 232.951 213.708 232.554 214.287 232.287C214.873 232.014 215.537 231.877 216.279 231.877C217.549 231.877 218.512 232.222 219.17 232.912C219.827 233.596 220.156 234.585 220.156 235.881V243ZM229.258 234.318H226.68V243H223.701V234.318H222.061V232.883L223.701 232.082V231.281C223.701 230.038 224.007 229.13 224.619 228.557C225.231 227.984 226.211 227.697 227.559 227.697C228.587 227.697 229.502 227.85 230.303 228.156L229.541 230.344C228.942 230.155 228.389 230.061 227.881 230.061C227.458 230.061 227.152 230.188 226.963 230.441C226.774 230.689 226.68 231.008 226.68 231.398V232.082H229.258V234.318ZM233.35 237.521C233.35 238.602 233.525 239.419 233.877 239.973C234.235 240.526 234.814 240.803 235.615 240.803C236.41 240.803 236.979 240.529 237.324 239.982C237.676 239.429 237.852 238.609 237.852 237.521C237.852 236.441 237.676 235.63 237.324 235.09C236.973 234.549 236.396 234.279 235.596 234.279C234.801 234.279 234.229 234.549 233.877 235.09C233.525 235.624 233.35 236.434 233.35 237.521ZM240.898 237.521C240.898 239.299 240.43 240.689 239.492 241.691C238.555 242.694 237.249 243.195 235.576 243.195C234.528 243.195 233.604 242.967 232.803 242.512C232.002 242.049 231.387 241.389 230.957 240.529C230.527 239.67 230.312 238.667 230.312 237.521C230.312 235.738 230.778 234.351 231.709 233.361C232.64 232.372 233.949 231.877 235.635 231.877C236.683 231.877 237.607 232.105 238.408 232.561C239.209 233.016 239.824 233.671 240.254 234.523C240.684 235.376 240.898 236.376 240.898 237.521ZM249.453 231.877C249.857 231.877 250.192 231.906 250.459 231.965L250.234 234.758C249.993 234.693 249.701 234.66 249.355 234.66C248.405 234.66 247.663 234.904 247.129 235.393C246.602 235.881 246.338 236.564 246.338 237.443V243H243.359V232.082H245.615L246.055 233.918H246.201C246.54 233.306 246.995 232.814 247.568 232.443C248.148 232.066 248.776 231.877 249.453 231.877ZM262.217 243H259.238V236.623C259.238 235.835 259.105 235.246 258.838 234.855C258.577 234.458 258.164 234.26 257.598 234.26C256.836 234.26 256.283 234.54 255.938 235.1C255.592 235.66 255.42 236.581 255.42 237.863V243H252.441V232.082H254.717L255.117 233.479H255.283C255.576 232.977 255.999 232.587 256.553 232.307C257.106 232.02 257.741 231.877 258.457 231.877C260.091 231.877 261.198 232.411 261.777 233.479H262.041C262.334 232.971 262.764 232.577 263.33 232.297C263.903 232.017 264.548 231.877 265.264 231.877C266.501 231.877 267.435 232.196 268.066 232.834C268.704 233.465 269.023 234.481 269.023 235.881V243H266.035V236.623C266.035 235.835 265.902 235.246 265.635 234.855C265.374 234.458 264.961 234.26 264.395 234.26C263.665 234.26 263.118 234.52 262.754 235.041C262.396 235.562 262.217 236.389 262.217 237.521V243ZM279.023 243L278.447 241.516H278.369C277.868 242.147 277.35 242.587 276.816 242.834C276.289 243.075 275.599 243.195 274.746 243.195C273.698 243.195 272.871 242.896 272.266 242.297C271.667 241.698 271.367 240.845 271.367 239.738C271.367 238.579 271.771 237.727 272.578 237.18C273.392 236.626 274.616 236.32 276.25 236.262L278.145 236.203V235.725C278.145 234.618 277.578 234.064 276.445 234.064C275.573 234.064 274.548 234.328 273.369 234.855L272.383 232.844C273.639 232.186 275.033 231.857 276.562 231.857C278.027 231.857 279.15 232.176 279.932 232.814C280.713 233.452 281.104 234.423 281.104 235.725V243H279.023ZM278.145 237.941L276.992 237.98C276.126 238.007 275.482 238.163 275.059 238.449C274.635 238.736 274.424 239.172 274.424 239.758C274.424 240.598 274.906 241.018 275.869 241.018C276.559 241.018 277.109 240.819 277.52 240.422C277.936 240.025 278.145 239.497 278.145 238.84V237.941ZM288.779 240.822C289.3 240.822 289.925 240.708 290.654 240.48V242.697C289.912 243.029 289.001 243.195 287.92 243.195C286.729 243.195 285.859 242.896 285.312 242.297C284.772 241.691 284.502 240.786 284.502 239.582V234.318H283.076V233.059L284.717 232.062L285.576 229.758H287.48V232.082H290.537V234.318H287.48V239.582C287.48 240.005 287.598 240.318 287.832 240.52C288.073 240.721 288.389 240.822 288.779 240.822ZM292.744 229.26C292.744 228.29 293.285 227.805 294.365 227.805C295.446 227.805 295.986 228.29 295.986 229.26C295.986 229.722 295.85 230.083 295.576 230.344C295.309 230.598 294.906 230.725 294.365 230.725C293.285 230.725 292.744 230.236 292.744 229.26ZM295.85 243H292.871V232.082H295.85V243ZM301.357 237.521C301.357 238.602 301.533 239.419 301.885 239.973C302.243 240.526 302.822 240.803 303.623 240.803C304.417 240.803 304.987 240.529 305.332 239.982C305.684 239.429 305.859 238.609 305.859 237.521C305.859 236.441 305.684 235.63 305.332 235.09C304.98 234.549 304.404 234.279 303.604 234.279C302.809 234.279 302.236 234.549 301.885 235.09C301.533 235.624 301.357 236.434 301.357 237.521ZM308.906 237.521C308.906 239.299 308.438 240.689 307.5 241.691C306.562 242.694 305.257 243.195 303.584 243.195C302.536 243.195 301.611 242.967 300.811 242.512C300.01 242.049 299.395 241.389 298.965 240.529C298.535 239.67 298.32 238.667 298.32 237.521C298.32 235.738 298.786 234.351 299.717 233.361C300.648 232.372 301.956 231.877 303.643 231.877C304.691 231.877 305.615 232.105 306.416 232.561C307.217 233.016 307.832 233.671 308.262 234.523C308.691 235.376 308.906 236.376 308.906 237.521ZM321.445 243H318.467V236.623C318.467 235.835 318.327 235.246 318.047 234.855C317.767 234.458 317.321 234.26 316.709 234.26C315.876 234.26 315.273 234.54 314.902 235.1C314.531 235.653 314.346 236.574 314.346 237.863V243H311.367V232.082H313.643L314.043 233.479H314.209C314.541 232.951 314.997 232.554 315.576 232.287C316.162 232.014 316.826 231.877 317.568 231.877C318.838 231.877 319.801 232.222 320.459 232.912C321.117 233.596 321.445 234.585 321.445 235.881V243Z" fill="black"/>
<path d="M83.4961 351H80.4785V344.838H74.8242V351H71.7969V336.723H74.8242V342.318H80.4785V336.723H83.4961V351ZM89.248 345.521C89.248 346.602 89.4238 347.419 89.7754 347.973C90.1335 348.526 90.7129 348.803 91.5137 348.803C92.3079 348.803 92.8776 348.529 93.2227 347.982C93.5742 347.429 93.75 346.609 93.75 345.521C93.75 344.441 93.5742 343.63 93.2227 343.09C92.8711 342.549 92.2949 342.279 91.4941 342.279C90.6999 342.279 90.127 342.549 89.7754 343.09C89.4238 343.624 89.248 344.434 89.248 345.521ZM96.7969 345.521C96.7969 347.299 96.3281 348.689 95.3906 349.691C94.4531 350.694 93.1478 351.195 91.4746 351.195C90.4264 351.195 89.502 350.967 88.7012 350.512C87.9004 350.049 87.2852 349.389 86.8555 348.529C86.4258 347.67 86.2109 346.667 86.2109 345.521C86.2109 343.738 86.6764 342.351 87.6074 341.361C88.5384 340.372 89.847 339.877 91.5332 339.877C92.5814 339.877 93.5059 340.105 94.3066 340.561C95.1074 341.016 95.7227 341.671 96.1523 342.523C96.582 343.376 96.7969 344.376 96.7969 345.521ZM109.033 351H106.055V344.623C106.055 343.835 105.921 343.246 105.654 342.855C105.394 342.458 104.98 342.26 104.414 342.26C103.652 342.26 103.099 342.54 102.754 343.1C102.409 343.66 102.236 344.581 102.236 345.863V351H99.2578V340.082H101.533L101.934 341.479H102.1C102.393 340.977 102.816 340.587 103.369 340.307C103.923 340.02 104.557 339.877 105.273 339.877C106.908 339.877 108.014 340.411 108.594 341.479H108.857C109.15 340.971 109.58 340.577 110.146 340.297C110.719 340.017 111.364 339.877 112.08 339.877C113.317 339.877 114.251 340.196 114.883 340.834C115.521 341.465 115.84 342.481 115.84 343.881V351H112.852V344.623C112.852 343.835 112.718 343.246 112.451 342.855C112.191 342.458 111.777 342.26 111.211 342.26C110.482 342.26 109.935 342.52 109.57 343.041C109.212 343.562 109.033 344.389 109.033 345.521V351ZM123.428 341.996C122.796 341.996 122.301 342.198 121.943 342.602C121.585 342.999 121.38 343.565 121.328 344.301H125.508C125.495 343.565 125.303 342.999 124.932 342.602C124.561 342.198 124.059 341.996 123.428 341.996ZM123.848 351.195C122.09 351.195 120.716 350.71 119.727 349.74C118.737 348.77 118.242 347.396 118.242 345.619C118.242 343.79 118.698 342.377 119.609 341.381C120.527 340.378 121.794 339.877 123.408 339.877C124.951 339.877 126.152 340.316 127.012 341.195C127.871 342.074 128.301 343.288 128.301 344.838V346.283H121.26C121.292 347.13 121.543 347.79 122.012 348.266C122.48 348.741 123.138 348.979 123.984 348.979C124.642 348.979 125.264 348.91 125.85 348.773C126.436 348.637 127.048 348.419 127.686 348.119V350.424C127.165 350.684 126.608 350.876 126.016 351C125.423 351.13 124.701 351.195 123.848 351.195ZM136.152 351V336.723H139.18V351H136.152ZM152.617 351H149.639V344.623C149.639 343.835 149.499 343.246 149.219 342.855C148.939 342.458 148.493 342.26 147.881 342.26C147.048 342.26 146.445 342.54 146.074 343.1C145.703 343.653 145.518 344.574 145.518 345.863V351H142.539V340.082H144.814L145.215 341.479H145.381C145.713 340.951 146.169 340.554 146.748 340.287C147.334 340.014 147.998 339.877 148.74 339.877C150.01 339.877 150.973 340.222 151.631 340.912C152.288 341.596 152.617 342.585 152.617 343.881V351ZM161.719 342.318H159.141V351H156.162V342.318H154.521V340.883L156.162 340.082V339.281C156.162 338.038 156.468 337.13 157.08 336.557C157.692 335.984 158.672 335.697 160.02 335.697C161.048 335.697 161.963 335.85 162.764 336.156L162.002 338.344C161.403 338.155 160.85 338.061 160.342 338.061C159.919 338.061 159.613 338.188 159.424 338.441C159.235 338.689 159.141 339.008 159.141 339.398V340.082H161.719V342.318ZM165.811 345.521C165.811 346.602 165.986 347.419 166.338 347.973C166.696 348.526 167.275 348.803 168.076 348.803C168.87 348.803 169.44 348.529 169.785 347.982C170.137 347.429 170.312 346.609 170.312 345.521C170.312 344.441 170.137 343.63 169.785 343.09C169.434 342.549 168.857 342.279 168.057 342.279C167.262 342.279 166.689 342.549 166.338 343.09C165.986 343.624 165.811 344.434 165.811 345.521ZM173.359 345.521C173.359 347.299 172.891 348.689 171.953 349.691C171.016 350.694 169.71 351.195 168.037 351.195C166.989 351.195 166.064 350.967 165.264 350.512C164.463 350.049 163.848 349.389 163.418 348.529C162.988 347.67 162.773 346.667 162.773 345.521C162.773 343.738 163.239 342.351 164.17 341.361C165.101 340.372 166.41 339.877 168.096 339.877C169.144 339.877 170.068 340.105 170.869 340.561C171.67 341.016 172.285 341.671 172.715 342.523C173.145 343.376 173.359 344.376 173.359 345.521ZM181.914 339.877C182.318 339.877 182.653 339.906 182.92 339.965L182.695 342.758C182.454 342.693 182.161 342.66 181.816 342.66C180.866 342.66 180.124 342.904 179.59 343.393C179.062 343.881 178.799 344.564 178.799 345.443V351H175.82V340.082H178.076L178.516 341.918H178.662C179.001 341.306 179.456 340.814 180.029 340.443C180.609 340.066 181.237 339.877 181.914 339.877ZM194.678 351H191.699V344.623C191.699 343.835 191.566 343.246 191.299 342.855C191.038 342.458 190.625 342.26 190.059 342.26C189.297 342.26 188.743 342.54 188.398 343.1C188.053 343.66 187.881 344.581 187.881 345.863V351H184.902V340.082H187.178L187.578 341.479H187.744C188.037 340.977 188.46 340.587 189.014 340.307C189.567 340.02 190.202 339.877 190.918 339.877C192.552 339.877 193.659 340.411 194.238 341.479H194.502C194.795 340.971 195.225 340.577 195.791 340.297C196.364 340.017 197.008 339.877 197.725 339.877C198.962 339.877 199.896 340.196 200.527 340.834C201.165 341.465 201.484 342.481 201.484 343.881V351H198.496V344.623C198.496 343.835 198.363 343.246 198.096 342.855C197.835 342.458 197.422 342.26 196.855 342.26C196.126 342.26 195.579 342.52 195.215 343.041C194.857 343.562 194.678 344.389 194.678 345.521V351ZM211.484 351L210.908 349.516H210.83C210.329 350.147 209.811 350.587 209.277 350.834C208.75 351.075 208.06 351.195 207.207 351.195C206.159 351.195 205.332 350.896 204.727 350.297C204.128 349.698 203.828 348.845 203.828 347.738C203.828 346.579 204.232 345.727 205.039 345.18C205.853 344.626 207.077 344.32 208.711 344.262L210.605 344.203V343.725C210.605 342.618 210.039 342.064 208.906 342.064C208.034 342.064 207.008 342.328 205.83 342.855L204.844 340.844C206.1 340.186 207.493 339.857 209.023 339.857C210.488 339.857 211.611 340.176 212.393 340.814C213.174 341.452 213.564 342.423 213.564 343.725V351H211.484ZM210.605 345.941L209.453 345.98C208.587 346.007 207.943 346.163 207.52 346.449C207.096 346.736 206.885 347.172 206.885 347.758C206.885 348.598 207.367 349.018 208.33 349.018C209.02 349.018 209.57 348.819 209.98 348.422C210.397 348.025 210.605 347.497 210.605 346.84V345.941ZM221.24 348.822C221.761 348.822 222.386 348.708 223.115 348.48V350.697C222.373 351.029 221.462 351.195 220.381 351.195C219.189 351.195 218.32 350.896 217.773 350.297C217.233 349.691 216.963 348.786 216.963 347.582V342.318H215.537V341.059L217.178 340.062L218.037 337.758H219.941V340.082H222.998V342.318H219.941V347.582C219.941 348.005 220.059 348.318 220.293 348.52C220.534 348.721 220.85 348.822 221.24 348.822ZM225.205 337.26C225.205 336.29 225.745 335.805 226.826 335.805C227.907 335.805 228.447 336.29 228.447 337.26C228.447 337.722 228.311 338.083 228.037 338.344C227.77 338.598 227.367 338.725 226.826 338.725C225.745 338.725 225.205 338.236 225.205 337.26ZM228.311 351H225.332V340.082H228.311V351ZM233.818 345.521C233.818 346.602 233.994 347.419 234.346 347.973C234.704 348.526 235.283 348.803 236.084 348.803C236.878 348.803 237.448 348.529 237.793 347.982C238.145 347.429 238.32 346.609 238.32 345.521C238.32 344.441 238.145 343.63 237.793 343.09C237.441 342.549 236.865 342.279 236.064 342.279C235.27 342.279 234.697 342.549 234.346 343.09C233.994 343.624 233.818 344.434 233.818 345.521ZM241.367 345.521C241.367 347.299 240.898 348.689 239.961 349.691C239.023 350.694 237.718 351.195 236.045 351.195C234.997 351.195 234.072 350.967 233.271 350.512C232.471 350.049 231.855 349.389 231.426 348.529C230.996 347.67 230.781 346.667 230.781 345.521C230.781 343.738 231.247 342.351 232.178 341.361C233.109 340.372 234.417 339.877 236.104 339.877C237.152 339.877 238.076 340.105 238.877 340.561C239.678 341.016 240.293 341.671 240.723 342.523C241.152 343.376 241.367 344.376 241.367 345.521ZM253.906 351H250.928V344.623C250.928 343.835 250.788 343.246 250.508 342.855C250.228 342.458 249.782 342.26 249.17 342.26C248.337 342.26 247.734 342.54 247.363 343.1C246.992 343.653 246.807 344.574 246.807 345.863V351H243.828V340.082H246.104L246.504 341.479H246.67C247.002 340.951 247.458 340.554 248.037 340.287C248.623 340.014 249.287 339.877 250.029 339.877C251.299 339.877 252.262 340.222 252.92 340.912C253.577 341.596 253.906 342.585 253.906 343.881V351Z" fill="black"/>
<path d="M77.8613 447.037C76.722 447.037 75.8398 447.467 75.2148 448.326C74.5898 449.179 74.2773 450.37 74.2773 451.9C74.2773 455.084 75.472 456.676 77.8613 456.676C78.8639 456.676 80.0781 456.425 81.5039 455.924V458.463C80.332 458.951 79.0234 459.195 77.5781 459.195C75.5013 459.195 73.9128 458.567 72.8125 457.311C71.7122 456.048 71.1621 454.238 71.1621 451.881C71.1621 450.396 71.4323 449.098 71.9727 447.984C72.513 446.865 73.2878 446.008 74.2969 445.416C75.3125 444.817 76.5007 444.518 77.8613 444.518C79.248 444.518 80.6413 444.853 82.041 445.523L81.0645 447.984C80.5306 447.73 79.9935 447.509 79.4531 447.32C78.9128 447.132 78.3822 447.037 77.8613 447.037ZM86.6895 453.521C86.6895 454.602 86.8652 455.419 87.2168 455.973C87.5749 456.526 88.1543 456.803 88.9551 456.803C89.7493 456.803 90.319 456.529 90.6641 455.982C91.0156 455.429 91.1914 454.609 91.1914 453.521C91.1914 452.441 91.0156 451.63 90.6641 451.09C90.3125 450.549 89.7363 450.279 88.9355 450.279C88.1413 450.279 87.5684 450.549 87.2168 451.09C86.8652 451.624 86.6895 452.434 86.6895 453.521ZM94.2383 453.521C94.2383 455.299 93.7695 456.689 92.832 457.691C91.8945 458.694 90.5892 459.195 88.916 459.195C87.8678 459.195 86.9434 458.967 86.1426 458.512C85.3418 458.049 84.7266 457.389 84.2969 456.529C83.8672 455.67 83.6523 454.667 83.6523 453.521C83.6523 451.738 84.1178 450.351 85.0488 449.361C85.9798 448.372 87.2884 447.877 88.9746 447.877C90.0228 447.877 90.9473 448.105 91.748 448.561C92.5488 449.016 93.1641 449.671 93.5938 450.523C94.0234 451.376 94.2383 452.376 94.2383 453.521ZM106.475 459H103.496V452.623C103.496 451.835 103.363 451.246 103.096 450.855C102.835 450.458 102.422 450.26 101.855 450.26C101.094 450.26 100.54 450.54 100.195 451.1C99.8503 451.66 99.6777 452.581 99.6777 453.863V459H96.6992V448.082H98.9746L99.375 449.479H99.541C99.834 448.977 100.257 448.587 100.811 448.307C101.364 448.02 101.999 447.877 102.715 447.877C104.349 447.877 105.456 448.411 106.035 449.479H106.299C106.592 448.971 107.021 448.577 107.588 448.297C108.161 448.017 108.805 447.877 109.521 447.877C110.758 447.877 111.693 448.196 112.324 448.834C112.962 449.465 113.281 450.481 113.281 451.881V459H110.293V452.623C110.293 451.835 110.16 451.246 109.893 450.855C109.632 450.458 109.219 450.26 108.652 450.26C107.923 450.26 107.376 450.52 107.012 451.041C106.654 451.562 106.475 452.389 106.475 453.521V459ZM122.344 459.195C121.061 459.195 120.055 458.73 119.326 457.799H119.17C119.274 458.71 119.326 459.238 119.326 459.381V463.805H116.348V448.082H118.77L119.189 449.498H119.326C120.023 448.417 121.055 447.877 122.422 447.877C123.711 447.877 124.72 448.375 125.449 449.371C126.178 450.367 126.543 451.751 126.543 453.521C126.543 454.687 126.37 455.699 126.025 456.559C125.687 457.418 125.202 458.072 124.57 458.521C123.939 458.971 123.197 459.195 122.344 459.195ZM121.465 450.26C120.729 450.26 120.192 450.488 119.854 450.943C119.515 451.393 119.339 452.138 119.326 453.18V453.502C119.326 454.674 119.499 455.514 119.844 456.021C120.195 456.529 120.749 456.783 121.504 456.783C122.839 456.783 123.506 455.683 123.506 453.482C123.506 452.408 123.34 451.604 123.008 451.07C122.682 450.53 122.168 450.26 121.465 450.26ZM131.982 459H129.004V443.805H131.982V459ZM139.639 449.996C139.007 449.996 138.512 450.198 138.154 450.602C137.796 450.999 137.591 451.565 137.539 452.301H141.719C141.706 451.565 141.514 450.999 141.143 450.602C140.771 450.198 140.27 449.996 139.639 449.996ZM140.059 459.195C138.301 459.195 136.927 458.71 135.938 457.74C134.948 456.77 134.453 455.396 134.453 453.619C134.453 451.79 134.909 450.377 135.82 449.381C136.738 448.378 138.005 447.877 139.619 447.877C141.162 447.877 142.363 448.316 143.223 449.195C144.082 450.074 144.512 451.288 144.512 452.838V454.283H137.471C137.503 455.13 137.754 455.79 138.223 456.266C138.691 456.741 139.349 456.979 140.195 456.979C140.853 456.979 141.475 456.91 142.061 456.773C142.646 456.637 143.258 456.419 143.896 456.119V458.424C143.376 458.684 142.819 458.876 142.227 459C141.634 459.13 140.911 459.195 140.059 459.195ZM151.533 456.822C152.054 456.822 152.679 456.708 153.408 456.48V458.697C152.666 459.029 151.755 459.195 150.674 459.195C149.482 459.195 148.613 458.896 148.066 458.297C147.526 457.691 147.256 456.786 147.256 455.582V450.318H145.83V449.059L147.471 448.062L148.33 445.758H150.234V448.082H153.291V450.318H150.234V455.582C150.234 456.005 150.352 456.318 150.586 456.52C150.827 456.721 151.143 456.822 151.533 456.822ZM160.146 449.996C159.515 449.996 159.02 450.198 158.662 450.602C158.304 450.999 158.099 451.565 158.047 452.301H162.227C162.214 451.565 162.021 450.999 161.65 450.602C161.279 450.198 160.778 449.996 160.146 449.996ZM160.566 459.195C158.809 459.195 157.435 458.71 156.445 457.74C155.456 456.77 154.961 455.396 154.961 453.619C154.961 451.79 155.417 450.377 156.328 449.381C157.246 448.378 158.512 447.877 160.127 447.877C161.67 447.877 162.871 448.316 163.73 449.195C164.59 450.074 165.02 451.288 165.02 452.838V454.283H157.979C158.011 455.13 158.262 455.79 158.73 456.266C159.199 456.741 159.857 456.979 160.703 456.979C161.361 456.979 161.982 456.91 162.568 456.773C163.154 456.637 163.766 456.419 164.404 456.119V458.424C163.883 458.684 163.327 458.876 162.734 459C162.142 459.13 161.419 459.195 160.566 459.195ZM170.898 459.195C169.616 459.195 168.607 458.697 167.871 457.701C167.142 456.705 166.777 455.325 166.777 453.561C166.777 451.77 167.148 450.377 167.891 449.381C168.639 448.378 169.668 447.877 170.977 447.877C172.35 447.877 173.398 448.411 174.121 449.479H174.219C174.069 448.665 173.994 447.939 173.994 447.301V443.805H176.982V459H174.697L174.121 457.584H173.994C173.317 458.658 172.285 459.195 170.898 459.195ZM171.943 456.822C172.705 456.822 173.262 456.601 173.613 456.158C173.971 455.715 174.167 454.964 174.199 453.902V453.58C174.199 452.408 174.017 451.568 173.652 451.061C173.294 450.553 172.708 450.299 171.895 450.299C171.23 450.299 170.713 450.582 170.342 451.148C169.977 451.708 169.795 452.525 169.795 453.6C169.795 454.674 169.98 455.481 170.352 456.021C170.723 456.555 171.253 456.822 171.943 456.822Z" fill="black"/>
<path d="M52.4922 84.1328C51.0599 84.1328 49.9323 84.5911 49.1094 85.5078C48.2865 86.4245 47.875 87.6797 47.875 89.2734C47.875 90.9036 48.263 92.1693 49.0391 93.0703C49.8151 93.9714 50.9245 94.4219 52.3672 94.4219C53.3255 94.4219 54.2057 94.2995 55.0078 94.0547V94.7578C54.2526 95.0234 53.3099 95.1562 52.1797 95.1562C50.5755 95.1562 49.3125 94.638 48.3906 93.6016C47.4688 92.5651 47.0078 91.1172 47.0078 89.2578C47.0078 88.0964 47.2266 87.0729 47.6641 86.1875C48.1068 85.3021 48.7396 84.6198 49.5625 84.1406C50.3906 83.6562 51.3516 83.4141 52.4453 83.4141C53.5599 83.4141 54.5573 83.6224 55.4375 84.0391L55.1172 84.7578C54.2839 84.3411 53.4089 84.1328 52.4922 84.1328ZM63.2812 95V89.4922C63.2812 88.638 63.1016 88.0182 62.7422 87.6328C62.3828 87.2422 61.8255 87.0469 61.0703 87.0469C60.0547 87.0469 59.3099 87.3047 58.8359 87.8203C58.3672 88.3307 58.1328 89.1615 58.1328 90.3125V95H57.3594V82.8438H58.1328V86.7109L58.0938 87.7969H58.1484C58.4661 87.2865 58.8672 86.9167 59.3516 86.6875C59.8359 86.4583 60.4375 86.3438 61.1562 86.3438C63.0833 86.3438 64.0469 87.3776 64.0469 89.4453V95H63.2812ZM73.8203 90.7422C73.8203 92.1276 73.4844 93.2109 72.8125 93.9922C72.1406 94.7682 71.2135 95.1562 70.0312 95.1562C69.2865 95.1562 68.6302 94.9766 68.0625 94.6172C67.4948 94.2578 67.0599 93.7422 66.7578 93.0703C66.4557 92.3984 66.3047 91.6224 66.3047 90.7422C66.3047 89.3568 66.6406 88.2786 67.3125 87.5078C67.9844 86.7318 68.9062 86.3438 70.0781 86.3438C71.2448 86.3438 72.1589 86.737 72.8203 87.5234C73.487 88.3047 73.8203 89.3776 73.8203 90.7422ZM67.1172 90.7422C67.1172 91.9089 67.3724 92.8203 67.8828 93.4766C68.3984 94.1276 69.125 94.4531 70.0625 94.4531C71 94.4531 71.724 94.1276 72.2344 93.4766C72.75 92.8203 73.0078 91.9089 73.0078 90.7422C73.0078 89.5703 72.7474 88.6615 72.2266 88.0156C71.7109 87.3698 70.9844 87.0469 70.0469 87.0469C69.1094 87.0469 68.3854 87.3698 67.875 88.0156C67.3698 88.6562 67.1172 89.5651 67.1172 90.7422ZM83.1953 90.7422C83.1953 92.1276 82.8594 93.2109 82.1875 93.9922C81.5156 94.7682 80.5885 95.1562 79.4062 95.1562C78.6615 95.1562 78.0052 94.9766 77.4375 94.6172C76.8698 94.2578 76.4349 93.7422 76.1328 93.0703C75.8307 92.3984 75.6797 91.6224 75.6797 90.7422C75.6797 89.3568 76.0156 88.2786 76.6875 87.5078C77.3594 86.7318 78.2812 86.3438 79.4531 86.3438C80.6198 86.3438 81.5339 86.737 82.1953 87.5234C82.862 88.3047 83.1953 89.3776 83.1953 90.7422ZM76.4922 90.7422C76.4922 91.9089 76.7474 92.8203 77.2578 93.4766C77.7734 94.1276 78.5 94.4531 79.4375 94.4531C80.375 94.4531 81.099 94.1276 81.6094 93.4766C82.125 92.8203 82.3828 91.9089 82.3828 90.7422C82.3828 89.5703 82.1224 88.6615 81.6016 88.0156C81.0859 87.3698 80.3594 87.0469 79.4219 87.0469C78.4844 87.0469 77.7604 87.3698 77.25 88.0156C76.7448 88.6562 76.4922 89.5651 76.4922 90.7422ZM90.8125 92.7891C90.8125 93.5495 90.5234 94.1354 89.9453 94.5469C89.3672 94.9531 88.5469 95.1562 87.4844 95.1562C86.349 95.1562 85.4479 94.9818 84.7812 94.6328V93.7969C85.6354 94.224 86.5365 94.4375 87.4844 94.4375C88.3229 94.4375 88.9583 94.2995 89.3906 94.0234C89.8281 93.7422 90.0469 93.3698 90.0469 92.9062C90.0469 92.4792 89.8724 92.1198 89.5234 91.8281C89.1797 91.5365 88.612 91.25 87.8203 90.9688C86.9714 90.6615 86.375 90.3984 86.0312 90.1797C85.6875 89.9557 85.4271 89.7057 85.25 89.4297C85.0781 89.1484 84.9922 88.8073 84.9922 88.4062C84.9922 87.7708 85.2578 87.2682 85.7891 86.8984C86.3255 86.5286 87.0729 86.3438 88.0312 86.3438C88.9479 86.3438 89.8177 86.5156 90.6406 86.8594L90.3516 87.5625C89.5182 87.2188 88.7448 87.0469 88.0312 87.0469C87.3385 87.0469 86.7891 87.1615 86.3828 87.3906C85.9766 87.6198 85.7734 87.9375 85.7734 88.3438C85.7734 88.7865 85.9297 89.1406 86.2422 89.4062C86.5599 89.6719 87.1771 89.9688 88.0938 90.2969C88.8594 90.5729 89.4167 90.8229 89.7656 91.0469C90.1146 91.2656 90.375 91.5156 90.5469 91.7969C90.724 92.0781 90.8125 92.4089 90.8125 92.7891ZM96.4297 95.1562C95.1953 95.1562 94.2318 94.776 93.5391 94.0156C92.8516 93.2552 92.5078 92.1901 92.5078 90.8203C92.5078 89.4661 92.8411 88.3828 93.5078 87.5703C94.1745 86.7526 95.0729 86.3438 96.2031 86.3438C97.2031 86.3438 97.9922 86.6927 98.5703 87.3906C99.1484 88.0885 99.4375 89.0365 99.4375 90.2344V90.8594H93.3203C93.3307 92.026 93.6016 92.9167 94.1328 93.5312C94.6693 94.1458 95.4349 94.4531 96.4297 94.4531C96.9141 94.4531 97.3385 94.4193 97.7031 94.3516C98.0729 94.2839 98.5391 94.138 99.1016 93.9141V94.6172C98.6224 94.8255 98.1797 94.9661 97.7734 95.0391C97.3672 95.1172 96.9193 95.1562 96.4297 95.1562ZM96.2031 87.0312C95.3854 87.0312 94.7292 87.3021 94.2344 87.8438C93.7396 88.3802 93.4505 89.1562 93.3672 90.1719H98.6172C98.6172 89.1875 98.4036 88.4193 97.9766 87.8672C97.5495 87.3099 96.9583 87.0312 96.2031 87.0312ZM104.516 86.5078H105.312L107.109 91.2734C107.656 92.737 108.003 93.724 108.148 94.2344H108.195C108.414 93.5625 108.771 92.5599 109.266 91.2266L111.062 86.5078H111.859L108.055 96.375C107.747 97.1771 107.49 97.7188 107.281 98C107.073 98.2812 106.828 98.4922 106.547 98.6328C106.271 98.7734 105.935 98.8438 105.539 98.8438C105.242 98.8438 104.911 98.7891 104.547 98.6797V98.0078C104.849 98.0911 105.174 98.1328 105.523 98.1328C105.789 98.1328 106.023 98.0703 106.227 97.9453C106.43 97.8203 106.612 97.625 106.773 97.3594C106.94 97.099 107.13 96.6823 107.344 96.1094C107.562 95.5417 107.703 95.1719 107.766 95L104.516 86.5078ZM120.305 90.7422C120.305 92.1276 119.969 93.2109 119.297 93.9922C118.625 94.7682 117.698 95.1562 116.516 95.1562C115.771 95.1562 115.115 94.9766 114.547 94.6172C113.979 94.2578 113.544 93.7422 113.242 93.0703C112.94 92.3984 112.789 91.6224 112.789 90.7422C112.789 89.3568 113.125 88.2786 113.797 87.5078C114.469 86.7318 115.391 86.3438 116.562 86.3438C117.729 86.3438 118.643 86.737 119.305 87.5234C119.971 88.3047 120.305 89.3776 120.305 90.7422ZM113.602 90.7422C113.602 91.9089 113.857 92.8203 114.367 93.4766C114.883 94.1276 115.609 94.4531 116.547 94.4531C117.484 94.4531 118.208 94.1276 118.719 93.4766C119.234 92.8203 119.492 91.9089 119.492 90.7422C119.492 89.5703 119.232 88.6615 118.711 88.0156C118.195 87.3698 117.469 87.0469 116.531 87.0469C115.594 87.0469 114.87 87.3698 114.359 88.0156C113.854 88.6562 113.602 89.5651 113.602 90.7422ZM123.328 86.5078V92.0078C123.328 92.862 123.508 93.4844 123.867 93.875C124.227 94.2604 124.784 94.4531 125.539 94.4531C126.549 94.4531 127.292 94.1979 127.766 93.6875C128.245 93.1771 128.484 92.3464 128.484 91.1953V86.5078H129.25V95H128.594L128.453 93.8281H128.406C127.854 94.7135 126.872 95.1562 125.461 95.1562C123.529 95.1562 122.562 94.1224 122.562 92.0547V86.5078H123.328ZM135.438 86.3438C135.797 86.3438 136.182 86.3802 136.594 86.4531L136.445 87.1953C136.091 87.1068 135.724 87.0625 135.344 87.0625C134.62 87.0625 134.026 87.3698 133.562 87.9844C133.099 88.599 132.867 89.375 132.867 90.3125V95H132.094V86.5078H132.75L132.828 88.0391H132.883C133.232 87.4141 133.604 86.9766 134 86.7266C134.396 86.4714 134.875 86.3438 135.438 86.3438ZM143.258 95H142.484V82.8438H143.258V95ZM153.133 90.7422C153.133 92.1276 152.797 93.2109 152.125 93.9922C151.453 94.7682 150.526 95.1562 149.344 95.1562C148.599 95.1562 147.943 94.9766 147.375 94.6172C146.807 94.2578 146.372 93.7422 146.07 93.0703C145.768 92.3984 145.617 91.6224 145.617 90.7422C145.617 89.3568 145.953 88.2786 146.625 87.5078C147.297 86.7318 148.219 86.3438 149.391 86.3438C150.557 86.3438 151.471 86.737 152.133 87.5234C152.799 88.3047 153.133 89.3776 153.133 90.7422ZM146.43 90.7422C146.43 91.9089 146.685 92.8203 147.195 93.4766C147.711 94.1276 148.438 94.4531 149.375 94.4531C150.312 94.4531 151.036 94.1276 151.547 93.4766C152.062 92.8203 152.32 91.9089 152.32 90.7422C152.32 89.5703 152.06 88.6615 151.539 88.0156C151.023 87.3698 150.297 87.0469 149.359 87.0469C148.422 87.0469 147.698 87.3698 147.188 88.0156C146.682 88.6562 146.43 89.5651 146.43 90.7422ZM160.641 95L160.445 93.6562H160.383C159.956 94.2031 159.516 94.5911 159.062 94.8203C158.615 95.0443 158.083 95.1562 157.469 95.1562C156.635 95.1562 155.987 94.9427 155.523 94.5156C155.06 94.0885 154.828 93.4974 154.828 92.7422C154.828 91.9141 155.172 91.2708 155.859 90.8125C156.552 90.3542 157.552 90.112 158.859 90.0859L160.477 90.0391V89.4766C160.477 88.6693 160.312 88.0599 159.984 87.6484C159.656 87.237 159.128 87.0312 158.398 87.0312C157.612 87.0312 156.797 87.25 155.953 87.6875L155.664 87.0156C156.596 86.5781 157.518 86.3594 158.43 86.3594C159.362 86.3594 160.057 86.6016 160.516 87.0859C160.979 87.5703 161.211 88.3255 161.211 89.3516V95H160.641ZM157.516 94.4531C158.422 94.4531 159.135 94.1953 159.656 93.6797C160.182 93.1589 160.445 92.4375 160.445 91.5156V90.6797L158.961 90.7422C157.768 90.7995 156.917 90.987 156.406 91.3047C155.901 91.6172 155.648 92.1068 155.648 92.7734C155.648 93.3047 155.81 93.7188 156.133 94.0156C156.461 94.3073 156.922 94.4531 157.516 94.4531ZM169.891 95V89.4922C169.891 88.638 169.711 88.0182 169.352 87.6328C168.992 87.2422 168.435 87.0469 167.68 87.0469C166.664 87.0469 165.919 87.3047 165.445 87.8203C164.977 88.3307 164.742 89.1615 164.742 90.3125V95H163.969V86.5078H164.625L164.773 87.6719H164.82C165.372 86.7865 166.354 86.3438 167.766 86.3438C169.693 86.3438 170.656 87.3776 170.656 89.4453V95H169.891ZM179.805 94.4688C180.294 94.4688 180.721 94.4271 181.086 94.3438V94.9688C180.711 95.0938 180.279 95.1562 179.789 95.1562C179.039 95.1562 178.484 94.9557 178.125 94.5547C177.771 94.1536 177.594 93.5234 177.594 92.6641V87.1797H176.336V86.7266L177.594 86.375L177.984 84.4531H178.383V86.5078H180.875V87.1797H178.383V92.5547C178.383 93.2057 178.497 93.6875 178.727 94C178.956 94.3125 179.315 94.4688 179.805 94.4688ZM181.5 86.5078H182.297L184.094 91.2734C184.641 92.737 184.987 93.724 185.133 94.2344H185.18C185.398 93.5625 185.755 92.5599 186.25 91.2266L188.047 86.5078H188.844L185.039 96.375C184.732 97.1771 184.474 97.7188 184.266 98C184.057 98.2812 183.812 98.4922 183.531 98.6328C183.255 98.7734 182.919 98.8438 182.523 98.8438C182.227 98.8438 181.896 98.7891 181.531 98.6797V98.0078C181.833 98.0911 182.159 98.1328 182.508 98.1328C182.773 98.1328 183.008 98.0703 183.211 97.9453C183.414 97.8203 183.596 97.625 183.758 97.3594C183.924 97.099 184.115 96.6823 184.328 96.1094C184.547 95.5417 184.688 95.1719 184.75 95L181.5 86.5078ZM193.898 95.1562C192.591 95.1562 191.638 94.6667 191.039 93.6875H190.984L191.008 94.3438C191.029 94.7292 191.039 95.151 191.039 95.6094V98.8438H190.266V86.5078H190.922L191.07 87.7188H191.117C191.701 86.8021 192.633 86.3438 193.914 86.3438C195.06 86.3438 195.932 86.7214 196.531 87.4766C197.135 88.2266 197.438 89.3203 197.438 90.7578C197.438 92.1536 197.12 93.237 196.484 94.0078C195.854 94.7734 194.992 95.1562 193.898 95.1562ZM193.883 94.4688C194.753 94.4688 195.424 94.1458 195.898 93.5C196.378 92.8542 196.617 91.9505 196.617 90.7891C196.617 88.2943 195.716 87.0469 193.914 87.0469C192.924 87.0469 192.198 87.3203 191.734 87.8672C191.271 88.4089 191.039 89.2943 191.039 90.5234V90.7734C191.039 92.1016 191.26 93.0495 191.703 93.6172C192.151 94.1849 192.878 94.4688 193.883 94.4688ZM203.227 95.1562C201.992 95.1562 201.029 94.776 200.336 94.0156C199.648 93.2552 199.305 92.1901 199.305 90.8203C199.305 89.4661 199.638 88.3828 200.305 87.5703C200.971 86.7526 201.87 86.3438 203 86.3438C204 86.3438 204.789 86.6927 205.367 87.3906C205.945 88.0885 206.234 89.0365 206.234 90.2344V90.8594H200.117C200.128 92.026 200.398 92.9167 200.93 93.5312C201.466 94.1458 202.232 94.4531 203.227 94.4531C203.711 94.4531 204.135 94.4193 204.5 94.3516C204.87 94.2839 205.336 94.138 205.898 93.9141V94.6172C205.419 94.8255 204.977 94.9661 204.57 95.0391C204.164 95.1172 203.716 95.1562 203.227 95.1562ZM203 87.0312C202.182 87.0312 201.526 87.3021 201.031 87.8438C200.536 88.3802 200.247 89.1562 200.164 90.1719H205.414C205.414 89.1875 205.201 88.4193 204.773 87.8672C204.346 87.3099 203.755 87.0312 203 87.0312ZM208.422 94.3906C208.422 93.8802 208.63 93.625 209.047 93.625C209.474 93.625 209.688 93.8802 209.688 94.3906C209.688 94.901 209.474 95.1562 209.047 95.1562C208.63 95.1562 208.422 94.901 208.422 94.3906ZM222.984 95H216.742V83.5781H222.984V84.3125H217.539V88.6328H222.68V89.3672H217.539V94.2656H222.984V95ZM231.297 95V89.4922C231.297 88.638 231.117 88.0182 230.758 87.6328C230.398 87.2422 229.841 87.0469 229.086 87.0469C228.07 87.0469 227.326 87.3047 226.852 87.8203C226.383 88.3307 226.148 89.1615 226.148 90.3125V95H225.375V86.5078H226.031L226.18 87.6719H226.227C226.779 86.7865 227.76 86.3438 229.172 86.3438C231.099 86.3438 232.062 87.3776 232.062 89.4453V95H231.297ZM237.055 94.4688C237.544 94.4688 237.971 94.4271 238.336 94.3438V94.9688C237.961 95.0938 237.529 95.1562 237.039 95.1562C236.289 95.1562 235.734 94.9557 235.375 94.5547C235.021 94.1536 234.844 93.5234 234.844 92.6641V87.1797H233.586V86.7266L234.844 86.375L235.234 84.4531H235.633V86.5078H238.125V87.1797H235.633V92.5547C235.633 93.2057 235.747 93.6875 235.977 94C236.206 94.3125 236.565 94.4688 237.055 94.4688ZM243.602 95.1562C242.367 95.1562 241.404 94.776 240.711 94.0156C240.023 93.2552 239.68 92.1901 239.68 90.8203C239.68 89.4661 240.013 88.3828 240.68 87.5703C241.346 86.7526 242.245 86.3438 243.375 86.3438C244.375 86.3438 245.164 86.6927 245.742 87.3906C246.32 88.0885 246.609 89.0365 246.609 90.2344V90.8594H240.492C240.503 92.026 240.773 92.9167 241.305 93.5312C241.841 94.1458 242.607 94.4531 243.602 94.4531C244.086 94.4531 244.51 94.4193 244.875 94.3516C245.245 94.2839 245.711 94.138 246.273 93.9141V94.6172C245.794 94.8255 245.352 94.9661 244.945 95.0391C244.539 95.1172 244.091 95.1562 243.602 95.1562ZM243.375 87.0312C242.557 87.0312 241.901 87.3021 241.406 87.8438C240.911 88.3802 240.622 89.1562 240.539 90.1719H245.789C245.789 89.1875 245.576 88.4193 245.148 87.8672C244.721 87.3099 244.13 87.0312 243.375 87.0312ZM252.297 86.3438C252.656 86.3438 253.042 86.3802 253.453 86.4531L253.305 87.1953C252.951 87.1068 252.583 87.0625 252.203 87.0625C251.479 87.0625 250.885 87.3698 250.422 87.9844C249.958 88.599 249.727 89.375 249.727 90.3125V95H248.953V86.5078H249.609L249.688 88.0391H249.742C250.091 87.4141 250.464 86.9766 250.859 86.7266C251.255 86.4714 251.734 86.3438 252.297 86.3438ZM257.922 86.5078H258.719L260.516 91.2734C261.062 92.737 261.409 93.724 261.555 94.2344H261.602C261.82 93.5625 262.177 92.5599 262.672 91.2266L264.469 86.5078H265.266L261.461 96.375C261.154 97.1771 260.896 97.7188 260.688 98C260.479 98.2812 260.234 98.4922 259.953 98.6328C259.677 98.7734 259.341 98.8438 258.945 98.8438C258.648 98.8438 258.318 98.7891 257.953 98.6797V98.0078C258.255 98.0911 258.581 98.1328 258.93 98.1328C259.195 98.1328 259.43 98.0703 259.633 97.9453C259.836 97.8203 260.018 97.625 260.18 97.3594C260.346 97.099 260.536 96.6823 260.75 96.1094C260.969 95.5417 261.109 95.1719 261.172 95L257.922 86.5078ZM273.711 90.7422C273.711 92.1276 273.375 93.2109 272.703 93.9922C272.031 94.7682 271.104 95.1562 269.922 95.1562C269.177 95.1562 268.521 94.9766 267.953 94.6172C267.385 94.2578 266.951 93.7422 266.648 93.0703C266.346 92.3984 266.195 91.6224 266.195 90.7422C266.195 89.3568 266.531 88.2786 267.203 87.5078C267.875 86.7318 268.797 86.3438 269.969 86.3438C271.135 86.3438 272.049 86.737 272.711 87.5234C273.378 88.3047 273.711 89.3776 273.711 90.7422ZM267.008 90.7422C267.008 91.9089 267.263 92.8203 267.773 93.4766C268.289 94.1276 269.016 94.4531 269.953 94.4531C270.891 94.4531 271.615 94.1276 272.125 93.4766C272.641 92.8203 272.898 91.9089 272.898 90.7422C272.898 89.5703 272.638 88.6615 272.117 88.0156C271.602 87.3698 270.875 87.0469 269.938 87.0469C269 87.0469 268.276 87.3698 267.766 88.0156C267.26 88.6562 267.008 89.5651 267.008 90.7422ZM276.734 86.5078V92.0078C276.734 92.862 276.914 93.4844 277.273 93.875C277.633 94.2604 278.19 94.4531 278.945 94.4531C279.956 94.4531 280.698 94.1979 281.172 93.6875C281.651 93.1771 281.891 92.3464 281.891 91.1953V86.5078H282.656V95H282L281.859 93.8281H281.812C281.26 94.7135 280.279 95.1562 278.867 95.1562C276.935 95.1562 275.969 94.1224 275.969 92.0547V86.5078H276.734ZM288.844 86.3438C289.203 86.3438 289.589 86.3802 290 86.4531L289.852 87.1953C289.497 87.1068 289.13 87.0625 288.75 87.0625C288.026 87.0625 287.432 87.3698 286.969 87.9844C286.505 88.599 286.273 89.375 286.273 90.3125V95H285.5V86.5078H286.156L286.234 88.0391H286.289C286.638 87.4141 287.01 86.9766 287.406 86.7266C287.802 86.4714 288.281 86.3438 288.844 86.3438ZM53.3438 117V111.492C53.3438 110.638 53.1641 110.018 52.8047 109.633C52.4453 109.242 51.888 109.047 51.1328 109.047C50.1172 109.047 49.3724 109.305 48.8984 109.82C48.4297 110.331 48.1953 111.161 48.1953 112.312V117H47.4219V108.508H48.0781L48.2266 109.672H48.2734C48.8255 108.786 49.8073 108.344 51.2188 108.344C53.1458 108.344 54.1094 109.378 54.1094 111.445V117H53.3438ZM62.0156 117L61.8203 115.656H61.7578C61.3307 116.203 60.8906 116.591 60.4375 116.82C59.9896 117.044 59.4583 117.156 58.8438 117.156C58.0104 117.156 57.362 116.943 56.8984 116.516C56.4349 116.089 56.2031 115.497 56.2031 114.742C56.2031 113.914 56.5469 113.271 57.2344 112.812C57.9271 112.354 58.9271 112.112 60.2344 112.086L61.8516 112.039V111.477C61.8516 110.669 61.6875 110.06 61.3594 109.648C61.0312 109.237 60.5026 109.031 59.7734 109.031C58.987 109.031 58.1719 109.25 57.3281 109.688L57.0391 109.016C57.9714 108.578 58.8932 108.359 59.8047 108.359C60.737 108.359 61.4323 108.602 61.8906 109.086C62.3542 109.57 62.5859 110.326 62.5859 111.352V117H62.0156ZM58.8906 116.453C59.7969 116.453 60.5104 116.195 61.0312 115.68C61.5573 115.159 61.8203 114.438 61.8203 113.516V112.68L60.3359 112.742C59.1432 112.799 58.2917 112.987 57.7812 113.305C57.276 113.617 57.0234 114.107 57.0234 114.773C57.0234 115.305 57.1849 115.719 57.5078 116.016C57.8359 116.307 58.2969 116.453 58.8906 116.453ZM75.9531 117V111.43C75.9531 110.602 75.7917 109.997 75.4688 109.617C75.1458 109.237 74.651 109.047 73.9844 109.047C73.1146 109.047 72.4714 109.286 72.0547 109.766C71.638 110.245 71.4297 110.997 71.4297 112.023V117H70.6406V111.195C70.6406 109.763 69.9844 109.047 68.6719 109.047C67.7812 109.047 67.1328 109.307 66.7266 109.828C66.3203 110.344 66.1172 111.172 66.1172 112.312V117H65.3438V108.508H65.9844L66.1484 109.672H66.1953C66.4297 109.25 66.763 108.924 67.1953 108.695C67.6276 108.461 68.1042 108.344 68.625 108.344C69.9635 108.344 70.8229 108.846 71.2031 109.852H71.2344C71.5104 109.367 71.8802 108.995 72.3438 108.734C72.8125 108.474 73.3438 108.344 73.9375 108.344C74.8646 108.344 75.5599 108.591 76.0234 109.086C76.487 109.581 76.7188 110.367 76.7188 111.445V117H75.9531ZM82.8984 117.156C81.6641 117.156 80.7005 116.776 80.0078 116.016C79.3203 115.255 78.9766 114.19 78.9766 112.82C78.9766 111.466 79.3099 110.383 79.9766 109.57C80.6432 108.753 81.5417 108.344 82.6719 108.344C83.6719 108.344 84.4609 108.693 85.0391 109.391C85.6172 110.089 85.9062 111.036 85.9062 112.234V112.859H79.7891C79.7995 114.026 80.0703 114.917 80.6016 115.531C81.138 116.146 81.9036 116.453 82.8984 116.453C83.3828 116.453 83.8073 116.419 84.1719 116.352C84.5417 116.284 85.0078 116.138 85.5703 115.914V116.617C85.0911 116.826 84.6484 116.966 84.2422 117.039C83.8359 117.117 83.388 117.156 82.8984 117.156ZM82.6719 109.031C81.8542 109.031 81.1979 109.302 80.7031 109.844C80.2083 110.38 79.9193 111.156 79.8359 112.172H85.0859C85.0859 111.188 84.8724 110.419 84.4453 109.867C84.0182 109.31 83.4271 109.031 82.6719 109.031ZM89.1328 115.141L89.2266 115.305C88.8359 116.685 88.3828 117.938 87.8672 119.062H87.3594C87.7604 117.63 88.0469 116.323 88.2188 115.141H89.1328ZM110.609 117L110.414 115.656H110.352C109.924 116.203 109.484 116.591 109.031 116.82C108.583 117.044 108.052 117.156 107.438 117.156C106.604 117.156 105.956 116.943 105.492 116.516C105.029 116.089 104.797 115.497 104.797 114.742C104.797 113.914 105.141 113.271 105.828 112.812C106.521 112.354 107.521 112.112 108.828 112.086L110.445 112.039V111.477C110.445 110.669 110.281 110.06 109.953 109.648C109.625 109.237 109.096 109.031 108.367 109.031C107.581 109.031 106.766 109.25 105.922 109.688L105.633 109.016C106.565 108.578 107.487 108.359 108.398 108.359C109.331 108.359 110.026 108.602 110.484 109.086C110.948 109.57 111.18 110.326 111.18 111.352V117H110.609ZM107.484 116.453C108.391 116.453 109.104 116.195 109.625 115.68C110.151 115.159 110.414 114.438 110.414 113.516V112.68L108.93 112.742C107.737 112.799 106.885 112.987 106.375 113.305C105.87 113.617 105.617 114.107 105.617 114.773C105.617 115.305 105.779 115.719 106.102 116.016C106.43 116.307 106.891 116.453 107.484 116.453ZM117.047 108.344C117.661 108.344 118.193 108.456 118.641 108.68C119.089 108.904 119.49 109.286 119.844 109.828H119.891C119.859 109.172 119.844 108.529 119.844 107.898V104.844H120.609V117H120.102L119.906 115.703H119.844C119.198 116.672 118.271 117.156 117.062 117.156C115.891 117.156 114.995 116.792 114.375 116.062C113.755 115.333 113.445 114.271 113.445 112.875C113.445 111.406 113.753 110.284 114.367 109.508C114.982 108.732 115.875 108.344 117.047 108.344ZM117.047 109.047C116.12 109.047 115.422 109.372 114.953 110.023C114.49 110.674 114.258 111.62 114.258 112.859C114.258 115.266 115.193 116.469 117.062 116.469C118.021 116.469 118.724 116.19 119.172 115.633C119.62 115.076 119.844 114.156 119.844 112.875V112.742C119.844 111.43 119.622 110.487 119.18 109.914C118.742 109.336 118.031 109.047 117.047 109.047ZM126.578 108.344C127.193 108.344 127.724 108.456 128.172 108.68C128.62 108.904 129.021 109.286 129.375 109.828H129.422C129.391 109.172 129.375 108.529 129.375 107.898V104.844H130.141V117H129.633L129.438 115.703H129.375C128.729 116.672 127.802 117.156 126.594 117.156C125.422 117.156 124.526 116.792 123.906 116.062C123.286 115.333 122.977 114.271 122.977 112.875C122.977 111.406 123.284 110.284 123.898 109.508C124.513 108.732 125.406 108.344 126.578 108.344ZM126.578 109.047C125.651 109.047 124.953 109.372 124.484 110.023C124.021 110.674 123.789 111.62 123.789 112.859C123.789 115.266 124.724 116.469 126.594 116.469C127.552 116.469 128.255 116.19 128.703 115.633C129.151 115.076 129.375 114.156 129.375 112.875V112.742C129.375 111.43 129.154 110.487 128.711 109.914C128.273 109.336 127.562 109.047 126.578 109.047ZM136.344 108.344C136.703 108.344 137.089 108.38 137.5 108.453L137.352 109.195C136.997 109.107 136.63 109.062 136.25 109.062C135.526 109.062 134.932 109.37 134.469 109.984C134.005 110.599 133.773 111.375 133.773 112.312V117H133V108.508H133.656L133.734 110.039H133.789C134.138 109.414 134.51 108.977 134.906 108.727C135.302 108.471 135.781 108.344 136.344 108.344ZM142.664 117.156C141.43 117.156 140.466 116.776 139.773 116.016C139.086 115.255 138.742 114.19 138.742 112.82C138.742 111.466 139.076 110.383 139.742 109.57C140.409 108.753 141.307 108.344 142.438 108.344C143.438 108.344 144.227 108.693 144.805 109.391C145.383 110.089 145.672 111.036 145.672 112.234V112.859H139.555C139.565 114.026 139.836 114.917 140.367 115.531C140.904 116.146 141.669 116.453 142.664 116.453C143.148 116.453 143.573 116.419 143.938 116.352C144.307 116.284 144.773 116.138 145.336 115.914V116.617C144.857 116.826 144.414 116.966 144.008 117.039C143.602 117.117 143.154 117.156 142.664 117.156ZM142.438 109.031C141.62 109.031 140.964 109.302 140.469 109.844C139.974 110.38 139.685 111.156 139.602 112.172H144.852C144.852 111.188 144.638 110.419 144.211 109.867C143.784 109.31 143.193 109.031 142.438 109.031ZM153.281 114.789C153.281 115.549 152.992 116.135 152.414 116.547C151.836 116.953 151.016 117.156 149.953 117.156C148.818 117.156 147.917 116.982 147.25 116.633V115.797C148.104 116.224 149.005 116.438 149.953 116.438C150.792 116.438 151.427 116.299 151.859 116.023C152.297 115.742 152.516 115.37 152.516 114.906C152.516 114.479 152.341 114.12 151.992 113.828C151.648 113.536 151.081 113.25 150.289 112.969C149.44 112.661 148.844 112.398 148.5 112.18C148.156 111.956 147.896 111.706 147.719 111.43C147.547 111.148 147.461 110.807 147.461 110.406C147.461 109.771 147.727 109.268 148.258 108.898C148.794 108.529 149.542 108.344 150.5 108.344C151.417 108.344 152.286 108.516 153.109 108.859L152.82 109.562C151.987 109.219 151.214 109.047 150.5 109.047C149.807 109.047 149.258 109.161 148.852 109.391C148.445 109.62 148.242 109.938 148.242 110.344C148.242 110.786 148.398 111.141 148.711 111.406C149.029 111.672 149.646 111.969 150.562 112.297C151.328 112.573 151.885 112.823 152.234 113.047C152.583 113.266 152.844 113.516 153.016 113.797C153.193 114.078 153.281 114.409 153.281 114.789ZM160.734 114.789C160.734 115.549 160.445 116.135 159.867 116.547C159.289 116.953 158.469 117.156 157.406 117.156C156.271 117.156 155.37 116.982 154.703 116.633V115.797C155.557 116.224 156.458 116.438 157.406 116.438C158.245 116.438 158.88 116.299 159.312 116.023C159.75 115.742 159.969 115.37 159.969 114.906C159.969 114.479 159.794 114.12 159.445 113.828C159.102 113.536 158.534 113.25 157.742 112.969C156.893 112.661 156.297 112.398 155.953 112.18C155.609 111.956 155.349 111.706 155.172 111.43C155 111.148 154.914 110.807 154.914 110.406C154.914 109.771 155.18 109.268 155.711 108.898C156.247 108.529 156.995 108.344 157.953 108.344C158.87 108.344 159.74 108.516 160.562 108.859L160.273 109.562C159.44 109.219 158.667 109.047 157.953 109.047C157.26 109.047 156.711 109.161 156.305 109.391C155.898 109.62 155.695 109.938 155.695 110.344C155.695 110.786 155.852 111.141 156.164 111.406C156.482 111.672 157.099 111.969 158.016 112.297C158.781 112.573 159.339 112.823 159.688 113.047C160.036 113.266 160.297 113.516 160.469 113.797C160.646 114.078 160.734 114.409 160.734 114.789ZM163.805 115.141L163.898 115.305C163.508 116.685 163.055 117.938 162.539 119.062H162.031C162.432 117.63 162.719 116.323 162.891 115.141H163.805ZM174.148 117.156C172.841 117.156 171.888 116.667 171.289 115.688H171.234L171.258 116.344C171.279 116.729 171.289 117.151 171.289 117.609V120.844H170.516V108.508H171.172L171.32 109.719H171.367C171.951 108.802 172.883 108.344 174.164 108.344C175.31 108.344 176.182 108.721 176.781 109.477C177.385 110.227 177.688 111.32 177.688 112.758C177.688 114.154 177.37 115.237 176.734 116.008C176.104 116.773 175.242 117.156 174.148 117.156ZM174.133 116.469C175.003 116.469 175.674 116.146 176.148 115.5C176.628 114.854 176.867 113.951 176.867 112.789C176.867 110.294 175.966 109.047 174.164 109.047C173.174 109.047 172.448 109.32 171.984 109.867C171.521 110.409 171.289 111.294 171.289 112.523V112.773C171.289 114.102 171.51 115.049 171.953 115.617C172.401 116.185 173.128 116.469 174.133 116.469ZM185.969 117V111.492C185.969 110.638 185.789 110.018 185.43 109.633C185.07 109.242 184.513 109.047 183.758 109.047C182.742 109.047 181.997 109.305 181.523 109.82C181.055 110.331 180.82 111.161 180.82 112.312V117H180.047V104.844H180.82V108.711L180.781 109.797H180.836C181.154 109.286 181.555 108.917 182.039 108.688C182.523 108.458 183.125 108.344 183.844 108.344C185.771 108.344 186.734 109.378 186.734 111.445V117H185.969ZM196.508 112.742C196.508 114.128 196.172 115.211 195.5 115.992C194.828 116.768 193.901 117.156 192.719 117.156C191.974 117.156 191.318 116.977 190.75 116.617C190.182 116.258 189.747 115.742 189.445 115.07C189.143 114.398 188.992 113.622 188.992 112.742C188.992 111.357 189.328 110.279 190 109.508C190.672 108.732 191.594 108.344 192.766 108.344C193.932 108.344 194.846 108.737 195.508 109.523C196.174 110.305 196.508 111.378 196.508 112.742ZM189.805 112.742C189.805 113.909 190.06 114.82 190.57 115.477C191.086 116.128 191.812 116.453 192.75 116.453C193.688 116.453 194.411 116.128 194.922 115.477C195.438 114.82 195.695 113.909 195.695 112.742C195.695 111.57 195.435 110.661 194.914 110.016C194.398 109.37 193.672 109.047 192.734 109.047C191.797 109.047 191.073 109.37 190.562 110.016C190.057 110.656 189.805 111.565 189.805 112.742ZM204.781 117V111.492C204.781 110.638 204.602 110.018 204.242 109.633C203.883 109.242 203.326 109.047 202.57 109.047C201.555 109.047 200.81 109.305 200.336 109.82C199.867 110.331 199.633 111.161 199.633 112.312V117H198.859V108.508H199.516L199.664 109.672H199.711C200.263 108.786 201.245 108.344 202.656 108.344C204.583 108.344 205.547 109.378 205.547 111.445V117H204.781ZM211.727 117.156C210.492 117.156 209.529 116.776 208.836 116.016C208.148 115.255 207.805 114.19 207.805 112.82C207.805 111.466 208.138 110.383 208.805 109.57C209.471 108.753 210.37 108.344 211.5 108.344C212.5 108.344 213.289 108.693 213.867 109.391C214.445 110.089 214.734 111.036 214.734 112.234V112.859H208.617C208.628 114.026 208.898 114.917 209.43 115.531C209.966 116.146 210.732 116.453 211.727 116.453C212.211 116.453 212.635 116.419 213 116.352C213.37 116.284 213.836 116.138 214.398 115.914V116.617C213.919 116.826 213.477 116.966 213.07 117.039C212.664 117.117 212.216 117.156 211.727 117.156ZM211.5 109.031C210.682 109.031 210.026 109.302 209.531 109.844C209.036 110.38 208.747 111.156 208.664 112.172H213.914C213.914 111.188 213.701 110.419 213.273 109.867C212.846 109.31 212.255 109.031 211.5 109.031ZM217.961 115.141L218.055 115.305C217.664 116.685 217.211 117.938 216.695 119.062H216.188C216.589 117.63 216.875 116.323 217.047 115.141H217.961ZM229.938 114.789C229.938 115.549 229.648 116.135 229.07 116.547C228.492 116.953 227.672 117.156 226.609 117.156C225.474 117.156 224.573 116.982 223.906 116.633V115.797C224.76 116.224 225.661 116.438 226.609 116.438C227.448 116.438 228.083 116.299 228.516 116.023C228.953 115.742 229.172 115.37 229.172 114.906C229.172 114.479 228.997 114.12 228.648 113.828C228.305 113.536 227.737 113.25 226.945 112.969C226.096 112.661 225.5 112.398 225.156 112.18C224.812 111.956 224.552 111.706 224.375 111.43C224.203 111.148 224.117 110.807 224.117 110.406C224.117 109.771 224.383 109.268 224.914 108.898C225.451 108.529 226.198 108.344 227.156 108.344C228.073 108.344 228.943 108.516 229.766 108.859L229.477 109.562C228.643 109.219 227.87 109.047 227.156 109.047C226.464 109.047 225.914 109.161 225.508 109.391C225.102 109.62 224.898 109.938 224.898 110.344C224.898 110.786 225.055 111.141 225.367 111.406C225.685 111.672 226.302 111.969 227.219 112.297C227.984 112.573 228.542 112.823 228.891 113.047C229.24 113.266 229.5 113.516 229.672 113.797C229.849 114.078 229.938 114.409 229.938 114.789ZM239.148 112.742C239.148 114.128 238.812 115.211 238.141 115.992C237.469 116.768 236.542 117.156 235.359 117.156C234.615 117.156 233.958 116.977 233.391 116.617C232.823 116.258 232.388 115.742 232.086 115.07C231.784 114.398 231.633 113.622 231.633 112.742C231.633 111.357 231.969 110.279 232.641 109.508C233.312 108.732 234.234 108.344 235.406 108.344C236.573 108.344 237.487 108.737 238.148 109.523C238.815 110.305 239.148 111.378 239.148 112.742ZM232.445 112.742C232.445 113.909 232.701 114.82 233.211 115.477C233.727 116.128 234.453 116.453 235.391 116.453C236.328 116.453 237.052 116.128 237.562 115.477C238.078 114.82 238.336 113.909 238.336 112.742C238.336 111.57 238.076 110.661 237.555 110.016C237.039 109.37 236.312 109.047 235.375 109.047C234.438 109.047 233.714 109.37 233.203 110.016C232.698 110.656 232.445 111.565 232.445 112.742ZM244.891 117.156C243.677 117.156 242.727 116.773 242.039 116.008C241.352 115.242 241.008 114.174 241.008 112.805C241.008 111.398 241.365 110.305 242.078 109.523C242.792 108.737 243.768 108.344 245.008 108.344C245.742 108.344 246.445 108.471 247.117 108.727L246.906 109.414C246.172 109.169 245.534 109.047 244.992 109.047C243.951 109.047 243.161 109.37 242.625 110.016C242.089 110.656 241.82 111.581 241.82 112.789C241.82 113.935 242.089 114.833 242.625 115.484C243.161 116.13 243.911 116.453 244.875 116.453C245.646 116.453 246.362 116.315 247.023 116.039V116.758C246.482 117.023 245.771 117.156 244.891 117.156ZM249.883 117H249.109V108.508H249.883V117ZM249 106.148C249 105.648 249.164 105.398 249.492 105.398C249.654 105.398 249.779 105.464 249.867 105.594C249.961 105.724 250.008 105.909 250.008 106.148C250.008 106.383 249.961 106.568 249.867 106.703C249.779 106.839 249.654 106.906 249.492 106.906C249.164 106.906 249 106.654 249 106.148ZM257.891 117L257.695 115.656H257.633C257.206 116.203 256.766 116.591 256.312 116.82C255.865 117.044 255.333 117.156 254.719 117.156C253.885 117.156 253.237 116.943 252.773 116.516C252.31 116.089 252.078 115.497 252.078 114.742C252.078 113.914 252.422 113.271 253.109 112.812C253.802 112.354 254.802 112.112 256.109 112.086L257.727 112.039V111.477C257.727 110.669 257.562 110.06 257.234 109.648C256.906 109.237 256.378 109.031 255.648 109.031C254.862 109.031 254.047 109.25 253.203 109.688L252.914 109.016C253.846 108.578 254.768 108.359 255.68 108.359C256.612 108.359 257.307 108.602 257.766 109.086C258.229 109.57 258.461 110.326 258.461 111.352V117H257.891ZM254.766 116.453C255.672 116.453 256.385 116.195 256.906 115.68C257.432 115.159 257.695 114.438 257.695 113.516V112.68L256.211 112.742C255.018 112.799 254.167 112.987 253.656 113.305C253.151 113.617 252.898 114.107 252.898 114.773C252.898 115.305 253.06 115.719 253.383 116.016C253.711 116.307 254.172 116.453 254.766 116.453ZM261.992 117H261.219V104.844H261.992V117ZM274.266 114.789C274.266 115.549 273.977 116.135 273.398 116.547C272.82 116.953 272 117.156 270.938 117.156C269.802 117.156 268.901 116.982 268.234 116.633V115.797C269.089 116.224 269.99 116.438 270.938 116.438C271.776 116.438 272.411 116.299 272.844 116.023C273.281 115.742 273.5 115.37 273.5 114.906C273.5 114.479 273.326 114.12 272.977 113.828C272.633 113.536 272.065 113.25 271.273 112.969C270.424 112.661 269.828 112.398 269.484 112.18C269.141 111.956 268.88 111.706 268.703 111.43C268.531 111.148 268.445 110.807 268.445 110.406C268.445 109.771 268.711 109.268 269.242 108.898C269.779 108.529 270.526 108.344 271.484 108.344C272.401 108.344 273.271 108.516 274.094 108.859L273.805 109.562C272.971 109.219 272.198 109.047 271.484 109.047C270.792 109.047 270.242 109.161 269.836 109.391C269.43 109.62 269.227 109.938 269.227 110.344C269.227 110.786 269.383 111.141 269.695 111.406C270.013 111.672 270.63 111.969 271.547 112.297C272.312 112.573 272.87 112.823 273.219 113.047C273.568 113.266 273.828 113.516 274 113.797C274.177 114.078 274.266 114.409 274.266 114.789ZM279.883 117.156C278.648 117.156 277.685 116.776 276.992 116.016C276.305 115.255 275.961 114.19 275.961 112.82C275.961 111.466 276.294 110.383 276.961 109.57C277.628 108.753 278.526 108.344 279.656 108.344C280.656 108.344 281.445 108.693 282.023 109.391C282.602 110.089 282.891 111.036 282.891 112.234V112.859H276.773C276.784 114.026 277.055 114.917 277.586 115.531C278.122 116.146 278.888 116.453 279.883 116.453C280.367 116.453 280.792 116.419 281.156 116.352C281.526 116.284 281.992 116.138 282.555 115.914V116.617C282.076 116.826 281.633 116.966 281.227 117.039C280.82 117.117 280.372 117.156 279.883 117.156ZM279.656 109.031C278.839 109.031 278.182 109.302 277.688 109.844C277.193 110.38 276.904 111.156 276.82 112.172H282.07C282.07 111.188 281.857 110.419 281.43 109.867C281.003 109.31 280.411 109.031 279.656 109.031ZM288.625 117.156C287.411 117.156 286.461 116.773 285.773 116.008C285.086 115.242 284.742 114.174 284.742 112.805C284.742 111.398 285.099 110.305 285.812 109.523C286.526 108.737 287.503 108.344 288.742 108.344C289.477 108.344 290.18 108.471 290.852 108.727L290.641 109.414C289.906 109.169 289.268 109.047 288.727 109.047C287.685 109.047 286.896 109.37 286.359 110.016C285.823 110.656 285.555 111.581 285.555 112.789C285.555 113.935 285.823 114.833 286.359 115.484C286.896 116.13 287.646 116.453 288.609 116.453C289.38 116.453 290.096 116.315 290.758 116.039V116.758C290.216 117.023 289.505 117.156 288.625 117.156ZM293.516 108.508V114.008C293.516 114.862 293.695 115.484 294.055 115.875C294.414 116.26 294.971 116.453 295.727 116.453C296.737 116.453 297.479 116.198 297.953 115.688C298.432 115.177 298.672 114.346 298.672 113.195V108.508H299.438V117H298.781L298.641 115.828H298.594C298.042 116.714 297.06 117.156 295.648 117.156C293.716 117.156 292.75 116.122 292.75 114.055V108.508H293.516ZM305.625 108.344C305.984 108.344 306.37 108.38 306.781 108.453L306.633 109.195C306.279 109.107 305.911 109.062 305.531 109.062C304.807 109.062 304.214 109.37 303.75 109.984C303.286 110.599 303.055 111.375 303.055 112.312V117H302.281V108.508H302.938L303.016 110.039H303.07C303.419 109.414 303.792 108.977 304.188 108.727C304.583 108.471 305.062 108.344 305.625 108.344ZM309.289 117H308.516V108.508H309.289V117ZM308.406 106.148C308.406 105.648 308.57 105.398 308.898 105.398C309.06 105.398 309.185 105.464 309.273 105.594C309.367 105.724 309.414 105.909 309.414 106.148C309.414 106.383 309.367 106.568 309.273 106.703C309.185 106.839 309.06 106.906 308.898 106.906C308.57 106.906 308.406 106.654 308.406 106.148ZM314.383 116.469C314.872 116.469 315.299 116.427 315.664 116.344V116.969C315.289 117.094 314.857 117.156 314.367 117.156C313.617 117.156 313.062 116.956 312.703 116.555C312.349 116.154 312.172 115.523 312.172 114.664V109.18H310.914V108.727L312.172 108.375L312.562 106.453H312.961V108.508H315.453V109.18H312.961V114.555C312.961 115.206 313.076 115.688 313.305 116C313.534 116.312 313.893 116.469 314.383 116.469ZM316.078 108.508H316.875L318.672 113.273C319.219 114.737 319.565 115.724 319.711 116.234H319.758C319.977 115.562 320.333 114.56 320.828 113.227L322.625 108.508H323.422L319.617 118.375C319.31 119.177 319.052 119.719 318.844 120C318.635 120.281 318.391 120.492 318.109 120.633C317.833 120.773 317.497 120.844 317.102 120.844C316.805 120.844 316.474 120.789 316.109 120.68V120.008C316.411 120.091 316.737 120.133 317.086 120.133C317.352 120.133 317.586 120.07 317.789 119.945C317.992 119.82 318.174 119.625 318.336 119.359C318.503 119.099 318.693 118.682 318.906 118.109C319.125 117.542 319.266 117.172 319.328 117L316.078 108.508ZM325.727 115.141L325.82 115.305C325.43 116.685 324.977 117.938 324.461 119.062H323.953C324.354 117.63 324.641 116.323 324.812 115.141H325.727ZM52.5781 139L52.3828 137.656H52.3203C51.8932 138.203 51.4531 138.591 51 138.82C50.5521 139.044 50.0208 139.156 49.4062 139.156C48.5729 139.156 47.9245 138.943 47.4609 138.516C46.9974 138.089 46.7656 137.497 46.7656 136.742C46.7656 135.914 47.1094 135.271 47.7969 134.812C48.4896 134.354 49.4896 134.112 50.7969 134.086L52.4141 134.039V133.477C52.4141 132.669 52.25 132.06 51.9219 131.648C51.5938 131.237 51.0651 131.031 50.3359 131.031C49.5495 131.031 48.7344 131.25 47.8906 131.688L47.6016 131.016C48.5339 130.578 49.4557 130.359 50.3672 130.359C51.2995 130.359 51.9948 130.602 52.4531 131.086C52.9167 131.57 53.1484 132.326 53.1484 133.352V139H52.5781ZM49.4531 138.453C50.3594 138.453 51.0729 138.195 51.5938 137.68C52.1198 137.159 52.3828 136.438 52.3828 135.516V134.68L50.8984 134.742C49.7057 134.799 48.8542 134.987 48.3438 135.305C47.8385 135.617 47.5859 136.107 47.5859 136.773C47.5859 137.305 47.7474 137.719 48.0703 138.016C48.3984 138.307 48.8594 138.453 49.4531 138.453ZM61.8281 139V133.492C61.8281 132.638 61.6484 132.018 61.2891 131.633C60.9297 131.242 60.3724 131.047 59.6172 131.047C58.6016 131.047 57.8568 131.305 57.3828 131.82C56.9141 132.331 56.6797 133.161 56.6797 134.312V139H55.9062V130.508H56.5625L56.7109 131.672H56.7578C57.3099 130.786 58.2917 130.344 59.7031 130.344C61.6302 130.344 62.5938 131.378 62.5938 133.445V139H61.8281ZM68.4531 130.344C69.0677 130.344 69.599 130.456 70.0469 130.68C70.4948 130.904 70.8958 131.286 71.25 131.828H71.2969C71.2656 131.172 71.25 130.529 71.25 129.898V126.844H72.0156V139H71.5078L71.3125 137.703H71.25C70.6042 138.672 69.6771 139.156 68.4688 139.156C67.2969 139.156 66.401 138.792 65.7812 138.062C65.1615 137.333 64.8516 136.271 64.8516 134.875C64.8516 133.406 65.1589 132.284 65.7734 131.508C66.388 130.732 67.2812 130.344 68.4531 130.344ZM68.4531 131.047C67.526 131.047 66.8281 131.372 66.3594 132.023C65.8958 132.674 65.6641 133.62 65.6641 134.859C65.6641 137.266 66.599 138.469 68.4688 138.469C69.4271 138.469 70.1302 138.19 70.5781 137.633C71.026 137.076 71.25 136.156 71.25 134.875V134.742C71.25 133.43 71.0286 132.487 70.5859 131.914C70.1484 131.336 69.4375 131.047 68.4531 131.047ZM86.0547 134.742C86.0547 136.128 85.7188 137.211 85.0469 137.992C84.375 138.768 83.4479 139.156 82.2656 139.156C81.5208 139.156 80.8646 138.977 80.2969 138.617C79.7292 138.258 79.2943 137.742 78.9922 137.07C78.6901 136.398 78.5391 135.622 78.5391 134.742C78.5391 133.357 78.875 132.279 79.5469 131.508C80.2188 130.732 81.1406 130.344 82.3125 130.344C83.4792 130.344 84.3932 130.737 85.0547 131.523C85.7214 132.305 86.0547 133.378 86.0547 134.742ZM79.3516 134.742C79.3516 135.909 79.6068 136.82 80.1172 137.477C80.6328 138.128 81.3594 138.453 82.2969 138.453C83.2344 138.453 83.9583 138.128 84.4688 137.477C84.9844 136.82 85.2422 135.909 85.2422 134.742C85.2422 133.57 84.9818 132.661 84.4609 132.016C83.9453 131.37 83.2188 131.047 82.2812 131.047C81.3438 131.047 80.6198 131.37 80.1094 132.016C79.6042 132.656 79.3516 133.565 79.3516 134.742ZM90.6484 138.469C91.138 138.469 91.5651 138.427 91.9297 138.344V138.969C91.5547 139.094 91.1224 139.156 90.6328 139.156C89.8828 139.156 89.3281 138.956 88.9688 138.555C88.6146 138.154 88.4375 137.523 88.4375 136.664V131.18H87.1797V130.727L88.4375 130.375L88.8281 128.453H89.2266V130.508H91.7188V131.18H89.2266V136.555C89.2266 137.206 89.3411 137.688 89.5703 138C89.7995 138.312 90.1589 138.469 90.6484 138.469ZM99.6875 139V133.492C99.6875 132.638 99.5078 132.018 99.1484 131.633C98.7891 131.242 98.2318 131.047 97.4766 131.047C96.4609 131.047 95.7161 131.305 95.2422 131.82C94.7734 132.331 94.5391 133.161 94.5391 134.312V139H93.7656V126.844H94.5391V130.711L94.5 131.797H94.5547C94.8724 131.286 95.2734 130.917 95.7578 130.688C96.2422 130.458 96.8438 130.344 97.5625 130.344C99.4896 130.344 100.453 131.378 100.453 133.445V139H99.6875ZM106.633 139.156C105.398 139.156 104.435 138.776 103.742 138.016C103.055 137.255 102.711 136.19 102.711 134.82C102.711 133.466 103.044 132.383 103.711 131.57C104.378 130.753 105.276 130.344 106.406 130.344C107.406 130.344 108.195 130.693 108.773 131.391C109.352 132.089 109.641 133.036 109.641 134.234V134.859H103.523C103.534 136.026 103.805 136.917 104.336 137.531C104.872 138.146 105.638 138.453 106.633 138.453C107.117 138.453 107.542 138.419 107.906 138.352C108.276 138.284 108.742 138.138 109.305 137.914V138.617C108.826 138.826 108.383 138.966 107.977 139.039C107.57 139.117 107.122 139.156 106.633 139.156ZM106.406 131.031C105.589 131.031 104.932 131.302 104.438 131.844C103.943 132.38 103.654 133.156 103.57 134.172H108.82C108.82 133.188 108.607 132.419 108.18 131.867C107.753 131.31 107.161 131.031 106.406 131.031ZM115.328 130.344C115.688 130.344 116.073 130.38 116.484 130.453L116.336 131.195C115.982 131.107 115.615 131.062 115.234 131.062C114.51 131.062 113.917 131.37 113.453 131.984C112.99 132.599 112.758 133.375 112.758 134.312V139H111.984V130.508H112.641L112.719 132.039H112.773C113.122 131.414 113.495 130.977 113.891 130.727C114.286 130.471 114.766 130.344 115.328 130.344ZM137.906 139V133.492C137.906 132.638 137.727 132.018 137.367 131.633C137.008 131.242 136.451 131.047 135.695 131.047C134.68 131.047 133.935 131.305 133.461 131.82C132.992 132.331 132.758 133.161 132.758 134.312V139H131.984V130.508H132.641L132.789 131.672H132.836C133.388 130.786 134.37 130.344 135.781 130.344C137.708 130.344 138.672 131.378 138.672 133.445V139H137.906ZM144.852 139.156C143.617 139.156 142.654 138.776 141.961 138.016C141.273 137.255 140.93 136.19 140.93 134.82C140.93 133.466 141.263 132.383 141.93 131.57C142.596 130.753 143.495 130.344 144.625 130.344C145.625 130.344 146.414 130.693 146.992 131.391C147.57 132.089 147.859 133.036 147.859 134.234V134.859H141.742C141.753 136.026 142.023 136.917 142.555 137.531C143.091 138.146 143.857 138.453 144.852 138.453C145.336 138.453 145.76 138.419 146.125 138.352C146.495 138.284 146.961 138.138 147.523 137.914V138.617C147.044 138.826 146.602 138.966 146.195 139.039C145.789 139.117 145.341 139.156 144.852 139.156ZM144.625 131.031C143.807 131.031 143.151 131.302 142.656 131.844C142.161 132.38 141.872 133.156 141.789 134.172H147.039C147.039 133.188 146.826 132.419 146.398 131.867C145.971 131.31 145.38 131.031 144.625 131.031ZM153.633 139.156C152.398 139.156 151.435 138.776 150.742 138.016C150.055 137.255 149.711 136.19 149.711 134.82C149.711 133.466 150.044 132.383 150.711 131.57C151.378 130.753 152.276 130.344 153.406 130.344C154.406 130.344 155.195 130.693 155.773 131.391C156.352 132.089 156.641 133.036 156.641 134.234V134.859H150.523C150.534 136.026 150.805 136.917 151.336 137.531C151.872 138.146 152.638 138.453 153.633 138.453C154.117 138.453 154.542 138.419 154.906 138.352C155.276 138.284 155.742 138.138 156.305 137.914V138.617C155.826 138.826 155.383 138.966 154.977 139.039C154.57 139.117 154.122 139.156 153.633 139.156ZM153.406 131.031C152.589 131.031 151.932 131.302 151.438 131.844C150.943 132.38 150.654 133.156 150.57 134.172H155.82C155.82 133.188 155.607 132.419 155.18 131.867C154.753 131.31 154.161 131.031 153.406 131.031ZM162.094 130.344C162.708 130.344 163.24 130.456 163.688 130.68C164.135 130.904 164.536 131.286 164.891 131.828H164.938C164.906 131.172 164.891 130.529 164.891 129.898V126.844H165.656V139H165.148L164.953 137.703H164.891C164.245 138.672 163.318 139.156 162.109 139.156C160.938 139.156 160.042 138.792 159.422 138.062C158.802 137.333 158.492 136.271 158.492 134.875C158.492 133.406 158.799 132.284 159.414 131.508C160.029 130.732 160.922 130.344 162.094 130.344ZM162.094 131.047C161.167 131.047 160.469 131.372 160 132.023C159.536 132.674 159.305 133.62 159.305 134.859C159.305 137.266 160.24 138.469 162.109 138.469C163.068 138.469 163.771 138.19 164.219 137.633C164.667 137.076 164.891 136.156 164.891 134.875V134.742C164.891 133.43 164.669 132.487 164.227 131.914C163.789 131.336 163.078 131.047 162.094 131.047ZM171.945 139.156C170.711 139.156 169.747 138.776 169.055 138.016C168.367 137.255 168.023 136.19 168.023 134.82C168.023 133.466 168.357 132.383 169.023 131.57C169.69 130.753 170.589 130.344 171.719 130.344C172.719 130.344 173.508 130.693 174.086 131.391C174.664 132.089 174.953 133.036 174.953 134.234V134.859H168.836C168.846 136.026 169.117 136.917 169.648 137.531C170.185 138.146 170.951 138.453 171.945 138.453C172.43 138.453 172.854 138.419 173.219 138.352C173.589 138.284 174.055 138.138 174.617 137.914V138.617C174.138 138.826 173.695 138.966 173.289 139.039C172.883 139.117 172.435 139.156 171.945 139.156ZM171.719 131.031C170.901 131.031 170.245 131.302 169.75 131.844C169.255 132.38 168.966 133.156 168.883 134.172H174.133C174.133 133.188 173.919 132.419 173.492 131.867C173.065 131.31 172.474 131.031 171.719 131.031ZM180.406 130.344C181.021 130.344 181.552 130.456 182 130.68C182.448 130.904 182.849 131.286 183.203 131.828H183.25C183.219 131.172 183.203 130.529 183.203 129.898V126.844H183.969V139H183.461L183.266 137.703H183.203C182.557 138.672 181.63 139.156 180.422 139.156C179.25 139.156 178.354 138.792 177.734 138.062C177.115 137.333 176.805 136.271 176.805 134.875C176.805 133.406 177.112 132.284 177.727 131.508C178.341 130.732 179.234 130.344 180.406 130.344ZM180.406 131.047C179.479 131.047 178.781 131.372 178.312 132.023C177.849 132.674 177.617 133.62 177.617 134.859C177.617 137.266 178.552 138.469 180.422 138.469C181.38 138.469 182.083 138.19 182.531 137.633C182.979 137.076 183.203 136.156 183.203 134.875V134.742C183.203 133.43 182.982 132.487 182.539 131.914C182.102 131.336 181.391 131.047 180.406 131.047ZM191.758 139H190.984V130.508H191.758V139ZM190.875 128.148C190.875 127.648 191.039 127.398 191.367 127.398C191.529 127.398 191.654 127.464 191.742 127.594C191.836 127.724 191.883 127.909 191.883 128.148C191.883 128.383 191.836 128.568 191.742 128.703C191.654 128.839 191.529 128.906 191.367 128.906C191.039 128.906 190.875 128.654 190.875 128.148ZM200.531 139V133.492C200.531 132.638 200.352 132.018 199.992 131.633C199.633 131.242 199.076 131.047 198.32 131.047C197.305 131.047 196.56 131.305 196.086 131.82C195.617 132.331 195.383 133.161 195.383 134.312V139H194.609V130.508H195.266L195.414 131.672H195.461C196.013 130.786 196.995 130.344 198.406 130.344C200.333 130.344 201.297 131.378 201.297 133.445V139H200.531ZM207.203 131.18H205.203V139H204.43V131.18H202.852V130.727L204.43 130.438V129.781C204.43 128.74 204.62 127.977 205 127.492C205.385 127.003 206.013 126.758 206.883 126.758C207.352 126.758 207.82 126.828 208.289 126.969L208.109 127.641C207.693 127.51 207.279 127.445 206.867 127.445C206.263 127.445 205.833 127.625 205.578 127.984C205.328 128.339 205.203 128.917 205.203 129.719V130.508H207.203V131.18ZM215.867 134.742C215.867 136.128 215.531 137.211 214.859 137.992C214.188 138.768 213.26 139.156 212.078 139.156C211.333 139.156 210.677 138.977 210.109 138.617C209.542 138.258 209.107 137.742 208.805 137.07C208.503 136.398 208.352 135.622 208.352 134.742C208.352 133.357 208.688 132.279 209.359 131.508C210.031 130.732 210.953 130.344 212.125 130.344C213.292 130.344 214.206 130.737 214.867 131.523C215.534 132.305 215.867 133.378 215.867 134.742ZM209.164 134.742C209.164 135.909 209.419 136.82 209.93 137.477C210.445 138.128 211.172 138.453 212.109 138.453C213.047 138.453 213.771 138.128 214.281 137.477C214.797 136.82 215.055 135.909 215.055 134.742C215.055 133.57 214.794 132.661 214.273 132.016C213.758 131.37 213.031 131.047 212.094 131.047C211.156 131.047 210.432 131.37 209.922 132.016C209.417 132.656 209.164 133.565 209.164 134.742ZM221.562 130.344C221.922 130.344 222.307 130.38 222.719 130.453L222.57 131.195C222.216 131.107 221.849 131.062 221.469 131.062C220.745 131.062 220.151 131.37 219.688 131.984C219.224 132.599 218.992 133.375 218.992 134.312V139H218.219V130.508H218.875L218.953 132.039H219.008C219.357 131.414 219.729 130.977 220.125 130.727C220.521 130.471 221 130.344 221.562 130.344ZM235.062 139V133.43C235.062 132.602 234.901 131.997 234.578 131.617C234.255 131.237 233.76 131.047 233.094 131.047C232.224 131.047 231.581 131.286 231.164 131.766C230.747 132.245 230.539 132.997 230.539 134.023V139H229.75V133.195C229.75 131.763 229.094 131.047 227.781 131.047C226.891 131.047 226.242 131.307 225.836 131.828C225.43 132.344 225.227 133.172 225.227 134.312V139H224.453V130.508H225.094L225.258 131.672H225.305C225.539 131.25 225.872 130.924 226.305 130.695C226.737 130.461 227.214 130.344 227.734 130.344C229.073 130.344 229.932 130.846 230.312 131.852H230.344C230.62 131.367 230.99 130.995 231.453 130.734C231.922 130.474 232.453 130.344 233.047 130.344C233.974 130.344 234.669 130.591 235.133 131.086C235.596 131.581 235.828 132.367 235.828 133.445V139H235.062ZM243.734 139L243.539 137.656H243.477C243.049 138.203 242.609 138.591 242.156 138.82C241.708 139.044 241.177 139.156 240.562 139.156C239.729 139.156 239.081 138.943 238.617 138.516C238.154 138.089 237.922 137.497 237.922 136.742C237.922 135.914 238.266 135.271 238.953 134.812C239.646 134.354 240.646 134.112 241.953 134.086L243.57 134.039V133.477C243.57 132.669 243.406 132.06 243.078 131.648C242.75 131.237 242.221 131.031 241.492 131.031C240.706 131.031 239.891 131.25 239.047 131.688L238.758 131.016C239.69 130.578 240.612 130.359 241.523 130.359C242.456 130.359 243.151 130.602 243.609 131.086C244.073 131.57 244.305 132.326 244.305 133.352V139H243.734ZM240.609 138.453C241.516 138.453 242.229 138.195 242.75 137.68C243.276 137.159 243.539 136.438 243.539 135.516V134.68L242.055 134.742C240.862 134.799 240.01 134.987 239.5 135.305C238.995 135.617 238.742 136.107 238.742 136.773C238.742 137.305 238.904 137.719 239.227 138.016C239.555 138.307 240.016 138.453 240.609 138.453ZM249.305 138.469C249.794 138.469 250.221 138.427 250.586 138.344V138.969C250.211 139.094 249.779 139.156 249.289 139.156C248.539 139.156 247.984 138.956 247.625 138.555C247.271 138.154 247.094 137.523 247.094 136.664V131.18H245.836V130.727L247.094 130.375L247.484 128.453H247.883V130.508H250.375V131.18H247.883V136.555C247.883 137.206 247.997 137.688 248.227 138C248.456 138.312 248.815 138.469 249.305 138.469ZM253.195 139H252.422V130.508H253.195V139ZM252.312 128.148C252.312 127.648 252.477 127.398 252.805 127.398C252.966 127.398 253.091 127.464 253.18 127.594C253.273 127.724 253.32 127.909 253.32 128.148C253.32 128.383 253.273 128.568 253.18 128.703C253.091 128.839 252.966 128.906 252.805 128.906C252.477 128.906 252.312 128.654 252.312 128.148ZM263.07 134.742C263.07 136.128 262.734 137.211 262.062 137.992C261.391 138.768 260.464 139.156 259.281 139.156C258.536 139.156 257.88 138.977 257.312 138.617C256.745 138.258 256.31 137.742 256.008 137.07C255.706 136.398 255.555 135.622 255.555 134.742C255.555 133.357 255.891 132.279 256.562 131.508C257.234 130.732 258.156 130.344 259.328 130.344C260.495 130.344 261.409 130.737 262.07 131.523C262.737 132.305 263.07 133.378 263.07 134.742ZM256.367 134.742C256.367 135.909 256.622 136.82 257.133 137.477C257.648 138.128 258.375 138.453 259.312 138.453C260.25 138.453 260.974 138.128 261.484 137.477C262 136.82 262.258 135.909 262.258 134.742C262.258 133.57 261.997 132.661 261.477 132.016C260.961 131.37 260.234 131.047 259.297 131.047C258.359 131.047 257.635 131.37 257.125 132.016C256.62 132.656 256.367 133.565 256.367 134.742ZM271.344 139V133.492C271.344 132.638 271.164 132.018 270.805 131.633C270.445 131.242 269.888 131.047 269.133 131.047C268.117 131.047 267.372 131.305 266.898 131.82C266.43 132.331 266.195 133.161 266.195 134.312V139H265.422V130.508H266.078L266.227 131.672H266.273C266.826 130.786 267.807 130.344 269.219 130.344C271.146 130.344 272.109 131.378 272.109 133.445V139H271.344ZM274.703 138.391C274.703 137.88 274.911 137.625 275.328 137.625C275.755 137.625 275.969 137.88 275.969 138.391C275.969 138.901 275.755 139.156 275.328 139.156C274.911 139.156 274.703 138.901 274.703 138.391Z" fill="black"/>
<circle cx="27" cy="27" r="27" fill="url(#paint0_linear)"/>
<circle cx="27" cy="235" r="27" fill="#989898"/>
<circle cx="27" cy="343" r="27" fill="#989898"/>
<circle cx="27" cy="451" r="27" fill="#989898"/>
<g clip-path="url(#clip0)">
<path d="M38.297 446.369L25.636 459.029C24.6985 459.967 23.1776 459.967 22.2391 459.029L15.7034 452.493C14.7655 451.555 14.7655 450.034 15.7034 449.096C16.6415 448.158 18.1623 448.158 19.1 449.096L23.9381 453.934L34.9 442.972C35.8381 442.034 37.3589 442.034 38.2967 442.972C39.2344 443.91 39.2344 445.43 38.297 446.369Z" fill="white"/>
</g>
<rect x="27" y="66" width="1" height="130" fill="#C4C4C4"/>
<rect x="26" y="274" width="1" height="30" fill="#C4C4C4"/>
<rect x="28" y="382" width="1" height="30" fill="#C4C4C4"/>
<g clip-path="url(#clip1)">
<path d="M38.347 32.6136L34.9977 29.2643C33.8015 28.0681 31.7681 28.5467 31.2896 30.1016C30.9307 31.1782 29.7346 31.7763 28.658 31.537C26.2657 30.9389 23.036 27.8289 22.4379 25.317C22.0791 24.2404 22.7968 23.0442 23.8733 22.6854C25.4284 22.2069 25.9068 20.1734 24.7107 18.9773L21.3614 15.628C20.4044 14.7907 18.969 14.7907 18.1317 15.628L15.859 17.9007C13.5863 20.293 16.0982 26.6327 21.7202 32.2547C27.3422 37.8767 33.6819 40.5083 36.0743 38.116L38.347 35.8432C39.1843 34.8863 39.1843 33.4509 38.347 32.6136Z" fill="white"/>
</g>
<path d="M34.5294 230.172H25.8706L24.1482 228.125C24.0903 228.055 24.0035 228.016 23.9129 228.019H16.9271C15.8605 228.027 15 228.894 15 229.96V242.551C15.0013 243.621 15.8686 244.488 16.9388 244.49H34.5294C35.5996 244.488 36.4669 243.621 36.4682 242.551V232.111C36.4669 231.041 35.5996 230.173 34.5294 230.172Z" fill="white"/>
<path d="M37.0727 227.663H28.4116L26.6892 225.616C26.6313 225.547 26.5444 225.508 26.4539 225.51H19.4704C18.5026 225.512 17.6843 226.227 17.5527 227.186H23.9221C24.2561 227.185 24.5733 227.332 24.788 227.588L26.2586 229.336H34.5292C36.0589 229.339 37.2984 230.578 37.301 232.108V241.962C38.2709 241.841 38.999 241.017 38.9998 240.04V229.6C38.9973 228.535 38.1374 227.671 37.0727 227.663Z" fill="white"/>
<g clip-path="url(#clip2)">
<path d="M38.5969 341.73L27.8289 331.918C27.3563 331.487 26.6435 331.487 26.1711 331.918L15.403 341.73C15.0244 342.075 14.8994 342.606 15.0843 343.084C15.2693 343.561 15.7198 343.87 16.232 343.87H17.9519V353.701C17.9519 354.09 18.2679 354.406 18.6577 354.406H24.5599C24.9496 354.406 25.2657 354.09 25.2657 353.701V347.732H28.7345V353.701C28.7345 354.09 29.0505 354.406 29.4403 354.406H35.3422C35.732 354.406 36.048 354.09 36.048 353.701V343.87H37.7682C38.2803 343.87 38.7308 343.561 38.9159 343.084C39.1006 342.606 38.9755 342.075 38.5969 341.73Z" fill="white"/>
<path d="M35.8649 333.003H31.125L36.5707 337.955V333.709C36.5707 333.319 36.2548 333.003 35.8649 333.003Z" fill="white"/>
</g>
<defs>
<linearGradient id="paint0_linear" x1="27" y1="0" x2="27" y2="54" gradientUnits="userSpaceOnUse">
<stop stop-color="#4256AC"/>
<stop offset="1" stop-color="#293991"/>
</linearGradient>
<clipPath id="clip0">
<rect width="24" height="24" fill="white" transform="translate(15 439)"/>
</clipPath>
<clipPath id="clip1">
<rect width="24" height="24" fill="white" transform="translate(15 15)"/>
</clipPath>
<clipPath id="clip2">
<rect width="24" height="24" fill="white" transform="translate(15 331)"/>
</clipPath>
</defs>
</svg>
