<svg width="327" height="478" viewBox="0 0 327 478" fill="none" xmlns="http://www.w3.org/2000/svg">
<path d="M77.8613 23.0371C76.722 23.0371 75.8398 23.4668 75.2148 24.3262C74.5898 25.179 74.2773 26.3704 74.2773 27.9004C74.2773 31.084 75.472 32.6758 77.8613 32.6758C78.8639 32.6758 80.0781 32.4251 81.5039 31.9238V34.4629C80.332 34.9512 79.0234 35.1953 77.5781 35.1953C75.5013 35.1953 73.9128 34.5671 72.8125 33.3105C71.7122 32.0475 71.1621 30.2376 71.1621 27.8809C71.1621 26.3965 71.4323 25.0977 71.9727 23.9844C72.513 22.8646 73.2878 22.0085 74.2969 21.416C75.3125 20.8171 76.5007 20.5176 77.8613 20.5176C79.248 20.5176 80.6413 20.8529 82.041 21.5234L81.0645 23.9844C80.5306 23.7305 79.9935 23.5091 79.4531 23.3203C78.9128 23.1315 78.3822 23.0371 77.8613 23.0371ZM86.6895 29.5215C86.6895 30.6022 86.8652 31.4193 87.2168 31.9727C87.5749 32.526 88.1543 32.8027 88.9551 32.8027C89.7493 32.8027 90.319 32.5293 90.6641 31.9824C91.0156 31.429 91.1914 30.6087 91.1914 29.5215C91.1914 28.4408 91.0156 27.6302 90.6641 27.0898C90.3125 26.5495 89.7363 26.2793 88.9355 26.2793C88.1413 26.2793 87.5684 26.5495 87.2168 27.0898C86.8652 27.6237 86.6895 28.4342 86.6895 29.5215ZM94.2383 29.5215C94.2383 31.2988 93.7695 32.6888 92.832 33.6914C91.8945 34.694 90.5892 35.1953 88.916 35.1953C87.8678 35.1953 86.9434 34.9674 86.1426 34.5117C85.3418 34.0495 84.7266 33.3887 84.2969 32.5293C83.8672 31.6699 83.6523 30.6673 83.6523 29.5215C83.6523 27.7376 84.1178 26.3509 85.0488 25.3613C85.9798 24.3717 87.2884 23.877 88.9746 23.877C90.0228 23.877 90.9473 24.1048 91.748 24.5605C92.5488 25.0163 93.1641 25.6706 93.5938 26.5234C94.0234 27.3763 94.2383 28.3757 94.2383 29.5215ZM106.777 35H103.799V28.623C103.799 27.8353 103.659 27.2461 103.379 26.8555C103.099 26.4583 102.653 26.2598 102.041 26.2598C101.208 26.2598 100.605 26.5397 100.234 27.0996C99.8633 27.653 99.6777 28.5742 99.6777 29.8633V35H96.6992V24.082H98.9746L99.375 25.4785H99.541C99.873 24.9512 100.329 24.554 100.908 24.2871C101.494 24.0137 102.158 23.877 102.9 23.877C104.17 23.877 105.133 24.222 105.791 24.9121C106.449 25.5957 106.777 26.5853 106.777 27.8809V35ZM114.443 32.8223C114.964 32.8223 115.589 32.7083 116.318 32.4805V34.6973C115.576 35.0293 114.665 35.1953 113.584 35.1953C112.393 35.1953 111.523 34.8958 110.977 34.2969C110.436 33.6914 110.166 32.7865 110.166 31.582V26.3184H108.74V25.0586L110.381 24.0625L111.24 21.7578H113.145V24.082H116.201V26.3184H113.145V31.582C113.145 32.0052 113.262 32.3177 113.496 32.5195C113.737 32.7214 114.053 32.8223 114.443 32.8223ZM125.469 35L124.893 33.5156H124.814C124.313 34.1471 123.796 34.5866 123.262 34.834C122.734 35.0749 122.044 35.1953 121.191 35.1953C120.143 35.1953 119.316 34.8958 118.711 34.2969C118.112 33.6979 117.812 32.8451 117.812 31.7383C117.812 30.5794 118.216 29.7266 119.023 29.1797C119.837 28.6263 121.061 28.3203 122.695 28.2617L124.59 28.2031V27.7246C124.59 26.6178 124.023 26.0645 122.891 26.0645C122.018 26.0645 120.993 26.3281 119.814 26.8555L118.828 24.8438C120.085 24.1862 121.478 23.8574 123.008 23.8574C124.473 23.8574 125.596 24.1764 126.377 24.8145C127.158 25.4525 127.549 26.4225 127.549 27.7246V35H125.469ZM124.59 29.9414L123.438 29.9805C122.572 30.0065 121.927 30.1628 121.504 30.4492C121.081 30.7357 120.869 31.1719 120.869 31.7578C120.869 32.5977 121.351 33.0176 122.314 33.0176C123.005 33.0176 123.555 32.819 123.965 32.4219C124.382 32.0247 124.59 31.4974 124.59 30.8398V29.9414ZM135.059 35.1953C131.66 35.1953 129.961 33.3301 129.961 29.5996C129.961 27.7441 130.423 26.3281 131.348 25.3516C132.272 24.3685 133.597 23.877 135.322 23.877C136.585 23.877 137.718 24.1243 138.721 24.6191L137.842 26.9238C137.373 26.735 136.937 26.582 136.533 26.4648C136.13 26.3411 135.726 26.2793 135.322 26.2793C133.773 26.2793 132.998 27.3796 132.998 29.5801C132.998 31.7155 133.773 32.7832 135.322 32.7832C135.895 32.7832 136.426 32.7083 136.914 32.5586C137.402 32.4023 137.891 32.1615 138.379 31.8359V34.3848C137.897 34.6908 137.409 34.9023 136.914 35.0195C136.426 35.1367 135.807 35.1953 135.059 35.1953ZM145.518 32.8223C146.038 32.8223 146.663 32.7083 147.393 32.4805V34.6973C146.65 35.0293 145.739 35.1953 144.658 35.1953C143.467 35.1953 142.598 34.8958 142.051 34.2969C141.51 33.6914 141.24 32.7865 141.24 31.582V26.3184H139.814V25.0586L141.455 24.0625L142.314 21.7578H144.219V24.082H147.275V26.3184H144.219V31.582C144.219 32.0052 144.336 32.3177 144.57 32.5195C144.811 32.7214 145.127 32.8223 145.518 32.8223ZM155.039 35V20.7227H158.066V35H155.039ZM171.504 35H168.525V28.623C168.525 27.8353 168.385 27.2461 168.105 26.8555C167.826 26.4583 167.38 26.2598 166.768 26.2598C165.934 26.2598 165.332 26.5397 164.961 27.0996C164.59 27.653 164.404 28.5742 164.404 29.8633V35H161.426V24.082H163.701L164.102 25.4785H164.268C164.6 24.9512 165.055 24.554 165.635 24.2871C166.221 24.0137 166.885 23.877 167.627 23.877C168.896 23.877 169.86 24.222 170.518 24.9121C171.175 25.5957 171.504 26.5853 171.504 27.8809V35ZM180.605 26.3184H178.027V35H175.049V26.3184H173.408V24.8828L175.049 24.082V23.2812C175.049 22.0378 175.355 21.1296 175.967 20.5566C176.579 19.9837 177.559 19.6973 178.906 19.6973C179.935 19.6973 180.85 19.8503 181.65 20.1562L180.889 22.3438C180.29 22.1549 179.736 22.0605 179.229 22.0605C178.805 22.0605 178.499 22.1875 178.311 22.4414C178.122 22.6888 178.027 23.0078 178.027 23.3984V24.082H180.605V26.3184ZM184.697 29.5215C184.697 30.6022 184.873 31.4193 185.225 31.9727C185.583 32.526 186.162 32.8027 186.963 32.8027C187.757 32.8027 188.327 32.5293 188.672 31.9824C189.023 31.429 189.199 30.6087 189.199 29.5215C189.199 28.4408 189.023 27.6302 188.672 27.0898C188.32 26.5495 187.744 26.2793 186.943 26.2793C186.149 26.2793 185.576 26.5495 185.225 27.0898C184.873 27.6237 184.697 28.4342 184.697 29.5215ZM192.246 29.5215C192.246 31.2988 191.777 32.6888 190.84 33.6914C189.902 34.694 188.597 35.1953 186.924 35.1953C185.876 35.1953 184.951 34.9674 184.15 34.5117C183.35 34.0495 182.734 33.3887 182.305 32.5293C181.875 31.6699 181.66 30.6673 181.66 29.5215C181.66 27.7376 182.126 26.3509 183.057 25.3613C183.988 24.3717 185.296 23.877 186.982 23.877C188.031 23.877 188.955 24.1048 189.756 24.5605C190.557 25.0163 191.172 25.6706 191.602 26.5234C192.031 27.3763 192.246 28.3757 192.246 29.5215ZM200.801 23.877C201.204 23.877 201.54 23.9062 201.807 23.9648L201.582 26.7578C201.341 26.6927 201.048 26.6602 200.703 26.6602C199.753 26.6602 199.01 26.9043 198.477 27.3926C197.949 27.8809 197.686 28.5645 197.686 29.4434V35H194.707V24.082H196.963L197.402 25.918H197.549C197.887 25.306 198.343 24.8145 198.916 24.4434C199.495 24.0658 200.124 23.877 200.801 23.877ZM213.564 35H210.586V28.623C210.586 27.8353 210.452 27.2461 210.186 26.8555C209.925 26.4583 209.512 26.2598 208.945 26.2598C208.184 26.2598 207.63 26.5397 207.285 27.0996C206.94 27.6595 206.768 28.5807 206.768 29.8633V35H203.789V24.082H206.064L206.465 25.4785H206.631C206.924 24.9772 207.347 24.5866 207.9 24.3066C208.454 24.0202 209.089 23.877 209.805 23.877C211.439 23.877 212.546 24.4108 213.125 25.4785H213.389C213.682 24.9707 214.111 24.5768 214.678 24.2969C215.251 24.0169 215.895 23.877 216.611 23.877C217.848 23.877 218.783 24.196 219.414 24.834C220.052 25.4655 220.371 26.4811 220.371 27.8809V35H217.383V28.623C217.383 27.8353 217.249 27.2461 216.982 26.8555C216.722 26.4583 216.309 26.2598 215.742 26.2598C215.013 26.2598 214.466 26.5202 214.102 27.041C213.743 27.5618 213.564 28.3887 213.564 29.5215V35ZM230.371 35L229.795 33.5156H229.717C229.215 34.1471 228.698 34.5866 228.164 34.834C227.637 35.0749 226.947 35.1953 226.094 35.1953C225.046 35.1953 224.219 34.8958 223.613 34.2969C223.014 33.6979 222.715 32.8451 222.715 31.7383C222.715 30.5794 223.118 29.7266 223.926 29.1797C224.74 28.6263 225.964 28.3203 227.598 28.2617L229.492 28.2031V27.7246C229.492 26.6178 228.926 26.0645 227.793 26.0645C226.921 26.0645 225.895 26.3281 224.717 26.8555L223.73 24.8438C224.987 24.1862 226.38 23.8574 227.91 23.8574C229.375 23.8574 230.498 24.1764 231.279 24.8145C232.061 25.4525 232.451 26.4225 232.451 27.7246V35H230.371ZM229.492 29.9414L228.34 29.9805C227.474 30.0065 226.829 30.1628 226.406 30.4492C225.983 30.7357 225.771 31.1719 225.771 31.7578C225.771 32.5977 226.253 33.0176 227.217 33.0176C227.907 33.0176 228.457 32.819 228.867 32.4219C229.284 32.0247 229.492 31.4974 229.492 30.8398V29.9414ZM240.127 32.8223C240.648 32.8223 241.273 32.7083 242.002 32.4805V34.6973C241.26 35.0293 240.348 35.1953 239.268 35.1953C238.076 35.1953 237.207 34.8958 236.66 34.2969C236.12 33.6914 235.85 32.7865 235.85 31.582V26.3184H234.424V25.0586L236.064 24.0625L236.924 21.7578H238.828V24.082H241.885V26.3184H238.828V31.582C238.828 32.0052 238.945 32.3177 239.18 32.5195C239.421 32.7214 239.736 32.8223 240.127 32.8223ZM244.092 21.2598C244.092 20.2897 244.632 19.8047 245.713 19.8047C246.794 19.8047 247.334 20.2897 247.334 21.2598C247.334 21.722 247.197 22.0833 246.924 22.3438C246.657 22.5977 246.253 22.7246 245.713 22.7246C244.632 22.7246 244.092 22.2363 244.092 21.2598ZM247.197 35H244.219V24.082H247.197V35ZM252.705 29.5215C252.705 30.6022 252.881 31.4193 253.232 31.9727C253.59 32.526 254.17 32.8027 254.971 32.8027C255.765 32.8027 256.335 32.5293 256.68 31.9824C257.031 31.429 257.207 30.6087 257.207 29.5215C257.207 28.4408 257.031 27.6302 256.68 27.0898C256.328 26.5495 255.752 26.2793 254.951 26.2793C254.157 26.2793 253.584 26.5495 253.232 27.0898C252.881 27.6237 252.705 28.4342 252.705 29.5215ZM260.254 29.5215C260.254 31.2988 259.785 32.6888 258.848 33.6914C257.91 34.694 256.605 35.1953 254.932 35.1953C253.883 35.1953 252.959 34.9674 252.158 34.5117C251.357 34.0495 250.742 33.3887 250.312 32.5293C249.883 31.6699 249.668 30.6673 249.668 29.5215C249.668 27.7376 250.133 26.3509 251.064 25.3613C251.995 24.3717 253.304 23.877 254.99 23.877C256.038 23.877 256.963 24.1048 257.764 24.5605C258.564 25.0163 259.18 25.6706 259.609 26.5234C260.039 27.3763 260.254 28.3757 260.254 29.5215ZM272.793 35H269.814V28.623C269.814 27.8353 269.674 27.2461 269.395 26.8555C269.115 26.4583 268.669 26.2598 268.057 26.2598C267.223 26.2598 266.621 26.5397 266.25 27.0996C265.879 27.653 265.693 28.5742 265.693 29.8633V35H262.715V24.082H264.99L265.391 25.4785H265.557C265.889 24.9512 266.344 24.554 266.924 24.2871C267.51 24.0137 268.174 23.877 268.916 23.877C270.186 23.877 271.149 24.222 271.807 24.9121C272.464 25.5957 272.793 26.5853 272.793 27.8809V35Z" fill="black"/>
<path d="M80.0195 143H71.7969V128.723H80.0195V131.203H74.8242V134.338H79.6582V136.818H74.8242V140.5H80.0195V143ZM92.5488 143H89.5703V136.623C89.5703 135.835 89.4368 135.246 89.1699 134.855C88.9095 134.458 88.4961 134.26 87.9297 134.26C87.168 134.26 86.6146 134.54 86.2695 135.1C85.9245 135.66 85.752 136.581 85.752 137.863V143H82.7734V132.082H85.0488L85.4492 133.479H85.6152C85.9082 132.977 86.3314 132.587 86.8848 132.307C87.4382 132.02 88.0729 131.877 88.7891 131.877C90.4232 131.877 91.5299 132.411 92.1094 133.479H92.373C92.666 132.971 93.0957 132.577 93.6621 132.297C94.235 132.017 94.8796 131.877 95.5957 131.877C96.8327 131.877 97.7669 132.196 98.3984 132.834C99.0365 133.465 99.3555 134.481 99.3555 135.881V143H96.3672V136.623C96.3672 135.835 96.2337 135.246 95.9668 134.855C95.7064 134.458 95.293 134.26 94.7266 134.26C93.9974 134.26 93.4505 134.52 93.0859 135.041C92.7279 135.562 92.5488 136.389 92.5488 137.521V143ZM108.418 143.195C107.135 143.195 106.13 142.73 105.4 141.799H105.244C105.348 142.71 105.4 143.238 105.4 143.381V147.805H102.422V132.082H104.844L105.264 133.498H105.4C106.097 132.417 107.129 131.877 108.496 131.877C109.785 131.877 110.794 132.375 111.523 133.371C112.253 134.367 112.617 135.751 112.617 137.521C112.617 138.687 112.445 139.699 112.1 140.559C111.761 141.418 111.276 142.072 110.645 142.521C110.013 142.971 109.271 143.195 108.418 143.195ZM107.539 134.26C106.803 134.26 106.266 134.488 105.928 134.943C105.589 135.393 105.413 136.138 105.4 137.18V137.502C105.4 138.674 105.573 139.514 105.918 140.021C106.27 140.529 106.823 140.783 107.578 140.783C108.913 140.783 109.58 139.683 109.58 137.482C109.58 136.408 109.414 135.604 109.082 135.07C108.757 134.53 108.242 134.26 107.539 134.26ZM118.057 143H115.078V127.805H118.057V143ZM123.564 137.521C123.564 138.602 123.74 139.419 124.092 139.973C124.45 140.526 125.029 140.803 125.83 140.803C126.624 140.803 127.194 140.529 127.539 139.982C127.891 139.429 128.066 138.609 128.066 137.521C128.066 136.441 127.891 135.63 127.539 135.09C127.188 134.549 126.611 134.279 125.811 134.279C125.016 134.279 124.443 134.549 124.092 135.09C123.74 135.624 123.564 136.434 123.564 137.521ZM131.113 137.521C131.113 139.299 130.645 140.689 129.707 141.691C128.77 142.694 127.464 143.195 125.791 143.195C124.743 143.195 123.818 142.967 123.018 142.512C122.217 142.049 121.602 141.389 121.172 140.529C120.742 139.67 120.527 138.667 120.527 137.521C120.527 135.738 120.993 134.351 121.924 133.361C122.855 132.372 124.163 131.877 125.85 131.877C126.898 131.877 127.822 132.105 128.623 132.561C129.424 133.016 130.039 133.671 130.469 134.523C130.898 135.376 131.113 136.376 131.113 137.521ZM132.012 132.082H135.273L137.334 138.225C137.51 138.758 137.63 139.39 137.695 140.119H137.754C137.826 139.449 137.965 138.817 138.174 138.225L140.195 132.082H143.389L138.77 144.396C138.346 145.536 137.741 146.389 136.953 146.955C136.172 147.521 135.257 147.805 134.209 147.805C133.695 147.805 133.19 147.749 132.695 147.639V145.275C133.053 145.36 133.444 145.402 133.867 145.402C134.395 145.402 134.854 145.24 135.244 144.914C135.641 144.595 135.951 144.11 136.172 143.459L136.348 142.922L132.012 132.082ZM154.736 143H151.758V136.623C151.758 135.835 151.624 135.246 151.357 134.855C151.097 134.458 150.684 134.26 150.117 134.26C149.355 134.26 148.802 134.54 148.457 135.1C148.112 135.66 147.939 136.581 147.939 137.863V143H144.961V132.082H147.236L147.637 133.479H147.803C148.096 132.977 148.519 132.587 149.072 132.307C149.626 132.02 150.26 131.877 150.977 131.877C152.611 131.877 153.717 132.411 154.297 133.479H154.561C154.854 132.971 155.283 132.577 155.85 132.297C156.423 132.017 157.067 131.877 157.783 131.877C159.02 131.877 159.954 132.196 160.586 132.834C161.224 133.465 161.543 134.481 161.543 135.881V143H158.555V136.623C158.555 135.835 158.421 135.246 158.154 134.855C157.894 134.458 157.48 134.26 156.914 134.26C156.185 134.26 155.638 134.52 155.273 135.041C154.915 135.562 154.736 136.389 154.736 137.521V143ZM169.131 133.996C168.499 133.996 168.005 134.198 167.646 134.602C167.288 134.999 167.083 135.565 167.031 136.301H171.211C171.198 135.565 171.006 134.999 170.635 134.602C170.264 134.198 169.762 133.996 169.131 133.996ZM169.551 143.195C167.793 143.195 166.419 142.71 165.43 141.74C164.44 140.77 163.945 139.396 163.945 137.619C163.945 135.79 164.401 134.377 165.312 133.381C166.23 132.378 167.497 131.877 169.111 131.877C170.654 131.877 171.855 132.316 172.715 133.195C173.574 134.074 174.004 135.288 174.004 136.838V138.283H166.963C166.995 139.13 167.246 139.79 167.715 140.266C168.184 140.741 168.841 140.979 169.688 140.979C170.345 140.979 170.967 140.91 171.553 140.773C172.139 140.637 172.751 140.419 173.389 140.119V142.424C172.868 142.684 172.311 142.876 171.719 143C171.126 143.13 170.404 143.195 169.551 143.195ZM186.504 143H183.525V136.623C183.525 135.835 183.385 135.246 183.105 134.855C182.826 134.458 182.38 134.26 181.768 134.26C180.934 134.26 180.332 134.54 179.961 135.1C179.59 135.653 179.404 136.574 179.404 137.863V143H176.426V132.082H178.701L179.102 133.479H179.268C179.6 132.951 180.055 132.554 180.635 132.287C181.221 132.014 181.885 131.877 182.627 131.877C183.896 131.877 184.86 132.222 185.518 132.912C186.175 133.596 186.504 134.585 186.504 135.881V143ZM194.17 140.822C194.691 140.822 195.316 140.708 196.045 140.48V142.697C195.303 143.029 194.391 143.195 193.311 143.195C192.119 143.195 191.25 142.896 190.703 142.297C190.163 141.691 189.893 140.786 189.893 139.582V134.318H188.467V133.059L190.107 132.062L190.967 129.758H192.871V132.082H195.928V134.318H192.871V139.582C192.871 140.005 192.988 140.318 193.223 140.52C193.464 140.721 193.779 140.822 194.17 140.822ZM203.691 143V128.723H206.719V143H203.691ZM220.156 143H217.178V136.623C217.178 135.835 217.038 135.246 216.758 134.855C216.478 134.458 216.032 134.26 215.42 134.26C214.587 134.26 213.984 134.54 213.613 135.1C213.242 135.653 213.057 136.574 213.057 137.863V143H210.078V132.082H212.354L212.754 133.479H212.92C213.252 132.951 213.708 132.554 214.287 132.287C214.873 132.014 215.537 131.877 216.279 131.877C217.549 131.877 218.512 132.222 219.17 132.912C219.827 133.596 220.156 134.585 220.156 135.881V143ZM229.258 134.318H226.68V143H223.701V134.318H222.061V132.883L223.701 132.082V131.281C223.701 130.038 224.007 129.13 224.619 128.557C225.231 127.984 226.211 127.697 227.559 127.697C228.587 127.697 229.502 127.85 230.303 128.156L229.541 130.344C228.942 130.155 228.389 130.061 227.881 130.061C227.458 130.061 227.152 130.188 226.963 130.441C226.774 130.689 226.68 131.008 226.68 131.398V132.082H229.258V134.318ZM233.35 137.521C233.35 138.602 233.525 139.419 233.877 139.973C234.235 140.526 234.814 140.803 235.615 140.803C236.41 140.803 236.979 140.529 237.324 139.982C237.676 139.429 237.852 138.609 237.852 137.521C237.852 136.441 237.676 135.63 237.324 135.09C236.973 134.549 236.396 134.279 235.596 134.279C234.801 134.279 234.229 134.549 233.877 135.09C233.525 135.624 233.35 136.434 233.35 137.521ZM240.898 137.521C240.898 139.299 240.43 140.689 239.492 141.691C238.555 142.694 237.249 143.195 235.576 143.195C234.528 143.195 233.604 142.967 232.803 142.512C232.002 142.049 231.387 141.389 230.957 140.529C230.527 139.67 230.312 138.667 230.312 137.521C230.312 135.738 230.778 134.351 231.709 133.361C232.64 132.372 233.949 131.877 235.635 131.877C236.683 131.877 237.607 132.105 238.408 132.561C239.209 133.016 239.824 133.671 240.254 134.523C240.684 135.376 240.898 136.376 240.898 137.521ZM249.453 131.877C249.857 131.877 250.192 131.906 250.459 131.965L250.234 134.758C249.993 134.693 249.701 134.66 249.355 134.66C248.405 134.66 247.663 134.904 247.129 135.393C246.602 135.881 246.338 136.564 246.338 137.443V143H243.359V132.082H245.615L246.055 133.918H246.201C246.54 133.306 246.995 132.814 247.568 132.443C248.148 132.066 248.776 131.877 249.453 131.877ZM262.217 143H259.238V136.623C259.238 135.835 259.105 135.246 258.838 134.855C258.577 134.458 258.164 134.26 257.598 134.26C256.836 134.26 256.283 134.54 255.938 135.1C255.592 135.66 255.42 136.581 255.42 137.863V143H252.441V132.082H254.717L255.117 133.479H255.283C255.576 132.977 255.999 132.587 256.553 132.307C257.106 132.02 257.741 131.877 258.457 131.877C260.091 131.877 261.198 132.411 261.777 133.479H262.041C262.334 132.971 262.764 132.577 263.33 132.297C263.903 132.017 264.548 131.877 265.264 131.877C266.501 131.877 267.435 132.196 268.066 132.834C268.704 133.465 269.023 134.481 269.023 135.881V143H266.035V136.623C266.035 135.835 265.902 135.246 265.635 134.855C265.374 134.458 264.961 134.26 264.395 134.26C263.665 134.26 263.118 134.52 262.754 135.041C262.396 135.562 262.217 136.389 262.217 137.521V143ZM279.023 143L278.447 141.516H278.369C277.868 142.147 277.35 142.587 276.816 142.834C276.289 143.075 275.599 143.195 274.746 143.195C273.698 143.195 272.871 142.896 272.266 142.297C271.667 141.698 271.367 140.845 271.367 139.738C271.367 138.579 271.771 137.727 272.578 137.18C273.392 136.626 274.616 136.32 276.25 136.262L278.145 136.203V135.725C278.145 134.618 277.578 134.064 276.445 134.064C275.573 134.064 274.548 134.328 273.369 134.855L272.383 132.844C273.639 132.186 275.033 131.857 276.562 131.857C278.027 131.857 279.15 132.176 279.932 132.814C280.713 133.452 281.104 134.423 281.104 135.725V143H279.023ZM278.145 137.941L276.992 137.98C276.126 138.007 275.482 138.163 275.059 138.449C274.635 138.736 274.424 139.172 274.424 139.758C274.424 140.598 274.906 141.018 275.869 141.018C276.559 141.018 277.109 140.819 277.52 140.422C277.936 140.025 278.145 139.497 278.145 138.84V137.941ZM288.779 140.822C289.3 140.822 289.925 140.708 290.654 140.48V142.697C289.912 143.029 289.001 143.195 287.92 143.195C286.729 143.195 285.859 142.896 285.312 142.297C284.772 141.691 284.502 140.786 284.502 139.582V134.318H283.076V133.059L284.717 132.062L285.576 129.758H287.48V132.082H290.537V134.318H287.48V139.582C287.48 140.005 287.598 140.318 287.832 140.52C288.073 140.721 288.389 140.822 288.779 140.822ZM292.744 129.26C292.744 128.29 293.285 127.805 294.365 127.805C295.446 127.805 295.986 128.29 295.986 129.26C295.986 129.722 295.85 130.083 295.576 130.344C295.309 130.598 294.906 130.725 294.365 130.725C293.285 130.725 292.744 130.236 292.744 129.26ZM295.85 143H292.871V132.082H295.85V143ZM301.357 137.521C301.357 138.602 301.533 139.419 301.885 139.973C302.243 140.526 302.822 140.803 303.623 140.803C304.417 140.803 304.987 140.529 305.332 139.982C305.684 139.429 305.859 138.609 305.859 137.521C305.859 136.441 305.684 135.63 305.332 135.09C304.98 134.549 304.404 134.279 303.604 134.279C302.809 134.279 302.236 134.549 301.885 135.09C301.533 135.624 301.357 136.434 301.357 137.521ZM308.906 137.521C308.906 139.299 308.438 140.689 307.5 141.691C306.562 142.694 305.257 143.195 303.584 143.195C302.536 143.195 301.611 142.967 300.811 142.512C300.01 142.049 299.395 141.389 298.965 140.529C298.535 139.67 298.32 138.667 298.32 137.521C298.32 135.738 298.786 134.351 299.717 133.361C300.648 132.372 301.956 131.877 303.643 131.877C304.691 131.877 305.615 132.105 306.416 132.561C307.217 133.016 307.832 133.671 308.262 134.523C308.691 135.376 308.906 136.376 308.906 137.521ZM321.445 143H318.467V136.623C318.467 135.835 318.327 135.246 318.047 134.855C317.767 134.458 317.321 134.26 316.709 134.26C315.876 134.26 315.273 134.54 314.902 135.1C314.531 135.653 314.346 136.574 314.346 137.863V143H311.367V132.082H313.643L314.043 133.479H314.209C314.541 132.951 314.997 132.554 315.576 132.287C316.162 132.014 316.826 131.877 317.568 131.877C318.838 131.877 319.801 132.222 320.459 132.912C321.117 133.596 321.445 134.585 321.445 135.881V143Z" fill="black"/>
<path d="M83.4961 251H80.4785V244.838H74.8242V251H71.7969V236.723H74.8242V242.318H80.4785V236.723H83.4961V251ZM89.248 245.521C89.248 246.602 89.4238 247.419 89.7754 247.973C90.1335 248.526 90.7129 248.803 91.5137 248.803C92.3079 248.803 92.8776 248.529 93.2227 247.982C93.5742 247.429 93.75 246.609 93.75 245.521C93.75 244.441 93.5742 243.63 93.2227 243.09C92.8711 242.549 92.2949 242.279 91.4941 242.279C90.6999 242.279 90.127 242.549 89.7754 243.09C89.4238 243.624 89.248 244.434 89.248 245.521ZM96.7969 245.521C96.7969 247.299 96.3281 248.689 95.3906 249.691C94.4531 250.694 93.1478 251.195 91.4746 251.195C90.4264 251.195 89.502 250.967 88.7012 250.512C87.9004 250.049 87.2852 249.389 86.8555 248.529C86.4258 247.67 86.2109 246.667 86.2109 245.521C86.2109 243.738 86.6764 242.351 87.6074 241.361C88.5384 240.372 89.847 239.877 91.5332 239.877C92.5814 239.877 93.5059 240.105 94.3066 240.561C95.1074 241.016 95.7227 241.671 96.1523 242.523C96.582 243.376 96.7969 244.376 96.7969 245.521ZM109.033 251H106.055V244.623C106.055 243.835 105.921 243.246 105.654 242.855C105.394 242.458 104.98 242.26 104.414 242.26C103.652 242.26 103.099 242.54 102.754 243.1C102.409 243.66 102.236 244.581 102.236 245.863V251H99.2578V240.082H101.533L101.934 241.479H102.1C102.393 240.977 102.816 240.587 103.369 240.307C103.923 240.02 104.557 239.877 105.273 239.877C106.908 239.877 108.014 240.411 108.594 241.479H108.857C109.15 240.971 109.58 240.577 110.146 240.297C110.719 240.017 111.364 239.877 112.08 239.877C113.317 239.877 114.251 240.196 114.883 240.834C115.521 241.465 115.84 242.481 115.84 243.881V251H112.852V244.623C112.852 243.835 112.718 243.246 112.451 242.855C112.191 242.458 111.777 242.26 111.211 242.26C110.482 242.26 109.935 242.52 109.57 243.041C109.212 243.562 109.033 244.389 109.033 245.521V251ZM123.428 241.996C122.796 241.996 122.301 242.198 121.943 242.602C121.585 242.999 121.38 243.565 121.328 244.301H125.508C125.495 243.565 125.303 242.999 124.932 242.602C124.561 242.198 124.059 241.996 123.428 241.996ZM123.848 251.195C122.09 251.195 120.716 250.71 119.727 249.74C118.737 248.77 118.242 247.396 118.242 245.619C118.242 243.79 118.698 242.377 119.609 241.381C120.527 240.378 121.794 239.877 123.408 239.877C124.951 239.877 126.152 240.316 127.012 241.195C127.871 242.074 128.301 243.288 128.301 244.838V246.283H121.26C121.292 247.13 121.543 247.79 122.012 248.266C122.48 248.741 123.138 248.979 123.984 248.979C124.642 248.979 125.264 248.91 125.85 248.773C126.436 248.637 127.048 248.419 127.686 248.119V250.424C127.165 250.684 126.608 250.876 126.016 251C125.423 251.13 124.701 251.195 123.848 251.195ZM136.152 251V236.723H139.18V251H136.152ZM152.617 251H149.639V244.623C149.639 243.835 149.499 243.246 149.219 242.855C148.939 242.458 148.493 242.26 147.881 242.26C147.048 242.26 146.445 242.54 146.074 243.1C145.703 243.653 145.518 244.574 145.518 245.863V251H142.539V240.082H144.814L145.215 241.479H145.381C145.713 240.951 146.169 240.554 146.748 240.287C147.334 240.014 147.998 239.877 148.74 239.877C150.01 239.877 150.973 240.222 151.631 240.912C152.288 241.596 152.617 242.585 152.617 243.881V251ZM161.719 242.318H159.141V251H156.162V242.318H154.521V240.883L156.162 240.082V239.281C156.162 238.038 156.468 237.13 157.08 236.557C157.692 235.984 158.672 235.697 160.02 235.697C161.048 235.697 161.963 235.85 162.764 236.156L162.002 238.344C161.403 238.155 160.85 238.061 160.342 238.061C159.919 238.061 159.613 238.188 159.424 238.441C159.235 238.689 159.141 239.008 159.141 239.398V240.082H161.719V242.318ZM165.811 245.521C165.811 246.602 165.986 247.419 166.338 247.973C166.696 248.526 167.275 248.803 168.076 248.803C168.87 248.803 169.44 248.529 169.785 247.982C170.137 247.429 170.312 246.609 170.312 245.521C170.312 244.441 170.137 243.63 169.785 243.09C169.434 242.549 168.857 242.279 168.057 242.279C167.262 242.279 166.689 242.549 166.338 243.09C165.986 243.624 165.811 244.434 165.811 245.521ZM173.359 245.521C173.359 247.299 172.891 248.689 171.953 249.691C171.016 250.694 169.71 251.195 168.037 251.195C166.989 251.195 166.064 250.967 165.264 250.512C164.463 250.049 163.848 249.389 163.418 248.529C162.988 247.67 162.773 246.667 162.773 245.521C162.773 243.738 163.239 242.351 164.17 241.361C165.101 240.372 166.41 239.877 168.096 239.877C169.144 239.877 170.068 240.105 170.869 240.561C171.67 241.016 172.285 241.671 172.715 242.523C173.145 243.376 173.359 244.376 173.359 245.521ZM181.914 239.877C182.318 239.877 182.653 239.906 182.92 239.965L182.695 242.758C182.454 242.693 182.161 242.66 181.816 242.66C180.866 242.66 180.124 242.904 179.59 243.393C179.062 243.881 178.799 244.564 178.799 245.443V251H175.82V240.082H178.076L178.516 241.918H178.662C179.001 241.306 179.456 240.814 180.029 240.443C180.609 240.066 181.237 239.877 181.914 239.877ZM194.678 251H191.699V244.623C191.699 243.835 191.566 243.246 191.299 242.855C191.038 242.458 190.625 242.26 190.059 242.26C189.297 242.26 188.743 242.54 188.398 243.1C188.053 243.66 187.881 244.581 187.881 245.863V251H184.902V240.082H187.178L187.578 241.479H187.744C188.037 240.977 188.46 240.587 189.014 240.307C189.567 240.02 190.202 239.877 190.918 239.877C192.552 239.877 193.659 240.411 194.238 241.479H194.502C194.795 240.971 195.225 240.577 195.791 240.297C196.364 240.017 197.008 239.877 197.725 239.877C198.962 239.877 199.896 240.196 200.527 240.834C201.165 241.465 201.484 242.481 201.484 243.881V251H198.496V244.623C198.496 243.835 198.363 243.246 198.096 242.855C197.835 242.458 197.422 242.26 196.855 242.26C196.126 242.26 195.579 242.52 195.215 243.041C194.857 243.562 194.678 244.389 194.678 245.521V251ZM211.484 251L210.908 249.516H210.83C210.329 250.147 209.811 250.587 209.277 250.834C208.75 251.075 208.06 251.195 207.207 251.195C206.159 251.195 205.332 250.896 204.727 250.297C204.128 249.698 203.828 248.845 203.828 247.738C203.828 246.579 204.232 245.727 205.039 245.18C205.853 244.626 207.077 244.32 208.711 244.262L210.605 244.203V243.725C210.605 242.618 210.039 242.064 208.906 242.064C208.034 242.064 207.008 242.328 205.83 242.855L204.844 240.844C206.1 240.186 207.493 239.857 209.023 239.857C210.488 239.857 211.611 240.176 212.393 240.814C213.174 241.452 213.564 242.423 213.564 243.725V251H211.484ZM210.605 245.941L209.453 245.98C208.587 246.007 207.943 246.163 207.52 246.449C207.096 246.736 206.885 247.172 206.885 247.758C206.885 248.598 207.367 249.018 208.33 249.018C209.02 249.018 209.57 248.819 209.98 248.422C210.397 248.025 210.605 247.497 210.605 246.84V245.941ZM221.24 248.822C221.761 248.822 222.386 248.708 223.115 248.48V250.697C222.373 251.029 221.462 251.195 220.381 251.195C219.189 251.195 218.32 250.896 217.773 250.297C217.233 249.691 216.963 248.786 216.963 247.582V242.318H215.537V241.059L217.178 240.062L218.037 237.758H219.941V240.082H222.998V242.318H219.941V247.582C219.941 248.005 220.059 248.318 220.293 248.52C220.534 248.721 220.85 248.822 221.24 248.822ZM225.205 237.26C225.205 236.29 225.745 235.805 226.826 235.805C227.907 235.805 228.447 236.29 228.447 237.26C228.447 237.722 228.311 238.083 228.037 238.344C227.77 238.598 227.367 238.725 226.826 238.725C225.745 238.725 225.205 238.236 225.205 237.26ZM228.311 251H225.332V240.082H228.311V251ZM233.818 245.521C233.818 246.602 233.994 247.419 234.346 247.973C234.704 248.526 235.283 248.803 236.084 248.803C236.878 248.803 237.448 248.529 237.793 247.982C238.145 247.429 238.32 246.609 238.32 245.521C238.32 244.441 238.145 243.63 237.793 243.09C237.441 242.549 236.865 242.279 236.064 242.279C235.27 242.279 234.697 242.549 234.346 243.09C233.994 243.624 233.818 244.434 233.818 245.521ZM241.367 245.521C241.367 247.299 240.898 248.689 239.961 249.691C239.023 250.694 237.718 251.195 236.045 251.195C234.997 251.195 234.072 250.967 233.271 250.512C232.471 250.049 231.855 249.389 231.426 248.529C230.996 247.67 230.781 246.667 230.781 245.521C230.781 243.738 231.247 242.351 232.178 241.361C233.109 240.372 234.417 239.877 236.104 239.877C237.152 239.877 238.076 240.105 238.877 240.561C239.678 241.016 240.293 241.671 240.723 242.523C241.152 243.376 241.367 244.376 241.367 245.521ZM253.906 251H250.928V244.623C250.928 243.835 250.788 243.246 250.508 242.855C250.228 242.458 249.782 242.26 249.17 242.26C248.337 242.26 247.734 242.54 247.363 243.1C246.992 243.653 246.807 244.574 246.807 245.863V251H243.828V240.082H246.104L246.504 241.479H246.67C247.002 240.951 247.458 240.554 248.037 240.287C248.623 240.014 249.287 239.877 250.029 239.877C251.299 239.877 252.262 240.222 252.92 240.912C253.577 241.596 253.906 242.585 253.906 243.881V251Z" fill="black"/>
<path d="M77.8613 447.037C76.722 447.037 75.8398 447.467 75.2148 448.326C74.5898 449.179 74.2773 450.37 74.2773 451.9C74.2773 455.084 75.472 456.676 77.8613 456.676C78.8639 456.676 80.0781 456.425 81.5039 455.924V458.463C80.332 458.951 79.0234 459.195 77.5781 459.195C75.5013 459.195 73.9128 458.567 72.8125 457.311C71.7122 456.048 71.1621 454.238 71.1621 451.881C71.1621 450.396 71.4323 449.098 71.9727 447.984C72.513 446.865 73.2878 446.008 74.2969 445.416C75.3125 444.817 76.5007 444.518 77.8613 444.518C79.248 444.518 80.6413 444.853 82.041 445.523L81.0645 447.984C80.5306 447.73 79.9935 447.509 79.4531 447.32C78.9128 447.132 78.3822 447.037 77.8613 447.037ZM86.6895 453.521C86.6895 454.602 86.8652 455.419 87.2168 455.973C87.5749 456.526 88.1543 456.803 88.9551 456.803C89.7493 456.803 90.319 456.529 90.6641 455.982C91.0156 455.429 91.1914 454.609 91.1914 453.521C91.1914 452.441 91.0156 451.63 90.6641 451.09C90.3125 450.549 89.7363 450.279 88.9355 450.279C88.1413 450.279 87.5684 450.549 87.2168 451.09C86.8652 451.624 86.6895 452.434 86.6895 453.521ZM94.2383 453.521C94.2383 455.299 93.7695 456.689 92.832 457.691C91.8945 458.694 90.5892 459.195 88.916 459.195C87.8678 459.195 86.9434 458.967 86.1426 458.512C85.3418 458.049 84.7266 457.389 84.2969 456.529C83.8672 455.67 83.6523 454.667 83.6523 453.521C83.6523 451.738 84.1178 450.351 85.0488 449.361C85.9798 448.372 87.2884 447.877 88.9746 447.877C90.0228 447.877 90.9473 448.105 91.748 448.561C92.5488 449.016 93.1641 449.671 93.5938 450.523C94.0234 451.376 94.2383 452.376 94.2383 453.521ZM106.475 459H103.496V452.623C103.496 451.835 103.363 451.246 103.096 450.855C102.835 450.458 102.422 450.26 101.855 450.26C101.094 450.26 100.54 450.54 100.195 451.1C99.8503 451.66 99.6777 452.581 99.6777 453.863V459H96.6992V448.082H98.9746L99.375 449.479H99.541C99.834 448.977 100.257 448.587 100.811 448.307C101.364 448.02 101.999 447.877 102.715 447.877C104.349 447.877 105.456 448.411 106.035 449.479H106.299C106.592 448.971 107.021 448.577 107.588 448.297C108.161 448.017 108.805 447.877 109.521 447.877C110.758 447.877 111.693 448.196 112.324 448.834C112.962 449.465 113.281 450.481 113.281 451.881V459H110.293V452.623C110.293 451.835 110.16 451.246 109.893 450.855C109.632 450.458 109.219 450.26 108.652 450.26C107.923 450.26 107.376 450.52 107.012 451.041C106.654 451.562 106.475 452.389 106.475 453.521V459ZM122.344 459.195C121.061 459.195 120.055 458.73 119.326 457.799H119.17C119.274 458.71 119.326 459.238 119.326 459.381V463.805H116.348V448.082H118.77L119.189 449.498H119.326C120.023 448.417 121.055 447.877 122.422 447.877C123.711 447.877 124.72 448.375 125.449 449.371C126.178 450.367 126.543 451.751 126.543 453.521C126.543 454.687 126.37 455.699 126.025 456.559C125.687 457.418 125.202 458.072 124.57 458.521C123.939 458.971 123.197 459.195 122.344 459.195ZM121.465 450.26C120.729 450.26 120.192 450.488 119.854 450.943C119.515 451.393 119.339 452.138 119.326 453.18V453.502C119.326 454.674 119.499 455.514 119.844 456.021C120.195 456.529 120.749 456.783 121.504 456.783C122.839 456.783 123.506 455.683 123.506 453.482C123.506 452.408 123.34 451.604 123.008 451.07C122.682 450.53 122.168 450.26 121.465 450.26ZM131.982 459H129.004V443.805H131.982V459ZM139.639 449.996C139.007 449.996 138.512 450.198 138.154 450.602C137.796 450.999 137.591 451.565 137.539 452.301H141.719C141.706 451.565 141.514 450.999 141.143 450.602C140.771 450.198 140.27 449.996 139.639 449.996ZM140.059 459.195C138.301 459.195 136.927 458.71 135.938 457.74C134.948 456.77 134.453 455.396 134.453 453.619C134.453 451.79 134.909 450.377 135.82 449.381C136.738 448.378 138.005 447.877 139.619 447.877C141.162 447.877 142.363 448.316 143.223 449.195C144.082 450.074 144.512 451.288 144.512 452.838V454.283H137.471C137.503 455.13 137.754 455.79 138.223 456.266C138.691 456.741 139.349 456.979 140.195 456.979C140.853 456.979 141.475 456.91 142.061 456.773C142.646 456.637 143.258 456.419 143.896 456.119V458.424C143.376 458.684 142.819 458.876 142.227 459C141.634 459.13 140.911 459.195 140.059 459.195ZM151.533 456.822C152.054 456.822 152.679 456.708 153.408 456.48V458.697C152.666 459.029 151.755 459.195 150.674 459.195C149.482 459.195 148.613 458.896 148.066 458.297C147.526 457.691 147.256 456.786 147.256 455.582V450.318H145.83V449.059L147.471 448.062L148.33 445.758H150.234V448.082H153.291V450.318H150.234V455.582C150.234 456.005 150.352 456.318 150.586 456.52C150.827 456.721 151.143 456.822 151.533 456.822ZM160.146 449.996C159.515 449.996 159.02 450.198 158.662 450.602C158.304 450.999 158.099 451.565 158.047 452.301H162.227C162.214 451.565 162.021 450.999 161.65 450.602C161.279 450.198 160.778 449.996 160.146 449.996ZM160.566 459.195C158.809 459.195 157.435 458.71 156.445 457.74C155.456 456.77 154.961 455.396 154.961 453.619C154.961 451.79 155.417 450.377 156.328 449.381C157.246 448.378 158.512 447.877 160.127 447.877C161.67 447.877 162.871 448.316 163.73 449.195C164.59 450.074 165.02 451.288 165.02 452.838V454.283H157.979C158.011 455.13 158.262 455.79 158.73 456.266C159.199 456.741 159.857 456.979 160.703 456.979C161.361 456.979 161.982 456.91 162.568 456.773C163.154 456.637 163.766 456.419 164.404 456.119V458.424C163.883 458.684 163.327 458.876 162.734 459C162.142 459.13 161.419 459.195 160.566 459.195ZM170.898 459.195C169.616 459.195 168.607 458.697 167.871 457.701C167.142 456.705 166.777 455.325 166.777 453.561C166.777 451.77 167.148 450.377 167.891 449.381C168.639 448.378 169.668 447.877 170.977 447.877C172.35 447.877 173.398 448.411 174.121 449.479H174.219C174.069 448.665 173.994 447.939 173.994 447.301V443.805H176.982V459H174.697L174.121 457.584H173.994C173.317 458.658 172.285 459.195 170.898 459.195ZM171.943 456.822C172.705 456.822 173.262 456.601 173.613 456.158C173.971 455.715 174.167 454.964 174.199 453.902V453.58C174.199 452.408 174.017 451.568 173.652 451.061C173.294 450.553 172.708 450.299 171.895 450.299C171.23 450.299 170.713 450.582 170.342 451.148C169.977 451.708 169.795 452.525 169.795 453.6C169.795 454.674 169.98 455.481 170.352 456.021C170.723 456.555 171.253 456.822 171.943 456.822Z" fill="black"/>
<path d="M52.8594 311H46.6172V299.578H52.8594V300.312H47.4141V304.633H52.5547V305.367H47.4141V310.266H52.8594V311ZM61.1719 311V305.492C61.1719 304.638 60.9922 304.018 60.6328 303.633C60.2734 303.242 59.7161 303.047 58.9609 303.047C57.9453 303.047 57.2005 303.305 56.7266 303.82C56.2578 304.331 56.0234 305.161 56.0234 306.312V311H55.25V302.508H55.9062L56.0547 303.672H56.1016C56.6536 302.786 57.6354 302.344 59.0469 302.344C60.974 302.344 61.9375 303.378 61.9375 305.445V311H61.1719ZM66.9297 310.469C67.4193 310.469 67.8464 310.427 68.2109 310.344V310.969C67.8359 311.094 67.4036 311.156 66.9141 311.156C66.1641 311.156 65.6094 310.956 65.25 310.555C64.8958 310.154 64.7188 309.523 64.7188 308.664V303.18H63.4609V302.727L64.7188 302.375L65.1094 300.453H65.5078V302.508H68V303.18H65.5078V308.555C65.5078 309.206 65.6224 309.688 65.8516 310C66.0807 310.312 66.4401 310.469 66.9297 310.469ZM73.4766 311.156C72.2422 311.156 71.2786 310.776 70.5859 310.016C69.8984 309.255 69.5547 308.19 69.5547 306.82C69.5547 305.466 69.888 304.383 70.5547 303.57C71.2214 302.753 72.1198 302.344 73.25 302.344C74.25 302.344 75.0391 302.693 75.6172 303.391C76.1953 304.089 76.4844 305.036 76.4844 306.234V306.859H70.3672C70.3776 308.026 70.6484 308.917 71.1797 309.531C71.7161 310.146 72.4818 310.453 73.4766 310.453C73.9609 310.453 74.3854 310.419 74.75 310.352C75.1198 310.284 75.5859 310.138 76.1484 309.914V310.617C75.6693 310.826 75.2266 310.966 74.8203 311.039C74.4141 311.117 73.9661 311.156 73.4766 311.156ZM73.25 303.031C72.4323 303.031 71.776 303.302 71.2812 303.844C70.7865 304.38 70.4974 305.156 70.4141 306.172H75.6641C75.6641 305.188 75.4505 304.419 75.0234 303.867C74.5964 303.31 74.0052 303.031 73.25 303.031ZM82.1719 302.344C82.5312 302.344 82.9167 302.38 83.3281 302.453L83.1797 303.195C82.8255 303.107 82.4583 303.062 82.0781 303.062C81.3542 303.062 80.7604 303.37 80.2969 303.984C79.8333 304.599 79.6016 305.375 79.6016 306.312V311H78.8281V302.508H79.4844L79.5625 304.039H79.6172C79.9661 303.414 80.3385 302.977 80.7344 302.727C81.1302 302.471 81.6094 302.344 82.1719 302.344ZM91.4609 310.469C91.9505 310.469 92.3776 310.427 92.7422 310.344V310.969C92.3672 311.094 91.9349 311.156 91.4453 311.156C90.6953 311.156 90.1406 310.956 89.7812 310.555C89.4271 310.154 89.25 309.523 89.25 308.664V303.18H87.9922V302.727L89.25 302.375L89.6406 300.453H90.0391V302.508H92.5312V303.18H90.0391V308.555C90.0391 309.206 90.1536 309.688 90.3828 310C90.612 310.312 90.9714 310.469 91.4609 310.469ZM100.5 311V305.492C100.5 304.638 100.32 304.018 99.9609 303.633C99.6016 303.242 99.0443 303.047 98.2891 303.047C97.2734 303.047 96.5286 303.305 96.0547 303.82C95.5859 304.331 95.3516 305.161 95.3516 306.312V311H94.5781V298.844H95.3516V302.711L95.3125 303.797H95.3672C95.6849 303.286 96.0859 302.917 96.5703 302.688C97.0547 302.458 97.6562 302.344 98.375 302.344C100.302 302.344 101.266 303.378 101.266 305.445V311H100.5ZM107.445 311.156C106.211 311.156 105.247 310.776 104.555 310.016C103.867 309.255 103.523 308.19 103.523 306.82C103.523 305.466 103.857 304.383 104.523 303.57C105.19 302.753 106.089 302.344 107.219 302.344C108.219 302.344 109.008 302.693 109.586 303.391C110.164 304.089 110.453 305.036 110.453 306.234V306.859H104.336C104.346 308.026 104.617 308.917 105.148 309.531C105.685 310.146 106.451 310.453 107.445 310.453C107.93 310.453 108.354 310.419 108.719 310.352C109.089 310.284 109.555 310.138 110.117 309.914V310.617C109.638 310.826 109.195 310.966 108.789 311.039C108.383 311.117 107.935 311.156 107.445 311.156ZM107.219 303.031C106.401 303.031 105.745 303.302 105.25 303.844C104.755 304.38 104.466 305.156 104.383 306.172H109.633C109.633 305.188 109.419 304.419 108.992 303.867C108.565 303.31 107.974 303.031 107.219 303.031ZM127.562 311V305.43C127.562 304.602 127.401 303.997 127.078 303.617C126.755 303.237 126.26 303.047 125.594 303.047C124.724 303.047 124.081 303.286 123.664 303.766C123.247 304.245 123.039 304.997 123.039 306.023V311H122.25V305.195C122.25 303.763 121.594 303.047 120.281 303.047C119.391 303.047 118.742 303.307 118.336 303.828C117.93 304.344 117.727 305.172 117.727 306.312V311H116.953V302.508H117.594L117.758 303.672H117.805C118.039 303.25 118.372 302.924 118.805 302.695C119.237 302.461 119.714 302.344 120.234 302.344C121.573 302.344 122.432 302.846 122.812 303.852H122.844C123.12 303.367 123.49 302.995 123.953 302.734C124.422 302.474 124.953 302.344 125.547 302.344C126.474 302.344 127.169 302.591 127.633 303.086C128.096 303.581 128.328 304.367 128.328 305.445V311H127.562ZM136.234 311L136.039 309.656H135.977C135.549 310.203 135.109 310.591 134.656 310.82C134.208 311.044 133.677 311.156 133.062 311.156C132.229 311.156 131.581 310.943 131.117 310.516C130.654 310.089 130.422 309.497 130.422 308.742C130.422 307.914 130.766 307.271 131.453 306.812C132.146 306.354 133.146 306.112 134.453 306.086L136.07 306.039V305.477C136.07 304.669 135.906 304.06 135.578 303.648C135.25 303.237 134.721 303.031 133.992 303.031C133.206 303.031 132.391 303.25 131.547 303.688L131.258 303.016C132.19 302.578 133.112 302.359 134.023 302.359C134.956 302.359 135.651 302.602 136.109 303.086C136.573 303.57 136.805 304.326 136.805 305.352V311H136.234ZM133.109 310.453C134.016 310.453 134.729 310.195 135.25 309.68C135.776 309.159 136.039 308.438 136.039 307.516V306.68L134.555 306.742C133.362 306.799 132.51 306.987 132 307.305C131.495 307.617 131.242 308.107 131.242 308.773C131.242 309.305 131.404 309.719 131.727 310.016C132.055 310.307 132.516 310.453 133.109 310.453ZM140.32 307.273L144.656 302.508H145.594L142.25 306.133L145.883 311H144.953L141.727 306.711L140.336 307.977V311H139.562V298.844H140.336V304.938L140.281 307.273H140.32ZM150.742 311.156C149.508 311.156 148.544 310.776 147.852 310.016C147.164 309.255 146.82 308.19 146.82 306.82C146.82 305.466 147.154 304.383 147.82 303.57C148.487 302.753 149.385 302.344 150.516 302.344C151.516 302.344 152.305 302.693 152.883 303.391C153.461 304.089 153.75 305.036 153.75 306.234V306.859H147.633C147.643 308.026 147.914 308.917 148.445 309.531C148.982 310.146 149.747 310.453 150.742 310.453C151.227 310.453 151.651 310.419 152.016 310.352C152.385 310.284 152.852 310.138 153.414 309.914V310.617C152.935 310.826 152.492 310.966 152.086 311.039C151.68 311.117 151.232 311.156 150.742 311.156ZM150.516 303.031C149.698 303.031 149.042 303.302 148.547 303.844C148.052 304.38 147.763 305.156 147.68 306.172H152.93C152.93 305.188 152.716 304.419 152.289 303.867C151.862 303.31 151.271 303.031 150.516 303.031ZM156.977 309.141L157.07 309.305C156.68 310.685 156.227 311.938 155.711 313.062H155.203C155.604 311.63 155.891 310.323 156.062 309.141H156.977ZM174.297 311V305.43C174.297 304.602 174.135 303.997 173.812 303.617C173.49 303.237 172.995 303.047 172.328 303.047C171.458 303.047 170.815 303.286 170.398 303.766C169.982 304.245 169.773 304.997 169.773 306.023V311H168.984V305.195C168.984 303.763 168.328 303.047 167.016 303.047C166.125 303.047 165.477 303.307 165.07 303.828C164.664 304.344 164.461 305.172 164.461 306.312V311H163.688V302.508H164.328L164.492 303.672H164.539C164.773 303.25 165.107 302.924 165.539 302.695C165.971 302.461 166.448 302.344 166.969 302.344C168.307 302.344 169.167 302.846 169.547 303.852H169.578C169.854 303.367 170.224 302.995 170.688 302.734C171.156 302.474 171.688 302.344 172.281 302.344C173.208 302.344 173.904 302.591 174.367 303.086C174.831 303.581 175.062 304.367 175.062 305.445V311H174.297ZM184.836 306.742C184.836 308.128 184.5 309.211 183.828 309.992C183.156 310.768 182.229 311.156 181.047 311.156C180.302 311.156 179.646 310.977 179.078 310.617C178.51 310.258 178.076 309.742 177.773 309.07C177.471 308.398 177.32 307.622 177.32 306.742C177.32 305.357 177.656 304.279 178.328 303.508C179 302.732 179.922 302.344 181.094 302.344C182.26 302.344 183.174 302.737 183.836 303.523C184.503 304.305 184.836 305.378 184.836 306.742ZM178.133 306.742C178.133 307.909 178.388 308.82 178.898 309.477C179.414 310.128 180.141 310.453 181.078 310.453C182.016 310.453 182.74 310.128 183.25 309.477C183.766 308.82 184.023 307.909 184.023 306.742C184.023 305.57 183.763 304.661 183.242 304.016C182.727 303.37 182 303.047 181.062 303.047C180.125 303.047 179.401 303.37 178.891 304.016C178.385 304.656 178.133 305.565 178.133 306.742ZM190.297 302.344C190.911 302.344 191.443 302.456 191.891 302.68C192.339 302.904 192.74 303.286 193.094 303.828H193.141C193.109 303.172 193.094 302.529 193.094 301.898V298.844H193.859V311H193.352L193.156 309.703H193.094C192.448 310.672 191.521 311.156 190.312 311.156C189.141 311.156 188.245 310.792 187.625 310.062C187.005 309.333 186.695 308.271 186.695 306.875C186.695 305.406 187.003 304.284 187.617 303.508C188.232 302.732 189.125 302.344 190.297 302.344ZM190.297 303.047C189.37 303.047 188.672 303.372 188.203 304.023C187.74 304.674 187.508 305.62 187.508 306.859C187.508 309.266 188.443 310.469 190.312 310.469C191.271 310.469 191.974 310.19 192.422 309.633C192.87 309.076 193.094 308.156 193.094 306.875V306.742C193.094 305.43 192.872 304.487 192.43 303.914C191.992 303.336 191.281 303.047 190.297 303.047ZM200.148 311.156C198.914 311.156 197.951 310.776 197.258 310.016C196.57 309.255 196.227 308.19 196.227 306.82C196.227 305.466 196.56 304.383 197.227 303.57C197.893 302.753 198.792 302.344 199.922 302.344C200.922 302.344 201.711 302.693 202.289 303.391C202.867 304.089 203.156 305.036 203.156 306.234V306.859H197.039C197.049 308.026 197.32 308.917 197.852 309.531C198.388 310.146 199.154 310.453 200.148 310.453C200.633 310.453 201.057 310.419 201.422 310.352C201.792 310.284 202.258 310.138 202.82 309.914V310.617C202.341 310.826 201.898 310.966 201.492 311.039C201.086 311.117 200.638 311.156 200.148 311.156ZM199.922 303.031C199.104 303.031 198.448 303.302 197.953 303.844C197.458 304.38 197.169 305.156 197.086 306.172H202.336C202.336 305.188 202.122 304.419 201.695 303.867C201.268 303.31 200.677 303.031 199.922 303.031ZM206.273 311H205.5V298.844H206.273V311ZM210.008 309.141L210.102 309.305C209.711 310.685 209.258 311.938 208.742 313.062H208.234C208.635 311.63 208.922 310.323 209.094 309.141H210.008ZM215.297 302.508H216.094L217.891 307.273C218.438 308.737 218.784 309.724 218.93 310.234H218.977C219.195 309.562 219.552 308.56 220.047 307.227L221.844 302.508H222.641L218.836 312.375C218.529 313.177 218.271 313.719 218.062 314C217.854 314.281 217.609 314.492 217.328 314.633C217.052 314.773 216.716 314.844 216.32 314.844C216.023 314.844 215.693 314.789 215.328 314.68V314.008C215.63 314.091 215.956 314.133 216.305 314.133C216.57 314.133 216.805 314.07 217.008 313.945C217.211 313.82 217.393 313.625 217.555 313.359C217.721 313.099 217.911 312.682 218.125 312.109C218.344 311.542 218.484 311.172 218.547 311L215.297 302.508ZM227.492 311.156C226.258 311.156 225.294 310.776 224.602 310.016C223.914 309.255 223.57 308.19 223.57 306.82C223.57 305.466 223.904 304.383 224.57 303.57C225.237 302.753 226.135 302.344 227.266 302.344C228.266 302.344 229.055 302.693 229.633 303.391C230.211 304.089 230.5 305.036 230.5 306.234V306.859H224.383C224.393 308.026 224.664 308.917 225.195 309.531C225.732 310.146 226.497 310.453 227.492 310.453C227.977 310.453 228.401 310.419 228.766 310.352C229.135 310.284 229.602 310.138 230.164 309.914V310.617C229.685 310.826 229.242 310.966 228.836 311.039C228.43 311.117 227.982 311.156 227.492 311.156ZM227.266 303.031C226.448 303.031 225.792 303.302 225.297 303.844C224.802 304.38 224.513 305.156 224.43 306.172H229.68C229.68 305.188 229.466 304.419 229.039 303.867C228.612 303.31 228.021 303.031 227.266 303.031ZM238 311L237.805 309.656H237.742C237.315 310.203 236.875 310.591 236.422 310.82C235.974 311.044 235.443 311.156 234.828 311.156C233.995 311.156 233.346 310.943 232.883 310.516C232.419 310.089 232.188 309.497 232.188 308.742C232.188 307.914 232.531 307.271 233.219 306.812C233.911 306.354 234.911 306.112 236.219 306.086L237.836 306.039V305.477C237.836 304.669 237.672 304.06 237.344 303.648C237.016 303.237 236.487 303.031 235.758 303.031C234.971 303.031 234.156 303.25 233.312 303.688L233.023 303.016C233.956 302.578 234.878 302.359 235.789 302.359C236.721 302.359 237.417 302.602 237.875 303.086C238.339 303.57 238.57 304.326 238.57 305.352V311H238ZM234.875 310.453C235.781 310.453 236.495 310.195 237.016 309.68C237.542 309.159 237.805 308.438 237.805 307.516V306.68L236.32 306.742C235.128 306.799 234.276 306.987 233.766 307.305C233.26 307.617 233.008 308.107 233.008 308.773C233.008 309.305 233.169 309.719 233.492 310.016C233.82 310.307 234.281 310.453 234.875 310.453ZM244.672 302.344C245.031 302.344 245.417 302.38 245.828 302.453L245.68 303.195C245.326 303.107 244.958 303.062 244.578 303.062C243.854 303.062 243.26 303.37 242.797 303.984C242.333 304.599 242.102 305.375 242.102 306.312V311H241.328V302.508H241.984L242.062 304.039H242.117C242.466 303.414 242.839 302.977 243.234 302.727C243.63 302.471 244.109 302.344 244.672 302.344ZM256.875 311L256.68 309.656H256.617C256.19 310.203 255.75 310.591 255.297 310.82C254.849 311.044 254.318 311.156 253.703 311.156C252.87 311.156 252.221 310.943 251.758 310.516C251.294 310.089 251.062 309.497 251.062 308.742C251.062 307.914 251.406 307.271 252.094 306.812C252.786 306.354 253.786 306.112 255.094 306.086L256.711 306.039V305.477C256.711 304.669 256.547 304.06 256.219 303.648C255.891 303.237 255.362 303.031 254.633 303.031C253.846 303.031 253.031 303.25 252.188 303.688L251.898 303.016C252.831 302.578 253.753 302.359 254.664 302.359C255.596 302.359 256.292 302.602 256.75 303.086C257.214 303.57 257.445 304.326 257.445 305.352V311H256.875ZM253.75 310.453C254.656 310.453 255.37 310.195 255.891 309.68C256.417 309.159 256.68 308.438 256.68 307.516V306.68L255.195 306.742C254.003 306.799 253.151 306.987 252.641 307.305C252.135 307.617 251.883 308.107 251.883 308.773C251.883 309.305 252.044 309.719 252.367 310.016C252.695 310.307 253.156 310.453 253.75 310.453ZM266.125 311V305.492C266.125 304.638 265.945 304.018 265.586 303.633C265.227 303.242 264.669 303.047 263.914 303.047C262.898 303.047 262.154 303.305 261.68 303.82C261.211 304.331 260.977 305.161 260.977 306.312V311H260.203V302.508H260.859L261.008 303.672H261.055C261.607 302.786 262.589 302.344 264 302.344C265.927 302.344 266.891 303.378 266.891 305.445V311H266.125ZM272.75 302.344C273.365 302.344 273.896 302.456 274.344 302.68C274.792 302.904 275.193 303.286 275.547 303.828H275.594C275.562 303.172 275.547 302.529 275.547 301.898V298.844H276.312V311H275.805L275.609 309.703H275.547C274.901 310.672 273.974 311.156 272.766 311.156C271.594 311.156 270.698 310.792 270.078 310.062C269.458 309.333 269.148 308.271 269.148 306.875C269.148 305.406 269.456 304.284 270.07 303.508C270.685 302.732 271.578 302.344 272.75 302.344ZM272.75 303.047C271.823 303.047 271.125 303.372 270.656 304.023C270.193 304.674 269.961 305.62 269.961 306.859C269.961 309.266 270.896 310.469 272.766 310.469C273.724 310.469 274.427 310.19 274.875 309.633C275.323 309.076 275.547 308.156 275.547 306.875V306.742C275.547 305.43 275.326 304.487 274.883 303.914C274.445 303.336 273.734 303.047 272.75 303.047ZM53.4453 328.742C53.4453 330.128 53.1094 331.211 52.4375 331.992C51.7656 332.768 50.8385 333.156 49.6562 333.156C48.9115 333.156 48.2552 332.977 47.6875 332.617C47.1198 332.258 46.6849 331.742 46.3828 331.07C46.0807 330.398 45.9297 329.622 45.9297 328.742C45.9297 327.357 46.2656 326.279 46.9375 325.508C47.6094 324.732 48.5312 324.344 49.7031 324.344C50.8698 324.344 51.7839 324.737 52.4453 325.523C53.112 326.305 53.4453 327.378 53.4453 328.742ZM46.7422 328.742C46.7422 329.909 46.9974 330.82 47.5078 331.477C48.0234 332.128 48.75 332.453 49.6875 332.453C50.625 332.453 51.349 332.128 51.8594 331.477C52.375 330.82 52.6328 329.909 52.6328 328.742C52.6328 327.57 52.3724 326.661 51.8516 326.016C51.3359 325.37 50.6094 325.047 49.6719 325.047C48.7344 325.047 48.0104 325.37 47.5 326.016C46.9948 326.656 46.7422 327.565 46.7422 328.742ZM58.0391 332.469C58.5286 332.469 58.9557 332.427 59.3203 332.344V332.969C58.9453 333.094 58.513 333.156 58.0234 333.156C57.2734 333.156 56.7188 332.956 56.3594 332.555C56.0052 332.154 55.8281 331.523 55.8281 330.664V325.18H54.5703V324.727L55.8281 324.375L56.2188 322.453H56.6172V324.508H59.1094V325.18H56.6172V330.555C56.6172 331.206 56.7318 331.688 56.9609 332C57.1901 332.312 57.5495 332.469 58.0391 332.469ZM67.0781 333V327.492C67.0781 326.638 66.8984 326.018 66.5391 325.633C66.1797 325.242 65.6224 325.047 64.8672 325.047C63.8516 325.047 63.1068 325.305 62.6328 325.82C62.1641 326.331 61.9297 327.161 61.9297 328.312V333H61.1562V320.844H61.9297V324.711L61.8906 325.797H61.9453C62.263 325.286 62.6641 324.917 63.1484 324.688C63.6328 324.458 64.2344 324.344 64.9531 324.344C66.8802 324.344 67.8438 325.378 67.8438 327.445V333H67.0781ZM74.0234 333.156C72.7891 333.156 71.8255 332.776 71.1328 332.016C70.4453 331.255 70.1016 330.19 70.1016 328.82C70.1016 327.466 70.4349 326.383 71.1016 325.57C71.7682 324.753 72.6667 324.344 73.7969 324.344C74.7969 324.344 75.5859 324.693 76.1641 325.391C76.7422 326.089 77.0312 327.036 77.0312 328.234V328.859H70.9141C70.9245 330.026 71.1953 330.917 71.7266 331.531C72.263 332.146 73.0286 332.453 74.0234 332.453C74.5078 332.453 74.9323 332.419 75.2969 332.352C75.6667 332.284 76.1328 332.138 76.6953 331.914V332.617C76.2161 332.826 75.7734 332.966 75.3672 333.039C74.9609 333.117 74.513 333.156 74.0234 333.156ZM73.7969 325.031C72.9792 325.031 72.3229 325.302 71.8281 325.844C71.3333 326.38 71.0443 327.156 70.9609 328.172H76.2109C76.2109 327.188 75.9974 326.419 75.5703 325.867C75.1432 325.31 74.5521 325.031 73.7969 325.031ZM82.7188 324.344C83.0781 324.344 83.4635 324.38 83.875 324.453L83.7266 325.195C83.3724 325.107 83.0052 325.062 82.625 325.062C81.901 325.062 81.3073 325.37 80.8438 325.984C80.3802 326.599 80.1484 327.375 80.1484 328.312V333H79.375V324.508H80.0312L80.1094 326.039H80.1641C80.513 325.414 80.8854 324.977 81.2812 324.727C81.6771 324.471 82.1562 324.344 82.7188 324.344ZM95.9922 333H95.2188V324.508H95.9922V333ZM95.1094 322.148C95.1094 321.648 95.2734 321.398 95.6016 321.398C95.763 321.398 95.888 321.464 95.9766 321.594C96.0703 321.724 96.1172 321.909 96.1172 322.148C96.1172 322.383 96.0703 322.568 95.9766 322.703C95.888 322.839 95.763 322.906 95.6016 322.906C95.2734 322.906 95.1094 322.654 95.1094 322.148ZM104.766 333V327.492C104.766 326.638 104.586 326.018 104.227 325.633C103.867 325.242 103.31 325.047 102.555 325.047C101.539 325.047 100.794 325.305 100.32 325.82C99.8516 326.331 99.6172 327.161 99.6172 328.312V333H98.8438V324.508H99.5L99.6484 325.672H99.6953C100.247 324.786 101.229 324.344 102.641 324.344C104.568 324.344 105.531 325.378 105.531 327.445V333H104.766ZM111.438 325.18H109.438V333H108.664V325.18H107.086V324.727L108.664 324.438V323.781C108.664 322.74 108.854 321.977 109.234 321.492C109.62 321.003 110.247 320.758 111.117 320.758C111.586 320.758 112.055 320.828 112.523 320.969L112.344 321.641C111.927 321.51 111.513 321.445 111.102 321.445C110.497 321.445 110.068 321.625 109.812 321.984C109.562 322.339 109.438 322.917 109.438 323.719V324.508H111.438V325.18ZM120.102 328.742C120.102 330.128 119.766 331.211 119.094 331.992C118.422 332.768 117.495 333.156 116.312 333.156C115.568 333.156 114.911 332.977 114.344 332.617C113.776 332.258 113.341 331.742 113.039 331.07C112.737 330.398 112.586 329.622 112.586 328.742C112.586 327.357 112.922 326.279 113.594 325.508C114.266 324.732 115.188 324.344 116.359 324.344C117.526 324.344 118.44 324.737 119.102 325.523C119.768 326.305 120.102 327.378 120.102 328.742ZM113.398 328.742C113.398 329.909 113.654 330.82 114.164 331.477C114.68 332.128 115.406 332.453 116.344 332.453C117.281 332.453 118.005 332.128 118.516 331.477C119.031 330.82 119.289 329.909 119.289 328.742C119.289 327.57 119.029 326.661 118.508 326.016C117.992 325.37 117.266 325.047 116.328 325.047C115.391 325.047 114.667 325.37 114.156 326.016C113.651 326.656 113.398 327.565 113.398 328.742ZM125.797 324.344C126.156 324.344 126.542 324.38 126.953 324.453L126.805 325.195C126.451 325.107 126.083 325.062 125.703 325.062C124.979 325.062 124.385 325.37 123.922 325.984C123.458 326.599 123.227 327.375 123.227 328.312V333H122.453V324.508H123.109L123.188 326.039H123.242C123.591 325.414 123.964 324.977 124.359 324.727C124.755 324.471 125.234 324.344 125.797 324.344ZM139.297 333V327.43C139.297 326.602 139.135 325.997 138.812 325.617C138.49 325.237 137.995 325.047 137.328 325.047C136.458 325.047 135.815 325.286 135.398 325.766C134.982 326.245 134.773 326.997 134.773 328.023V333H133.984V327.195C133.984 325.763 133.328 325.047 132.016 325.047C131.125 325.047 130.477 325.307 130.07 325.828C129.664 326.344 129.461 327.172 129.461 328.312V333H128.688V324.508H129.328L129.492 325.672H129.539C129.773 325.25 130.107 324.924 130.539 324.695C130.971 324.461 131.448 324.344 131.969 324.344C133.307 324.344 134.167 324.846 134.547 325.852H134.578C134.854 325.367 135.224 324.995 135.688 324.734C136.156 324.474 136.688 324.344 137.281 324.344C138.208 324.344 138.904 324.591 139.367 325.086C139.831 325.581 140.062 326.367 140.062 327.445V333H139.297ZM147.969 333L147.773 331.656H147.711C147.284 332.203 146.844 332.591 146.391 332.82C145.943 333.044 145.411 333.156 144.797 333.156C143.964 333.156 143.315 332.943 142.852 332.516C142.388 332.089 142.156 331.497 142.156 330.742C142.156 329.914 142.5 329.271 143.188 328.812C143.88 328.354 144.88 328.112 146.188 328.086L147.805 328.039V327.477C147.805 326.669 147.641 326.06 147.312 325.648C146.984 325.237 146.456 325.031 145.727 325.031C144.94 325.031 144.125 325.25 143.281 325.688L142.992 325.016C143.924 324.578 144.846 324.359 145.758 324.359C146.69 324.359 147.385 324.602 147.844 325.086C148.307 325.57 148.539 326.326 148.539 327.352V333H147.969ZM144.844 332.453C145.75 332.453 146.464 332.195 146.984 331.68C147.51 331.159 147.773 330.438 147.773 329.516V328.68L146.289 328.742C145.096 328.799 144.245 328.987 143.734 329.305C143.229 329.617 142.977 330.107 142.977 330.773C142.977 331.305 143.138 331.719 143.461 332.016C143.789 332.307 144.25 332.453 144.844 332.453ZM153.539 332.469C154.029 332.469 154.456 332.427 154.82 332.344V332.969C154.445 333.094 154.013 333.156 153.523 333.156C152.773 333.156 152.219 332.956 151.859 332.555C151.505 332.154 151.328 331.523 151.328 330.664V325.18H150.07V324.727L151.328 324.375L151.719 322.453H152.117V324.508H154.609V325.18H152.117V330.555C152.117 331.206 152.232 331.688 152.461 332C152.69 332.312 153.049 332.469 153.539 332.469ZM157.43 333H156.656V324.508H157.43V333ZM156.547 322.148C156.547 321.648 156.711 321.398 157.039 321.398C157.201 321.398 157.326 321.464 157.414 321.594C157.508 321.724 157.555 321.909 157.555 322.148C157.555 322.383 157.508 322.568 157.414 322.703C157.326 322.839 157.201 322.906 157.039 322.906C156.711 322.906 156.547 322.654 156.547 322.148ZM167.305 328.742C167.305 330.128 166.969 331.211 166.297 331.992C165.625 332.768 164.698 333.156 163.516 333.156C162.771 333.156 162.115 332.977 161.547 332.617C160.979 332.258 160.544 331.742 160.242 331.07C159.94 330.398 159.789 329.622 159.789 328.742C159.789 327.357 160.125 326.279 160.797 325.508C161.469 324.732 162.391 324.344 163.562 324.344C164.729 324.344 165.643 324.737 166.305 325.523C166.971 326.305 167.305 327.378 167.305 328.742ZM160.602 328.742C160.602 329.909 160.857 330.82 161.367 331.477C161.883 332.128 162.609 332.453 163.547 332.453C164.484 332.453 165.208 332.128 165.719 331.477C166.234 330.82 166.492 329.909 166.492 328.742C166.492 327.57 166.232 326.661 165.711 326.016C165.195 325.37 164.469 325.047 163.531 325.047C162.594 325.047 161.87 325.37 161.359 326.016C160.854 326.656 160.602 327.565 160.602 328.742ZM175.578 333V327.492C175.578 326.638 175.398 326.018 175.039 325.633C174.68 325.242 174.122 325.047 173.367 325.047C172.352 325.047 171.607 325.305 171.133 325.82C170.664 326.331 170.43 327.161 170.43 328.312V333H169.656V324.508H170.312L170.461 325.672H170.508C171.06 324.786 172.042 324.344 173.453 324.344C175.38 324.344 176.344 325.378 176.344 327.445V333H175.578ZM188.406 333L188.211 331.656H188.148C187.721 332.203 187.281 332.591 186.828 332.82C186.38 333.044 185.849 333.156 185.234 333.156C184.401 333.156 183.753 332.943 183.289 332.516C182.826 332.089 182.594 331.497 182.594 330.742C182.594 329.914 182.938 329.271 183.625 328.812C184.318 328.354 185.318 328.112 186.625 328.086L188.242 328.039V327.477C188.242 326.669 188.078 326.06 187.75 325.648C187.422 325.237 186.893 325.031 186.164 325.031C185.378 325.031 184.562 325.25 183.719 325.688L183.43 325.016C184.362 324.578 185.284 324.359 186.195 324.359C187.128 324.359 187.823 324.602 188.281 325.086C188.745 325.57 188.977 326.326 188.977 327.352V333H188.406ZM185.281 332.453C186.188 332.453 186.901 332.195 187.422 331.68C187.948 331.159 188.211 330.438 188.211 329.516V328.68L186.727 328.742C185.534 328.799 184.682 328.987 184.172 329.305C183.667 329.617 183.414 330.107 183.414 330.773C183.414 331.305 183.576 331.719 183.898 332.016C184.227 332.307 184.688 332.453 185.281 332.453ZM195.32 324.344C196.508 324.344 197.401 324.719 198 325.469C198.604 326.214 198.906 327.305 198.906 328.742C198.906 330.154 198.589 331.242 197.953 332.008C197.323 332.773 196.435 333.156 195.289 333.156C194.685 333.156 194.141 333.031 193.656 332.781C193.172 332.531 192.789 332.177 192.508 331.719H192.438L192.219 333H191.734V320.844H192.508V323.898C192.508 324.357 192.497 324.779 192.477 325.164L192.453 325.828H192.508C192.831 325.318 193.219 324.943 193.672 324.703C194.13 324.464 194.68 324.344 195.32 324.344ZM195.305 325.047C194.305 325.047 193.589 325.333 193.156 325.906C192.724 326.479 192.508 327.424 192.508 328.742V328.875C192.508 330.156 192.732 331.076 193.18 331.633C193.633 332.19 194.336 332.469 195.289 332.469C196.216 332.469 196.914 332.146 197.383 331.5C197.852 330.849 198.086 329.924 198.086 328.727C198.086 326.273 197.159 325.047 195.305 325.047ZM208.289 328.742C208.289 330.128 207.953 331.211 207.281 331.992C206.609 332.768 205.682 333.156 204.5 333.156C203.755 333.156 203.099 332.977 202.531 332.617C201.964 332.258 201.529 331.742 201.227 331.07C200.924 330.398 200.773 329.622 200.773 328.742C200.773 327.357 201.109 326.279 201.781 325.508C202.453 324.732 203.375 324.344 204.547 324.344C205.714 324.344 206.628 324.737 207.289 325.523C207.956 326.305 208.289 327.378 208.289 328.742ZM201.586 328.742C201.586 329.909 201.841 330.82 202.352 331.477C202.867 332.128 203.594 332.453 204.531 332.453C205.469 332.453 206.193 332.128 206.703 331.477C207.219 330.82 207.477 329.909 207.477 328.742C207.477 327.57 207.216 326.661 206.695 326.016C206.18 325.37 205.453 325.047 204.516 325.047C203.578 325.047 202.854 325.37 202.344 326.016C201.839 326.656 201.586 327.565 201.586 328.742ZM211.312 324.508V330.008C211.312 330.862 211.492 331.484 211.852 331.875C212.211 332.26 212.768 332.453 213.523 332.453C214.534 332.453 215.276 332.198 215.75 331.688C216.229 331.177 216.469 330.346 216.469 329.195V324.508H217.234V333H216.578L216.438 331.828H216.391C215.839 332.714 214.857 333.156 213.445 333.156C211.513 333.156 210.547 332.122 210.547 330.055V324.508H211.312ZM222.32 332.469C222.81 332.469 223.237 332.427 223.602 332.344V332.969C223.227 333.094 222.794 333.156 222.305 333.156C221.555 333.156 221 332.956 220.641 332.555C220.286 332.154 220.109 331.523 220.109 330.664V325.18H218.852V324.727L220.109 324.375L220.5 322.453H220.898V324.508H223.391V325.18H220.898V330.555C220.898 331.206 221.013 331.688 221.242 332C221.471 332.312 221.831 332.469 222.32 332.469ZM231.836 332.469C232.326 332.469 232.753 332.427 233.117 332.344V332.969C232.742 333.094 232.31 333.156 231.82 333.156C231.07 333.156 230.516 332.956 230.156 332.555C229.802 332.154 229.625 331.523 229.625 330.664V325.18H228.367V324.727L229.625 324.375L230.016 322.453H230.414V324.508H232.906V325.18H230.414V330.555C230.414 331.206 230.529 331.688 230.758 332C230.987 332.312 231.346 332.469 231.836 332.469ZM240.875 333V327.492C240.875 326.638 240.695 326.018 240.336 325.633C239.977 325.242 239.419 325.047 238.664 325.047C237.648 325.047 236.904 325.305 236.43 325.82C235.961 326.331 235.727 327.161 235.727 328.312V333H234.953V320.844H235.727V324.711L235.688 325.797H235.742C236.06 325.286 236.461 324.917 236.945 324.688C237.43 324.458 238.031 324.344 238.75 324.344C240.677 324.344 241.641 325.378 241.641 327.445V333H240.875ZM247.82 333.156C246.586 333.156 245.622 332.776 244.93 332.016C244.242 331.255 243.898 330.19 243.898 328.82C243.898 327.466 244.232 326.383 244.898 325.57C245.565 324.753 246.464 324.344 247.594 324.344C248.594 324.344 249.383 324.693 249.961 325.391C250.539 326.089 250.828 327.036 250.828 328.234V328.859H244.711C244.721 330.026 244.992 330.917 245.523 331.531C246.06 332.146 246.826 332.453 247.82 332.453C248.305 332.453 248.729 332.419 249.094 332.352C249.464 332.284 249.93 332.138 250.492 331.914V332.617C250.013 332.826 249.57 332.966 249.164 333.039C248.758 333.117 248.31 333.156 247.82 333.156ZM247.594 325.031C246.776 325.031 246.12 325.302 245.625 325.844C245.13 326.38 244.841 327.156 244.758 328.172H250.008C250.008 327.188 249.794 326.419 249.367 325.867C248.94 325.31 248.349 325.031 247.594 325.031ZM263.25 333V327.492C263.25 326.638 263.07 326.018 262.711 325.633C262.352 325.242 261.794 325.047 261.039 325.047C260.023 325.047 259.279 325.305 258.805 325.82C258.336 326.331 258.102 327.161 258.102 328.312V333H257.328V320.844H258.102V324.711L258.062 325.797H258.117C258.435 325.286 258.836 324.917 259.32 324.688C259.805 324.458 260.406 324.344 261.125 324.344C263.052 324.344 264.016 325.378 264.016 327.445V333H263.25ZM273.789 328.742C273.789 330.128 273.453 331.211 272.781 331.992C272.109 332.768 271.182 333.156 270 333.156C269.255 333.156 268.599 332.977 268.031 332.617C267.464 332.258 267.029 331.742 266.727 331.07C266.424 330.398 266.273 329.622 266.273 328.742C266.273 327.357 266.609 326.279 267.281 325.508C267.953 324.732 268.875 324.344 270.047 324.344C271.214 324.344 272.128 324.737 272.789 325.523C273.456 326.305 273.789 327.378 273.789 328.742ZM267.086 328.742C267.086 329.909 267.341 330.82 267.852 331.477C268.367 332.128 269.094 332.453 270.031 332.453C270.969 332.453 271.693 332.128 272.203 331.477C272.719 330.82 272.977 329.909 272.977 328.742C272.977 327.57 272.716 326.661 272.195 326.016C271.68 325.37 270.953 325.047 270.016 325.047C269.078 325.047 268.354 325.37 267.844 326.016C267.339 326.656 267.086 327.565 267.086 328.742ZM286.75 333V327.43C286.75 326.602 286.589 325.997 286.266 325.617C285.943 325.237 285.448 325.047 284.781 325.047C283.911 325.047 283.268 325.286 282.852 325.766C282.435 326.245 282.227 326.997 282.227 328.023V333H281.438V327.195C281.438 325.763 280.781 325.047 279.469 325.047C278.578 325.047 277.93 325.307 277.523 325.828C277.117 326.344 276.914 327.172 276.914 328.312V333H276.141V324.508H276.781L276.945 325.672H276.992C277.227 325.25 277.56 324.924 277.992 324.695C278.424 324.461 278.901 324.344 279.422 324.344C280.76 324.344 281.62 324.846 282 325.852H282.031C282.307 325.367 282.677 324.995 283.141 324.734C283.609 324.474 284.141 324.344 284.734 324.344C285.661 324.344 286.357 324.591 286.82 325.086C287.284 325.581 287.516 326.367 287.516 327.445V333H286.75ZM293.695 333.156C292.461 333.156 291.497 332.776 290.805 332.016C290.117 331.255 289.773 330.19 289.773 328.82C289.773 327.466 290.107 326.383 290.773 325.57C291.44 324.753 292.339 324.344 293.469 324.344C294.469 324.344 295.258 324.693 295.836 325.391C296.414 326.089 296.703 327.036 296.703 328.234V328.859H290.586C290.596 330.026 290.867 330.917 291.398 331.531C291.935 332.146 292.701 332.453 293.695 332.453C294.18 332.453 294.604 332.419 294.969 332.352C295.339 332.284 295.805 332.138 296.367 331.914V332.617C295.888 332.826 295.445 332.966 295.039 333.039C294.633 333.117 294.185 333.156 293.695 333.156ZM293.469 325.031C292.651 325.031 291.995 325.302 291.5 325.844C291.005 326.38 290.716 327.156 290.633 328.172H295.883C295.883 327.188 295.669 326.419 295.242 325.867C294.815 325.31 294.224 325.031 293.469 325.031ZM301.781 324.508H302.578L304.375 329.273C304.922 330.737 305.268 331.724 305.414 332.234H305.461C305.68 331.562 306.036 330.56 306.531 329.227L308.328 324.508H309.125L305.32 334.375C305.013 335.177 304.755 335.719 304.547 336C304.339 336.281 304.094 336.492 303.812 336.633C303.536 336.773 303.201 336.844 302.805 336.844C302.508 336.844 302.177 336.789 301.812 336.68V336.008C302.115 336.091 302.44 336.133 302.789 336.133C303.055 336.133 303.289 336.07 303.492 335.945C303.695 335.82 303.878 335.625 304.039 335.359C304.206 335.099 304.396 334.682 304.609 334.109C304.828 333.542 304.969 333.172 305.031 333L301.781 324.508ZM317.57 328.742C317.57 330.128 317.234 331.211 316.562 331.992C315.891 332.768 314.964 333.156 313.781 333.156C313.036 333.156 312.38 332.977 311.812 332.617C311.245 332.258 310.81 331.742 310.508 331.07C310.206 330.398 310.055 329.622 310.055 328.742C310.055 327.357 310.391 326.279 311.062 325.508C311.734 324.732 312.656 324.344 313.828 324.344C314.995 324.344 315.909 324.737 316.57 325.523C317.237 326.305 317.57 327.378 317.57 328.742ZM310.867 328.742C310.867 329.909 311.122 330.82 311.633 331.477C312.148 332.128 312.875 332.453 313.812 332.453C314.75 332.453 315.474 332.128 315.984 331.477C316.5 330.82 316.758 329.909 316.758 328.742C316.758 327.57 316.497 326.661 315.977 326.016C315.461 325.37 314.734 325.047 313.797 325.047C312.859 325.047 312.135 325.37 311.625 326.016C311.12 326.656 310.867 327.565 310.867 328.742ZM320.594 324.508V330.008C320.594 330.862 320.773 331.484 321.133 331.875C321.492 332.26 322.049 332.453 322.805 332.453C323.815 332.453 324.557 332.198 325.031 331.688C325.51 331.177 325.75 330.346 325.75 329.195V324.508H326.516V333H325.859L325.719 331.828H325.672C325.12 332.714 324.138 333.156 322.727 333.156C320.794 333.156 319.828 332.122 319.828 330.055V324.508H320.594ZM51.5781 355L51.3828 353.656H51.3203C50.8932 354.203 50.4531 354.591 50 354.82C49.5521 355.044 49.0208 355.156 48.4062 355.156C47.5729 355.156 46.9245 354.943 46.4609 354.516C45.9974 354.089 45.7656 353.497 45.7656 352.742C45.7656 351.914 46.1094 351.271 46.7969 350.812C47.4896 350.354 48.4896 350.112 49.7969 350.086L51.4141 350.039V349.477C51.4141 348.669 51.25 348.06 50.9219 347.648C50.5938 347.237 50.0651 347.031 49.3359 347.031C48.5495 347.031 47.7344 347.25 46.8906 347.688L46.6016 347.016C47.5339 346.578 48.4557 346.359 49.3672 346.359C50.2995 346.359 50.9948 346.602 51.4531 347.086C51.9167 347.57 52.1484 348.326 52.1484 349.352V355H51.5781ZM48.4531 354.453C49.3594 354.453 50.0729 354.195 50.5938 353.68C51.1198 353.159 51.3828 352.438 51.3828 351.516V350.68L49.8984 350.742C48.7057 350.799 47.8542 350.987 47.3438 351.305C46.8385 351.617 46.5859 352.107 46.5859 352.773C46.5859 353.305 46.7474 353.719 47.0703 354.016C47.3984 354.307 47.8594 354.453 48.4531 354.453ZM58.25 346.344C58.6094 346.344 58.9948 346.38 59.4062 346.453L59.2578 347.195C58.9036 347.107 58.5365 347.062 58.1562 347.062C57.4323 347.062 56.8385 347.37 56.375 347.984C55.9115 348.599 55.6797 349.375 55.6797 350.312V355H54.9062V346.508H55.5625L55.6406 348.039H55.6953C56.0443 347.414 56.4167 346.977 56.8125 346.727C57.2083 346.471 57.6875 346.344 58.25 346.344ZM64.5703 355.156C63.3359 355.156 62.3724 354.776 61.6797 354.016C60.9922 353.255 60.6484 352.19 60.6484 350.82C60.6484 349.466 60.9818 348.383 61.6484 347.57C62.3151 346.753 63.2135 346.344 64.3438 346.344C65.3438 346.344 66.1328 346.693 66.7109 347.391C67.2891 348.089 67.5781 349.036 67.5781 350.234V350.859H61.4609C61.4714 352.026 61.7422 352.917 62.2734 353.531C62.8099 354.146 63.5755 354.453 64.5703 354.453C65.0547 354.453 65.4792 354.419 65.8438 354.352C66.2135 354.284 66.6797 354.138 67.2422 353.914V354.617C66.763 354.826 66.3203 354.966 65.9141 355.039C65.5078 355.117 65.0599 355.156 64.5703 355.156ZM64.3438 347.031C63.526 347.031 62.8698 347.302 62.375 347.844C61.8802 348.38 61.5911 349.156 61.5078 350.172H66.7578C66.7578 349.188 66.5443 348.419 66.1172 347.867C65.6901 347.31 65.099 347.031 64.3438 347.031ZM82.6875 347.18H80.6875V355H79.9141V347.18H78.3359V346.727L79.9141 346.438V345.781C79.9141 344.74 80.1042 343.977 80.4844 343.492C80.8698 343.003 81.4974 342.758 82.3672 342.758C82.8359 342.758 83.3047 342.828 83.7734 342.969L83.5938 343.641C83.1771 343.51 82.763 343.445 82.3516 343.445C81.7474 343.445 81.3177 343.625 81.0625 343.984C80.8125 344.339 80.6875 344.917 80.6875 345.719V346.508H82.6875V347.18ZM85.1016 355H84.3281V346.508H85.1016V355ZM84.2188 344.148C84.2188 343.648 84.3828 343.398 84.7109 343.398C84.8724 343.398 84.9974 343.464 85.0859 343.594C85.1797 343.724 85.2266 343.909 85.2266 344.148C85.2266 344.383 85.1797 344.568 85.0859 344.703C84.9974 344.839 84.8724 344.906 84.7109 344.906C84.3828 344.906 84.2188 344.654 84.2188 344.148ZM93.875 355V349.492C93.875 348.638 93.6953 348.018 93.3359 347.633C92.9766 347.242 92.4193 347.047 91.6641 347.047C90.6484 347.047 89.9036 347.305 89.4297 347.82C88.9609 348.331 88.7266 349.161 88.7266 350.312V355H87.9531V346.508H88.6094L88.7578 347.672H88.8047C89.3568 346.786 90.3385 346.344 91.75 346.344C93.6771 346.344 94.6406 347.378 94.6406 349.445V355H93.875ZM102.547 355L102.352 353.656H102.289C101.862 354.203 101.422 354.591 100.969 354.82C100.521 355.044 99.9896 355.156 99.375 355.156C98.5417 355.156 97.8932 354.943 97.4297 354.516C96.9661 354.089 96.7344 353.497 96.7344 352.742C96.7344 351.914 97.0781 351.271 97.7656 350.812C98.4583 350.354 99.4583 350.112 100.766 350.086L102.383 350.039V349.477C102.383 348.669 102.219 348.06 101.891 347.648C101.562 347.237 101.034 347.031 100.305 347.031C99.5182 347.031 98.7031 347.25 97.8594 347.688L97.5703 347.016C98.5026 346.578 99.4245 346.359 100.336 346.359C101.268 346.359 101.964 346.602 102.422 347.086C102.885 347.57 103.117 348.326 103.117 349.352V355H102.547ZM99.4219 354.453C100.328 354.453 101.042 354.195 101.562 353.68C102.089 353.159 102.352 352.438 102.352 351.516V350.68L100.867 350.742C99.6745 350.799 98.8229 350.987 98.3125 351.305C97.8073 351.617 97.5547 352.107 97.5547 352.773C97.5547 353.305 97.7161 353.719 98.0391 354.016C98.3672 354.307 98.8281 354.453 99.4219 354.453ZM111.797 355V349.492C111.797 348.638 111.617 348.018 111.258 347.633C110.898 347.242 110.341 347.047 109.586 347.047C108.57 347.047 107.826 347.305 107.352 347.82C106.883 348.331 106.648 349.161 106.648 350.312V355H105.875V346.508H106.531L106.68 347.672H106.727C107.279 346.786 108.26 346.344 109.672 346.344C111.599 346.344 112.562 347.378 112.562 349.445V355H111.797ZM118.703 355.156C117.49 355.156 116.539 354.773 115.852 354.008C115.164 353.242 114.82 352.174 114.82 350.805C114.82 349.398 115.177 348.305 115.891 347.523C116.604 346.737 117.581 346.344 118.82 346.344C119.555 346.344 120.258 346.471 120.93 346.727L120.719 347.414C119.984 347.169 119.346 347.047 118.805 347.047C117.763 347.047 116.974 347.37 116.438 348.016C115.901 348.656 115.633 349.581 115.633 350.789C115.633 351.935 115.901 352.833 116.438 353.484C116.974 354.13 117.724 354.453 118.688 354.453C119.458 354.453 120.174 354.315 120.836 354.039V354.758C120.294 355.023 119.583 355.156 118.703 355.156ZM123.695 355H122.922V346.508H123.695V355ZM122.812 344.148C122.812 343.648 122.977 343.398 123.305 343.398C123.466 343.398 123.591 343.464 123.68 343.594C123.773 343.724 123.82 343.909 123.82 344.148C123.82 344.383 123.773 344.568 123.68 344.703C123.591 344.839 123.466 344.906 123.305 344.906C122.977 344.906 122.812 344.654 122.812 344.148ZM132.469 355V349.492C132.469 348.638 132.289 348.018 131.93 347.633C131.57 347.242 131.013 347.047 130.258 347.047C129.242 347.047 128.497 347.305 128.023 347.82C127.555 348.331 127.32 349.161 127.32 350.312V355H126.547V346.508H127.203L127.352 347.672H127.398C127.951 346.786 128.932 346.344 130.344 346.344C132.271 346.344 133.234 347.378 133.234 349.445V355H132.469ZM142.609 346.508V347.047L140.852 347.156C141.32 347.74 141.555 348.38 141.555 349.078C141.555 349.896 141.281 350.56 140.734 351.07C140.193 351.576 139.464 351.828 138.547 351.828C138.161 351.828 137.891 351.812 137.734 351.781C137.427 351.943 137.193 352.133 137.031 352.352C136.87 352.57 136.789 352.802 136.789 353.047C136.789 353.318 136.891 353.516 137.094 353.641C137.302 353.766 137.648 353.828 138.133 353.828H139.617C140.539 353.828 141.245 354.016 141.734 354.391C142.224 354.76 142.469 355.31 142.469 356.039C142.469 356.935 142.104 357.625 141.375 358.109C140.651 358.599 139.617 358.844 138.273 358.844C137.206 358.844 136.378 358.638 135.789 358.227C135.206 357.815 134.914 357.242 134.914 356.508C134.914 355.924 135.094 355.44 135.453 355.055C135.818 354.669 136.31 354.406 136.93 354.266C136.674 354.156 136.469 354.003 136.312 353.805C136.161 353.602 136.086 353.37 136.086 353.109C136.086 352.542 136.448 352.042 137.172 351.609C136.677 351.406 136.292 351.089 136.016 350.656C135.74 350.219 135.602 349.719 135.602 349.156C135.602 348.307 135.87 347.628 136.406 347.117C136.948 346.602 137.677 346.344 138.594 346.344C139.151 346.344 139.583 346.398 139.891 346.508H142.609ZM135.734 356.438C135.734 357.604 136.602 358.188 138.336 358.188C140.565 358.188 141.68 357.477 141.68 356.055C141.68 355.544 141.505 355.174 141.156 354.945C140.807 354.716 140.242 354.602 139.461 354.602H138.07C136.513 354.602 135.734 355.214 135.734 356.438ZM136.383 349.156C136.383 349.812 136.581 350.323 136.977 350.688C137.378 351.047 137.911 351.227 138.578 351.227C139.286 351.227 139.828 351.047 140.203 350.688C140.583 350.328 140.773 349.807 140.773 349.125C140.773 348.401 140.578 347.859 140.188 347.5C139.802 347.135 139.26 346.953 138.562 346.953C137.885 346.953 137.352 347.148 136.961 347.539C136.576 347.924 136.383 348.464 136.383 349.156ZM144.203 354.391C144.203 353.88 144.411 353.625 144.828 353.625C145.255 353.625 145.469 353.88 145.469 354.391C145.469 354.901 145.255 355.156 144.828 355.156C144.411 355.156 144.203 354.901 144.203 354.391Z" fill="black"/>
<circle cx="27" cy="27" r="27" fill="url(#paint0_linear)"/>
<circle cx="27" cy="135" r="27" fill="url(#paint1_linear)"/>
<circle cx="27" cy="243" r="27" fill="url(#paint2_linear)"/>
<circle cx="27" cy="451" r="27" fill="#989898"/>
<g clip-path="url(#clip0)">
<path d="M38.297 446.369L25.636 459.029C24.6985 459.967 23.1776 459.967 22.2391 459.029L15.7034 452.493C14.7655 451.555 14.7655 450.034 15.7034 449.096C16.6415 448.158 18.1623 448.158 19.1 449.096L23.9381 453.934L34.9 442.972C35.8381 442.034 37.3589 442.034 38.2967 442.972C39.2344 443.91 39.2344 445.43 38.297 446.369Z" fill="white"/>
</g>
<rect x="26" y="282" width="1" height="130" fill="#C4C4C4"/>
<rect x="27" y="66" width="1" height="30" fill="#C4C4C4"/>
<rect x="26" y="174" width="1" height="30" fill="#C4C4C4"/>
<g clip-path="url(#clip1)">
<path d="M38.347 32.6136L34.9977 29.2643C33.8015 28.0681 31.7681 28.5467 31.2896 30.1016C30.9307 31.1782 29.7346 31.7763 28.658 31.537C26.2657 30.9389 23.036 27.8289 22.4379 25.317C22.0791 24.2404 22.7968 23.0442 23.8733 22.6854C25.4284 22.2069 25.9068 20.1734 24.7107 18.9773L21.3614 15.628C20.4044 14.7907 18.969 14.7907 18.1317 15.628L15.859 17.9007C13.5863 20.293 16.0982 26.6327 21.7202 32.2547C27.3422 37.8767 33.6819 40.5083 36.0743 38.116L38.347 35.8432C39.1843 34.8863 39.1843 33.4509 38.347 32.6136Z" fill="white"/>
</g>
<path d="M34.5294 130.172H25.8706L24.1482 128.125C24.0903 128.055 24.0035 128.016 23.9129 128.019H16.9271C15.8605 128.027 15 128.894 15 129.96V142.551C15.0013 143.621 15.8686 144.488 16.9388 144.49H34.5294C35.5996 144.488 36.4669 143.621 36.4682 142.551V132.111C36.4669 131.041 35.5996 130.173 34.5294 130.172Z" fill="white"/>
<path d="M37.0727 127.663H28.4116L26.6892 125.616C26.6313 125.547 26.5444 125.508 26.4539 125.51H19.4704C18.5026 125.512 17.6843 126.227 17.5527 127.186H23.9221C24.2561 127.185 24.5733 127.332 24.788 127.588L26.2586 129.336H34.5292C36.0589 129.339 37.2984 130.578 37.301 132.108V141.962C38.2709 141.841 38.999 141.017 38.9998 140.04V129.6C38.9973 128.535 38.1374 127.671 37.0727 127.663Z" fill="white"/>
<g clip-path="url(#clip2)">
<path d="M38.5969 241.729L27.8289 231.917C27.3563 231.487 26.6435 231.487 26.1711 231.917L15.403 241.729C15.0244 242.074 14.8994 242.606 15.0843 243.083C15.2693 243.561 15.7198 243.869 16.232 243.869H17.9519V253.7C17.9519 254.09 18.2679 254.406 18.6577 254.406H24.5599C24.9496 254.406 25.2657 254.09 25.2657 253.7V247.731H28.7345V253.7C28.7345 254.09 29.0505 254.406 29.4403 254.406H35.3422C35.732 254.406 36.048 254.09 36.048 253.7V243.869H37.7682C38.2803 243.869 38.7308 243.561 38.9159 243.083C39.1006 242.606 38.9755 242.074 38.5969 241.729Z" fill="white"/>
<path d="M35.8649 233.003H31.125L36.5707 237.955V233.709C36.5707 233.319 36.2548 233.003 35.8649 233.003Z" fill="white"/>
</g>
<defs>
<linearGradient id="paint0_linear" x1="27" y1="0" x2="27" y2="54" gradientUnits="userSpaceOnUse">
<stop stop-color="#4256AC"/>
<stop offset="1" stop-color="#293991"/>
</linearGradient>
<linearGradient id="paint1_linear" x1="27" y1="108" x2="27" y2="162" gradientUnits="userSpaceOnUse">
<stop stop-color="#4256AC"/>
<stop offset="1" stop-color="#293991"/>
</linearGradient>
<linearGradient id="paint2_linear" x1="27" y1="216" x2="27" y2="270" gradientUnits="userSpaceOnUse">
<stop stop-color="#4256AC"/>
<stop offset="1" stop-color="#293991"/>
</linearGradient>
<clipPath id="clip0">
<rect width="24" height="24" fill="white" transform="translate(15 439)"/>
</clipPath>
<clipPath id="clip1">
<rect width="24" height="24" fill="white" transform="translate(15 15)"/>
</clipPath>
<clipPath id="clip2">
<rect width="24" height="24" fill="white" transform="translate(15 231)"/>
</clipPath>
</defs>
</svg>
