<svg width="322" height="378" viewBox="0 0 322 378" fill="none" xmlns="http://www.w3.org/2000/svg">
<path d="M77.8613 23.0371C76.722 23.0371 75.8398 23.4668 75.2148 24.3262C74.5898 25.179 74.2773 26.3704 74.2773 27.9004C74.2773 31.084 75.472 32.6758 77.8613 32.6758C78.8639 32.6758 80.0781 32.4251 81.5039 31.9238V34.4629C80.332 34.9512 79.0234 35.1953 77.5781 35.1953C75.5013 35.1953 73.9128 34.5671 72.8125 33.3105C71.7122 32.0475 71.1621 30.2376 71.1621 27.8809C71.1621 26.3965 71.4323 25.0977 71.9727 23.9844C72.513 22.8646 73.2878 22.0085 74.2969 21.416C75.3125 20.8171 76.5007 20.5176 77.8613 20.5176C79.248 20.5176 80.6413 20.8529 82.041 21.5234L81.0645 23.9844C80.5306 23.7305 79.9935 23.5091 79.4531 23.3203C78.9128 23.1315 78.3822 23.0371 77.8613 23.0371ZM86.6895 29.5215C86.6895 30.6022 86.8652 31.4193 87.2168 31.9727C87.5749 32.526 88.1543 32.8027 88.9551 32.8027C89.7493 32.8027 90.319 32.5293 90.6641 31.9824C91.0156 31.429 91.1914 30.6087 91.1914 29.5215C91.1914 28.4408 91.0156 27.6302 90.6641 27.0898C90.3125 26.5495 89.7363 26.2793 88.9355 26.2793C88.1413 26.2793 87.5684 26.5495 87.2168 27.0898C86.8652 27.6237 86.6895 28.4342 86.6895 29.5215ZM94.2383 29.5215C94.2383 31.2988 93.7695 32.6888 92.832 33.6914C91.8945 34.694 90.5892 35.1953 88.916 35.1953C87.8678 35.1953 86.9434 34.9674 86.1426 34.5117C85.3418 34.0495 84.7266 33.3887 84.2969 32.5293C83.8672 31.6699 83.6523 30.6673 83.6523 29.5215C83.6523 27.7376 84.1178 26.3509 85.0488 25.3613C85.9798 24.3717 87.2884 23.877 88.9746 23.877C90.0228 23.877 90.9473 24.1048 91.748 24.5605C92.5488 25.0163 93.1641 25.6706 93.5938 26.5234C94.0234 27.3763 94.2383 28.3757 94.2383 29.5215ZM106.777 35H103.799V28.623C103.799 27.8353 103.659 27.2461 103.379 26.8555C103.099 26.4583 102.653 26.2598 102.041 26.2598C101.208 26.2598 100.605 26.5397 100.234 27.0996C99.8633 27.653 99.6777 28.5742 99.6777 29.8633V35H96.6992V24.082H98.9746L99.375 25.4785H99.541C99.873 24.9512 100.329 24.554 100.908 24.2871C101.494 24.0137 102.158 23.877 102.9 23.877C104.17 23.877 105.133 24.222 105.791 24.9121C106.449 25.5957 106.777 26.5853 106.777 27.8809V35ZM114.443 32.8223C114.964 32.8223 115.589 32.7083 116.318 32.4805V34.6973C115.576 35.0293 114.665 35.1953 113.584 35.1953C112.393 35.1953 111.523 34.8958 110.977 34.2969C110.436 33.6914 110.166 32.7865 110.166 31.582V26.3184H108.74V25.0586L110.381 24.0625L111.24 21.7578H113.145V24.082H116.201V26.3184H113.145V31.582C113.145 32.0052 113.262 32.3177 113.496 32.5195C113.737 32.7214 114.053 32.8223 114.443 32.8223ZM125.469 35L124.893 33.5156H124.814C124.313 34.1471 123.796 34.5866 123.262 34.834C122.734 35.0749 122.044 35.1953 121.191 35.1953C120.143 35.1953 119.316 34.8958 118.711 34.2969C118.112 33.6979 117.812 32.8451 117.812 31.7383C117.812 30.5794 118.216 29.7266 119.023 29.1797C119.837 28.6263 121.061 28.3203 122.695 28.2617L124.59 28.2031V27.7246C124.59 26.6178 124.023 26.0645 122.891 26.0645C122.018 26.0645 120.993 26.3281 119.814 26.8555L118.828 24.8438C120.085 24.1862 121.478 23.8574 123.008 23.8574C124.473 23.8574 125.596 24.1764 126.377 24.8145C127.158 25.4525 127.549 26.4225 127.549 27.7246V35H125.469ZM124.59 29.9414L123.438 29.9805C122.572 30.0065 121.927 30.1628 121.504 30.4492C121.081 30.7357 120.869 31.1719 120.869 31.7578C120.869 32.5977 121.351 33.0176 122.314 33.0176C123.005 33.0176 123.555 32.819 123.965 32.4219C124.382 32.0247 124.59 31.4974 124.59 30.8398V29.9414ZM135.059 35.1953C131.66 35.1953 129.961 33.3301 129.961 29.5996C129.961 27.7441 130.423 26.3281 131.348 25.3516C132.272 24.3685 133.597 23.877 135.322 23.877C136.585 23.877 137.718 24.1243 138.721 24.6191L137.842 26.9238C137.373 26.735 136.937 26.582 136.533 26.4648C136.13 26.3411 135.726 26.2793 135.322 26.2793C133.773 26.2793 132.998 27.3796 132.998 29.5801C132.998 31.7155 133.773 32.7832 135.322 32.7832C135.895 32.7832 136.426 32.7083 136.914 32.5586C137.402 32.4023 137.891 32.1615 138.379 31.8359V34.3848C137.897 34.6908 137.409 34.9023 136.914 35.0195C136.426 35.1367 135.807 35.1953 135.059 35.1953ZM145.518 32.8223C146.038 32.8223 146.663 32.7083 147.393 32.4805V34.6973C146.65 35.0293 145.739 35.1953 144.658 35.1953C143.467 35.1953 142.598 34.8958 142.051 34.2969C141.51 33.6914 141.24 32.7865 141.24 31.582V26.3184H139.814V25.0586L141.455 24.0625L142.314 21.7578H144.219V24.082H147.275V26.3184H144.219V31.582C144.219 32.0052 144.336 32.3177 144.57 32.5195C144.811 32.7214 145.127 32.8223 145.518 32.8223ZM155.039 35V20.7227H158.066V35H155.039ZM171.504 35H168.525V28.623C168.525 27.8353 168.385 27.2461 168.105 26.8555C167.826 26.4583 167.38 26.2598 166.768 26.2598C165.934 26.2598 165.332 26.5397 164.961 27.0996C164.59 27.653 164.404 28.5742 164.404 29.8633V35H161.426V24.082H163.701L164.102 25.4785H164.268C164.6 24.9512 165.055 24.554 165.635 24.2871C166.221 24.0137 166.885 23.877 167.627 23.877C168.896 23.877 169.86 24.222 170.518 24.9121C171.175 25.5957 171.504 26.5853 171.504 27.8809V35ZM180.605 26.3184H178.027V35H175.049V26.3184H173.408V24.8828L175.049 24.082V23.2812C175.049 22.0378 175.355 21.1296 175.967 20.5566C176.579 19.9837 177.559 19.6973 178.906 19.6973C179.935 19.6973 180.85 19.8503 181.65 20.1562L180.889 22.3438C180.29 22.1549 179.736 22.0605 179.229 22.0605C178.805 22.0605 178.499 22.1875 178.311 22.4414C178.122 22.6888 178.027 23.0078 178.027 23.3984V24.082H180.605V26.3184ZM184.697 29.5215C184.697 30.6022 184.873 31.4193 185.225 31.9727C185.583 32.526 186.162 32.8027 186.963 32.8027C187.757 32.8027 188.327 32.5293 188.672 31.9824C189.023 31.429 189.199 30.6087 189.199 29.5215C189.199 28.4408 189.023 27.6302 188.672 27.0898C188.32 26.5495 187.744 26.2793 186.943 26.2793C186.149 26.2793 185.576 26.5495 185.225 27.0898C184.873 27.6237 184.697 28.4342 184.697 29.5215ZM192.246 29.5215C192.246 31.2988 191.777 32.6888 190.84 33.6914C189.902 34.694 188.597 35.1953 186.924 35.1953C185.876 35.1953 184.951 34.9674 184.15 34.5117C183.35 34.0495 182.734 33.3887 182.305 32.5293C181.875 31.6699 181.66 30.6673 181.66 29.5215C181.66 27.7376 182.126 26.3509 183.057 25.3613C183.988 24.3717 185.296 23.877 186.982 23.877C188.031 23.877 188.955 24.1048 189.756 24.5605C190.557 25.0163 191.172 25.6706 191.602 26.5234C192.031 27.3763 192.246 28.3757 192.246 29.5215ZM200.801 23.877C201.204 23.877 201.54 23.9062 201.807 23.9648L201.582 26.7578C201.341 26.6927 201.048 26.6602 200.703 26.6602C199.753 26.6602 199.01 26.9043 198.477 27.3926C197.949 27.8809 197.686 28.5645 197.686 29.4434V35H194.707V24.082H196.963L197.402 25.918H197.549C197.887 25.306 198.343 24.8145 198.916 24.4434C199.495 24.0658 200.124 23.877 200.801 23.877ZM213.564 35H210.586V28.623C210.586 27.8353 210.452 27.2461 210.186 26.8555C209.925 26.4583 209.512 26.2598 208.945 26.2598C208.184 26.2598 207.63 26.5397 207.285 27.0996C206.94 27.6595 206.768 28.5807 206.768 29.8633V35H203.789V24.082H206.064L206.465 25.4785H206.631C206.924 24.9772 207.347 24.5866 207.9 24.3066C208.454 24.0202 209.089 23.877 209.805 23.877C211.439 23.877 212.546 24.4108 213.125 25.4785H213.389C213.682 24.9707 214.111 24.5768 214.678 24.2969C215.251 24.0169 215.895 23.877 216.611 23.877C217.848 23.877 218.783 24.196 219.414 24.834C220.052 25.4655 220.371 26.4811 220.371 27.8809V35H217.383V28.623C217.383 27.8353 217.249 27.2461 216.982 26.8555C216.722 26.4583 216.309 26.2598 215.742 26.2598C215.013 26.2598 214.466 26.5202 214.102 27.041C213.743 27.5618 213.564 28.3887 213.564 29.5215V35ZM230.371 35L229.795 33.5156H229.717C229.215 34.1471 228.698 34.5866 228.164 34.834C227.637 35.0749 226.947 35.1953 226.094 35.1953C225.046 35.1953 224.219 34.8958 223.613 34.2969C223.014 33.6979 222.715 32.8451 222.715 31.7383C222.715 30.5794 223.118 29.7266 223.926 29.1797C224.74 28.6263 225.964 28.3203 227.598 28.2617L229.492 28.2031V27.7246C229.492 26.6178 228.926 26.0645 227.793 26.0645C226.921 26.0645 225.895 26.3281 224.717 26.8555L223.73 24.8438C224.987 24.1862 226.38 23.8574 227.91 23.8574C229.375 23.8574 230.498 24.1764 231.279 24.8145C232.061 25.4525 232.451 26.4225 232.451 27.7246V35H230.371ZM229.492 29.9414L228.34 29.9805C227.474 30.0065 226.829 30.1628 226.406 30.4492C225.983 30.7357 225.771 31.1719 225.771 31.7578C225.771 32.5977 226.253 33.0176 227.217 33.0176C227.907 33.0176 228.457 32.819 228.867 32.4219C229.284 32.0247 229.492 31.4974 229.492 30.8398V29.9414ZM240.127 32.8223C240.648 32.8223 241.273 32.7083 242.002 32.4805V34.6973C241.26 35.0293 240.348 35.1953 239.268 35.1953C238.076 35.1953 237.207 34.8958 236.66 34.2969C236.12 33.6914 235.85 32.7865 235.85 31.582V26.3184H234.424V25.0586L236.064 24.0625L236.924 21.7578H238.828V24.082H241.885V26.3184H238.828V31.582C238.828 32.0052 238.945 32.3177 239.18 32.5195C239.421 32.7214 239.736 32.8223 240.127 32.8223ZM244.092 21.2598C244.092 20.2897 244.632 19.8047 245.713 19.8047C246.794 19.8047 247.334 20.2897 247.334 21.2598C247.334 21.722 247.197 22.0833 246.924 22.3438C246.657 22.5977 246.253 22.7246 245.713 22.7246C244.632 22.7246 244.092 22.2363 244.092 21.2598ZM247.197 35H244.219V24.082H247.197V35ZM252.705 29.5215C252.705 30.6022 252.881 31.4193 253.232 31.9727C253.59 32.526 254.17 32.8027 254.971 32.8027C255.765 32.8027 256.335 32.5293 256.68 31.9824C257.031 31.429 257.207 30.6087 257.207 29.5215C257.207 28.4408 257.031 27.6302 256.68 27.0898C256.328 26.5495 255.752 26.2793 254.951 26.2793C254.157 26.2793 253.584 26.5495 253.232 27.0898C252.881 27.6237 252.705 28.4342 252.705 29.5215ZM260.254 29.5215C260.254 31.2988 259.785 32.6888 258.848 33.6914C257.91 34.694 256.605 35.1953 254.932 35.1953C253.883 35.1953 252.959 34.9674 252.158 34.5117C251.357 34.0495 250.742 33.3887 250.312 32.5293C249.883 31.6699 249.668 30.6673 249.668 29.5215C249.668 27.7376 250.133 26.3509 251.064 25.3613C251.995 24.3717 253.304 23.877 254.99 23.877C256.038 23.877 256.963 24.1048 257.764 24.5605C258.564 25.0163 259.18 25.6706 259.609 26.5234C260.039 27.3763 260.254 28.3757 260.254 29.5215ZM272.793 35H269.814V28.623C269.814 27.8353 269.674 27.2461 269.395 26.8555C269.115 26.4583 268.669 26.2598 268.057 26.2598C267.223 26.2598 266.621 26.5397 266.25 27.0996C265.879 27.653 265.693 28.5742 265.693 29.8633V35H262.715V24.082H264.99L265.391 25.4785H265.557C265.889 24.9512 266.344 24.554 266.924 24.2871C267.51 24.0137 268.174 23.877 268.916 23.877C270.186 23.877 271.149 24.222 271.807 24.9121C272.464 25.5957 272.793 26.5853 272.793 27.8809V35Z" fill="black"/>
<path d="M80.0195 143H71.7969V128.723H80.0195V131.203H74.8242V134.338H79.6582V136.818H74.8242V140.5H80.0195V143ZM92.5488 143H89.5703V136.623C89.5703 135.835 89.4368 135.246 89.1699 134.855C88.9095 134.458 88.4961 134.26 87.9297 134.26C87.168 134.26 86.6146 134.54 86.2695 135.1C85.9245 135.66 85.752 136.581 85.752 137.863V143H82.7734V132.082H85.0488L85.4492 133.479H85.6152C85.9082 132.977 86.3314 132.587 86.8848 132.307C87.4382 132.02 88.0729 131.877 88.7891 131.877C90.4232 131.877 91.5299 132.411 92.1094 133.479H92.373C92.666 132.971 93.0957 132.577 93.6621 132.297C94.235 132.017 94.8796 131.877 95.5957 131.877C96.8327 131.877 97.7669 132.196 98.3984 132.834C99.0365 133.465 99.3555 134.481 99.3555 135.881V143H96.3672V136.623C96.3672 135.835 96.2337 135.246 95.9668 134.855C95.7064 134.458 95.293 134.26 94.7266 134.26C93.9974 134.26 93.4505 134.52 93.0859 135.041C92.7279 135.562 92.5488 136.389 92.5488 137.521V143ZM108.418 143.195C107.135 143.195 106.13 142.73 105.4 141.799H105.244C105.348 142.71 105.4 143.238 105.4 143.381V147.805H102.422V132.082H104.844L105.264 133.498H105.4C106.097 132.417 107.129 131.877 108.496 131.877C109.785 131.877 110.794 132.375 111.523 133.371C112.253 134.367 112.617 135.751 112.617 137.521C112.617 138.687 112.445 139.699 112.1 140.559C111.761 141.418 111.276 142.072 110.645 142.521C110.013 142.971 109.271 143.195 108.418 143.195ZM107.539 134.26C106.803 134.26 106.266 134.488 105.928 134.943C105.589 135.393 105.413 136.138 105.4 137.18V137.502C105.4 138.674 105.573 139.514 105.918 140.021C106.27 140.529 106.823 140.783 107.578 140.783C108.913 140.783 109.58 139.683 109.58 137.482C109.58 136.408 109.414 135.604 109.082 135.07C108.757 134.53 108.242 134.26 107.539 134.26ZM118.057 143H115.078V127.805H118.057V143ZM123.564 137.521C123.564 138.602 123.74 139.419 124.092 139.973C124.45 140.526 125.029 140.803 125.83 140.803C126.624 140.803 127.194 140.529 127.539 139.982C127.891 139.429 128.066 138.609 128.066 137.521C128.066 136.441 127.891 135.63 127.539 135.09C127.188 134.549 126.611 134.279 125.811 134.279C125.016 134.279 124.443 134.549 124.092 135.09C123.74 135.624 123.564 136.434 123.564 137.521ZM131.113 137.521C131.113 139.299 130.645 140.689 129.707 141.691C128.77 142.694 127.464 143.195 125.791 143.195C124.743 143.195 123.818 142.967 123.018 142.512C122.217 142.049 121.602 141.389 121.172 140.529C120.742 139.67 120.527 138.667 120.527 137.521C120.527 135.738 120.993 134.351 121.924 133.361C122.855 132.372 124.163 131.877 125.85 131.877C126.898 131.877 127.822 132.105 128.623 132.561C129.424 133.016 130.039 133.671 130.469 134.523C130.898 135.376 131.113 136.376 131.113 137.521ZM132.012 132.082H135.273L137.334 138.225C137.51 138.758 137.63 139.39 137.695 140.119H137.754C137.826 139.449 137.965 138.817 138.174 138.225L140.195 132.082H143.389L138.77 144.396C138.346 145.536 137.741 146.389 136.953 146.955C136.172 147.521 135.257 147.805 134.209 147.805C133.695 147.805 133.19 147.749 132.695 147.639V145.275C133.053 145.36 133.444 145.402 133.867 145.402C134.395 145.402 134.854 145.24 135.244 144.914C135.641 144.595 135.951 144.11 136.172 143.459L136.348 142.922L132.012 132.082ZM154.736 143H151.758V136.623C151.758 135.835 151.624 135.246 151.357 134.855C151.097 134.458 150.684 134.26 150.117 134.26C149.355 134.26 148.802 134.54 148.457 135.1C148.112 135.66 147.939 136.581 147.939 137.863V143H144.961V132.082H147.236L147.637 133.479H147.803C148.096 132.977 148.519 132.587 149.072 132.307C149.626 132.02 150.26 131.877 150.977 131.877C152.611 131.877 153.717 132.411 154.297 133.479H154.561C154.854 132.971 155.283 132.577 155.85 132.297C156.423 132.017 157.067 131.877 157.783 131.877C159.02 131.877 159.954 132.196 160.586 132.834C161.224 133.465 161.543 134.481 161.543 135.881V143H158.555V136.623C158.555 135.835 158.421 135.246 158.154 134.855C157.894 134.458 157.48 134.26 156.914 134.26C156.185 134.26 155.638 134.52 155.273 135.041C154.915 135.562 154.736 136.389 154.736 137.521V143ZM169.131 133.996C168.499 133.996 168.005 134.198 167.646 134.602C167.288 134.999 167.083 135.565 167.031 136.301H171.211C171.198 135.565 171.006 134.999 170.635 134.602C170.264 134.198 169.762 133.996 169.131 133.996ZM169.551 143.195C167.793 143.195 166.419 142.71 165.43 141.74C164.44 140.77 163.945 139.396 163.945 137.619C163.945 135.79 164.401 134.377 165.312 133.381C166.23 132.378 167.497 131.877 169.111 131.877C170.654 131.877 171.855 132.316 172.715 133.195C173.574 134.074 174.004 135.288 174.004 136.838V138.283H166.963C166.995 139.13 167.246 139.79 167.715 140.266C168.184 140.741 168.841 140.979 169.688 140.979C170.345 140.979 170.967 140.91 171.553 140.773C172.139 140.637 172.751 140.419 173.389 140.119V142.424C172.868 142.684 172.311 142.876 171.719 143C171.126 143.13 170.404 143.195 169.551 143.195ZM186.504 143H183.525V136.623C183.525 135.835 183.385 135.246 183.105 134.855C182.826 134.458 182.38 134.26 181.768 134.26C180.934 134.26 180.332 134.54 179.961 135.1C179.59 135.653 179.404 136.574 179.404 137.863V143H176.426V132.082H178.701L179.102 133.479H179.268C179.6 132.951 180.055 132.554 180.635 132.287C181.221 132.014 181.885 131.877 182.627 131.877C183.896 131.877 184.86 132.222 185.518 132.912C186.175 133.596 186.504 134.585 186.504 135.881V143ZM194.17 140.822C194.691 140.822 195.316 140.708 196.045 140.48V142.697C195.303 143.029 194.391 143.195 193.311 143.195C192.119 143.195 191.25 142.896 190.703 142.297C190.163 141.691 189.893 140.786 189.893 139.582V134.318H188.467V133.059L190.107 132.062L190.967 129.758H192.871V132.082H195.928V134.318H192.871V139.582C192.871 140.005 192.988 140.318 193.223 140.52C193.464 140.721 193.779 140.822 194.17 140.822ZM203.691 143V128.723H206.719V143H203.691ZM220.156 143H217.178V136.623C217.178 135.835 217.038 135.246 216.758 134.855C216.478 134.458 216.032 134.26 215.42 134.26C214.587 134.26 213.984 134.54 213.613 135.1C213.242 135.653 213.057 136.574 213.057 137.863V143H210.078V132.082H212.354L212.754 133.479H212.92C213.252 132.951 213.708 132.554 214.287 132.287C214.873 132.014 215.537 131.877 216.279 131.877C217.549 131.877 218.512 132.222 219.17 132.912C219.827 133.596 220.156 134.585 220.156 135.881V143ZM229.258 134.318H226.68V143H223.701V134.318H222.061V132.883L223.701 132.082V131.281C223.701 130.038 224.007 129.13 224.619 128.557C225.231 127.984 226.211 127.697 227.559 127.697C228.587 127.697 229.502 127.85 230.303 128.156L229.541 130.344C228.942 130.155 228.389 130.061 227.881 130.061C227.458 130.061 227.152 130.188 226.963 130.441C226.774 130.689 226.68 131.008 226.68 131.398V132.082H229.258V134.318ZM233.35 137.521C233.35 138.602 233.525 139.419 233.877 139.973C234.235 140.526 234.814 140.803 235.615 140.803C236.41 140.803 236.979 140.529 237.324 139.982C237.676 139.429 237.852 138.609 237.852 137.521C237.852 136.441 237.676 135.63 237.324 135.09C236.973 134.549 236.396 134.279 235.596 134.279C234.801 134.279 234.229 134.549 233.877 135.09C233.525 135.624 233.35 136.434 233.35 137.521ZM240.898 137.521C240.898 139.299 240.43 140.689 239.492 141.691C238.555 142.694 237.249 143.195 235.576 143.195C234.528 143.195 233.604 142.967 232.803 142.512C232.002 142.049 231.387 141.389 230.957 140.529C230.527 139.67 230.312 138.667 230.312 137.521C230.312 135.738 230.778 134.351 231.709 133.361C232.64 132.372 233.949 131.877 235.635 131.877C236.683 131.877 237.607 132.105 238.408 132.561C239.209 133.016 239.824 133.671 240.254 134.523C240.684 135.376 240.898 136.376 240.898 137.521ZM249.453 131.877C249.857 131.877 250.192 131.906 250.459 131.965L250.234 134.758C249.993 134.693 249.701 134.66 249.355 134.66C248.405 134.66 247.663 134.904 247.129 135.393C246.602 135.881 246.338 136.564 246.338 137.443V143H243.359V132.082H245.615L246.055 133.918H246.201C246.54 133.306 246.995 132.814 247.568 132.443C248.148 132.066 248.776 131.877 249.453 131.877ZM262.217 143H259.238V136.623C259.238 135.835 259.105 135.246 258.838 134.855C258.577 134.458 258.164 134.26 257.598 134.26C256.836 134.26 256.283 134.54 255.938 135.1C255.592 135.66 255.42 136.581 255.42 137.863V143H252.441V132.082H254.717L255.117 133.479H255.283C255.576 132.977 255.999 132.587 256.553 132.307C257.106 132.02 257.741 131.877 258.457 131.877C260.091 131.877 261.198 132.411 261.777 133.479H262.041C262.334 132.971 262.764 132.577 263.33 132.297C263.903 132.017 264.548 131.877 265.264 131.877C266.501 131.877 267.435 132.196 268.066 132.834C268.704 133.465 269.023 134.481 269.023 135.881V143H266.035V136.623C266.035 135.835 265.902 135.246 265.635 134.855C265.374 134.458 264.961 134.26 264.395 134.26C263.665 134.26 263.118 134.52 262.754 135.041C262.396 135.562 262.217 136.389 262.217 137.521V143ZM279.023 143L278.447 141.516H278.369C277.868 142.147 277.35 142.587 276.816 142.834C276.289 143.075 275.599 143.195 274.746 143.195C273.698 143.195 272.871 142.896 272.266 142.297C271.667 141.698 271.367 140.845 271.367 139.738C271.367 138.579 271.771 137.727 272.578 137.18C273.392 136.626 274.616 136.32 276.25 136.262L278.145 136.203V135.725C278.145 134.618 277.578 134.064 276.445 134.064C275.573 134.064 274.548 134.328 273.369 134.855L272.383 132.844C273.639 132.186 275.033 131.857 276.562 131.857C278.027 131.857 279.15 132.176 279.932 132.814C280.713 133.452 281.104 134.423 281.104 135.725V143H279.023ZM278.145 137.941L276.992 137.98C276.126 138.007 275.482 138.163 275.059 138.449C274.635 138.736 274.424 139.172 274.424 139.758C274.424 140.598 274.906 141.018 275.869 141.018C276.559 141.018 277.109 140.819 277.52 140.422C277.936 140.025 278.145 139.497 278.145 138.84V137.941ZM288.779 140.822C289.3 140.822 289.925 140.708 290.654 140.48V142.697C289.912 143.029 289.001 143.195 287.92 143.195C286.729 143.195 285.859 142.896 285.312 142.297C284.772 141.691 284.502 140.786 284.502 139.582V134.318H283.076V133.059L284.717 132.062L285.576 129.758H287.48V132.082H290.537V134.318H287.48V139.582C287.48 140.005 287.598 140.318 287.832 140.52C288.073 140.721 288.389 140.822 288.779 140.822ZM292.744 129.26C292.744 128.29 293.285 127.805 294.365 127.805C295.446 127.805 295.986 128.29 295.986 129.26C295.986 129.722 295.85 130.083 295.576 130.344C295.309 130.598 294.906 130.725 294.365 130.725C293.285 130.725 292.744 130.236 292.744 129.26ZM295.85 143H292.871V132.082H295.85V143ZM301.357 137.521C301.357 138.602 301.533 139.419 301.885 139.973C302.243 140.526 302.822 140.803 303.623 140.803C304.417 140.803 304.987 140.529 305.332 139.982C305.684 139.429 305.859 138.609 305.859 137.521C305.859 136.441 305.684 135.63 305.332 135.09C304.98 134.549 304.404 134.279 303.604 134.279C302.809 134.279 302.236 134.549 301.885 135.09C301.533 135.624 301.357 136.434 301.357 137.521ZM308.906 137.521C308.906 139.299 308.438 140.689 307.5 141.691C306.562 142.694 305.257 143.195 303.584 143.195C302.536 143.195 301.611 142.967 300.811 142.512C300.01 142.049 299.395 141.389 298.965 140.529C298.535 139.67 298.32 138.667 298.32 137.521C298.32 135.738 298.786 134.351 299.717 133.361C300.648 132.372 301.956 131.877 303.643 131.877C304.691 131.877 305.615 132.105 306.416 132.561C307.217 133.016 307.832 133.671 308.262 134.523C308.691 135.376 308.906 136.376 308.906 137.521ZM321.445 143H318.467V136.623C318.467 135.835 318.327 135.246 318.047 134.855C317.767 134.458 317.321 134.26 316.709 134.26C315.876 134.26 315.273 134.54 314.902 135.1C314.531 135.653 314.346 136.574 314.346 137.863V143H311.367V132.082H313.643L314.043 133.479H314.209C314.541 132.951 314.997 132.554 315.576 132.287C316.162 132.014 316.826 131.877 317.568 131.877C318.838 131.877 319.801 132.222 320.459 132.912C321.117 133.596 321.445 134.585 321.445 135.881V143Z" fill="black"/>
<path d="M83.4961 251H80.4785V244.838H74.8242V251H71.7969V236.723H74.8242V242.318H80.4785V236.723H83.4961V251ZM89.248 245.521C89.248 246.602 89.4238 247.419 89.7754 247.973C90.1335 248.526 90.7129 248.803 91.5137 248.803C92.3079 248.803 92.8776 248.529 93.2227 247.982C93.5742 247.429 93.75 246.609 93.75 245.521C93.75 244.441 93.5742 243.63 93.2227 243.09C92.8711 242.549 92.2949 242.279 91.4941 242.279C90.6999 242.279 90.127 242.549 89.7754 243.09C89.4238 243.624 89.248 244.434 89.248 245.521ZM96.7969 245.521C96.7969 247.299 96.3281 248.689 95.3906 249.691C94.4531 250.694 93.1478 251.195 91.4746 251.195C90.4264 251.195 89.502 250.967 88.7012 250.512C87.9004 250.049 87.2852 249.389 86.8555 248.529C86.4258 247.67 86.2109 246.667 86.2109 245.521C86.2109 243.738 86.6764 242.351 87.6074 241.361C88.5384 240.372 89.847 239.877 91.5332 239.877C92.5814 239.877 93.5059 240.105 94.3066 240.561C95.1074 241.016 95.7227 241.671 96.1523 242.523C96.582 243.376 96.7969 244.376 96.7969 245.521ZM109.033 251H106.055V244.623C106.055 243.835 105.921 243.246 105.654 242.855C105.394 242.458 104.98 242.26 104.414 242.26C103.652 242.26 103.099 242.54 102.754 243.1C102.409 243.66 102.236 244.581 102.236 245.863V251H99.2578V240.082H101.533L101.934 241.479H102.1C102.393 240.977 102.816 240.587 103.369 240.307C103.923 240.02 104.557 239.877 105.273 239.877C106.908 239.877 108.014 240.411 108.594 241.479H108.857C109.15 240.971 109.58 240.577 110.146 240.297C110.719 240.017 111.364 239.877 112.08 239.877C113.317 239.877 114.251 240.196 114.883 240.834C115.521 241.465 115.84 242.481 115.84 243.881V251H112.852V244.623C112.852 243.835 112.718 243.246 112.451 242.855C112.191 242.458 111.777 242.26 111.211 242.26C110.482 242.26 109.935 242.52 109.57 243.041C109.212 243.562 109.033 244.389 109.033 245.521V251ZM123.428 241.996C122.796 241.996 122.301 242.198 121.943 242.602C121.585 242.999 121.38 243.565 121.328 244.301H125.508C125.495 243.565 125.303 242.999 124.932 242.602C124.561 242.198 124.059 241.996 123.428 241.996ZM123.848 251.195C122.09 251.195 120.716 250.71 119.727 249.74C118.737 248.77 118.242 247.396 118.242 245.619C118.242 243.79 118.698 242.377 119.609 241.381C120.527 240.378 121.794 239.877 123.408 239.877C124.951 239.877 126.152 240.316 127.012 241.195C127.871 242.074 128.301 243.288 128.301 244.838V246.283H121.26C121.292 247.13 121.543 247.79 122.012 248.266C122.48 248.741 123.138 248.979 123.984 248.979C124.642 248.979 125.264 248.91 125.85 248.773C126.436 248.637 127.048 248.419 127.686 248.119V250.424C127.165 250.684 126.608 250.876 126.016 251C125.423 251.13 124.701 251.195 123.848 251.195ZM136.152 251V236.723H139.18V251H136.152ZM152.617 251H149.639V244.623C149.639 243.835 149.499 243.246 149.219 242.855C148.939 242.458 148.493 242.26 147.881 242.26C147.048 242.26 146.445 242.54 146.074 243.1C145.703 243.653 145.518 244.574 145.518 245.863V251H142.539V240.082H144.814L145.215 241.479H145.381C145.713 240.951 146.169 240.554 146.748 240.287C147.334 240.014 147.998 239.877 148.74 239.877C150.01 239.877 150.973 240.222 151.631 240.912C152.288 241.596 152.617 242.585 152.617 243.881V251ZM161.719 242.318H159.141V251H156.162V242.318H154.521V240.883L156.162 240.082V239.281C156.162 238.038 156.468 237.13 157.08 236.557C157.692 235.984 158.672 235.697 160.02 235.697C161.048 235.697 161.963 235.85 162.764 236.156L162.002 238.344C161.403 238.155 160.85 238.061 160.342 238.061C159.919 238.061 159.613 238.188 159.424 238.441C159.235 238.689 159.141 239.008 159.141 239.398V240.082H161.719V242.318ZM165.811 245.521C165.811 246.602 165.986 247.419 166.338 247.973C166.696 248.526 167.275 248.803 168.076 248.803C168.87 248.803 169.44 248.529 169.785 247.982C170.137 247.429 170.312 246.609 170.312 245.521C170.312 244.441 170.137 243.63 169.785 243.09C169.434 242.549 168.857 242.279 168.057 242.279C167.262 242.279 166.689 242.549 166.338 243.09C165.986 243.624 165.811 244.434 165.811 245.521ZM173.359 245.521C173.359 247.299 172.891 248.689 171.953 249.691C171.016 250.694 169.71 251.195 168.037 251.195C166.989 251.195 166.064 250.967 165.264 250.512C164.463 250.049 163.848 249.389 163.418 248.529C162.988 247.67 162.773 246.667 162.773 245.521C162.773 243.738 163.239 242.351 164.17 241.361C165.101 240.372 166.41 239.877 168.096 239.877C169.144 239.877 170.068 240.105 170.869 240.561C171.67 241.016 172.285 241.671 172.715 242.523C173.145 243.376 173.359 244.376 173.359 245.521ZM181.914 239.877C182.318 239.877 182.653 239.906 182.92 239.965L182.695 242.758C182.454 242.693 182.161 242.66 181.816 242.66C180.866 242.66 180.124 242.904 179.59 243.393C179.062 243.881 178.799 244.564 178.799 245.443V251H175.82V240.082H178.076L178.516 241.918H178.662C179.001 241.306 179.456 240.814 180.029 240.443C180.609 240.066 181.237 239.877 181.914 239.877ZM194.678 251H191.699V244.623C191.699 243.835 191.566 243.246 191.299 242.855C191.038 242.458 190.625 242.26 190.059 242.26C189.297 242.26 188.743 242.54 188.398 243.1C188.053 243.66 187.881 244.581 187.881 245.863V251H184.902V240.082H187.178L187.578 241.479H187.744C188.037 240.977 188.46 240.587 189.014 240.307C189.567 240.02 190.202 239.877 190.918 239.877C192.552 239.877 193.659 240.411 194.238 241.479H194.502C194.795 240.971 195.225 240.577 195.791 240.297C196.364 240.017 197.008 239.877 197.725 239.877C198.962 239.877 199.896 240.196 200.527 240.834C201.165 241.465 201.484 242.481 201.484 243.881V251H198.496V244.623C198.496 243.835 198.363 243.246 198.096 242.855C197.835 242.458 197.422 242.26 196.855 242.26C196.126 242.26 195.579 242.52 195.215 243.041C194.857 243.562 194.678 244.389 194.678 245.521V251ZM211.484 251L210.908 249.516H210.83C210.329 250.147 209.811 250.587 209.277 250.834C208.75 251.075 208.06 251.195 207.207 251.195C206.159 251.195 205.332 250.896 204.727 250.297C204.128 249.698 203.828 248.845 203.828 247.738C203.828 246.579 204.232 245.727 205.039 245.18C205.853 244.626 207.077 244.32 208.711 244.262L210.605 244.203V243.725C210.605 242.618 210.039 242.064 208.906 242.064C208.034 242.064 207.008 242.328 205.83 242.855L204.844 240.844C206.1 240.186 207.493 239.857 209.023 239.857C210.488 239.857 211.611 240.176 212.393 240.814C213.174 241.452 213.564 242.423 213.564 243.725V251H211.484ZM210.605 245.941L209.453 245.98C208.587 246.007 207.943 246.163 207.52 246.449C207.096 246.736 206.885 247.172 206.885 247.758C206.885 248.598 207.367 249.018 208.33 249.018C209.02 249.018 209.57 248.819 209.98 248.422C210.397 248.025 210.605 247.497 210.605 246.84V245.941ZM221.24 248.822C221.761 248.822 222.386 248.708 223.115 248.48V250.697C222.373 251.029 221.462 251.195 220.381 251.195C219.189 251.195 218.32 250.896 217.773 250.297C217.233 249.691 216.963 248.786 216.963 247.582V242.318H215.537V241.059L217.178 240.062L218.037 237.758H219.941V240.082H222.998V242.318H219.941V247.582C219.941 248.005 220.059 248.318 220.293 248.52C220.534 248.721 220.85 248.822 221.24 248.822ZM225.205 237.26C225.205 236.29 225.745 235.805 226.826 235.805C227.907 235.805 228.447 236.29 228.447 237.26C228.447 237.722 228.311 238.083 228.037 238.344C227.77 238.598 227.367 238.725 226.826 238.725C225.745 238.725 225.205 238.236 225.205 237.26ZM228.311 251H225.332V240.082H228.311V251ZM233.818 245.521C233.818 246.602 233.994 247.419 234.346 247.973C234.704 248.526 235.283 248.803 236.084 248.803C236.878 248.803 237.448 248.529 237.793 247.982C238.145 247.429 238.32 246.609 238.32 245.521C238.32 244.441 238.145 243.63 237.793 243.09C237.441 242.549 236.865 242.279 236.064 242.279C235.27 242.279 234.697 242.549 234.346 243.09C233.994 243.624 233.818 244.434 233.818 245.521ZM241.367 245.521C241.367 247.299 240.898 248.689 239.961 249.691C239.023 250.694 237.718 251.195 236.045 251.195C234.997 251.195 234.072 250.967 233.271 250.512C232.471 250.049 231.855 249.389 231.426 248.529C230.996 247.67 230.781 246.667 230.781 245.521C230.781 243.738 231.247 242.351 232.178 241.361C233.109 240.372 234.417 239.877 236.104 239.877C237.152 239.877 238.076 240.105 238.877 240.561C239.678 241.016 240.293 241.671 240.723 242.523C241.152 243.376 241.367 244.376 241.367 245.521ZM253.906 251H250.928V244.623C250.928 243.835 250.788 243.246 250.508 242.855C250.228 242.458 249.782 242.26 249.17 242.26C248.337 242.26 247.734 242.54 247.363 243.1C246.992 243.653 246.807 244.574 246.807 245.863V251H243.828V240.082H246.104L246.504 241.479H246.67C247.002 240.951 247.458 240.554 248.037 240.287C248.623 240.014 249.287 239.877 250.029 239.877C251.299 239.877 252.262 240.222 252.92 240.912C253.577 241.596 253.906 242.585 253.906 243.881V251Z" fill="black"/>
<path d="M77.8613 349.037C76.722 349.037 75.8398 349.467 75.2148 350.326C74.5898 351.179 74.2773 352.37 74.2773 353.9C74.2773 357.084 75.472 358.676 77.8613 358.676C78.8639 358.676 80.0781 358.425 81.5039 357.924V360.463C80.332 360.951 79.0234 361.195 77.5781 361.195C75.5013 361.195 73.9128 360.567 72.8125 359.311C71.7122 358.048 71.1621 356.238 71.1621 353.881C71.1621 352.396 71.4323 351.098 71.9727 349.984C72.513 348.865 73.2878 348.008 74.2969 347.416C75.3125 346.817 76.5007 346.518 77.8613 346.518C79.248 346.518 80.6413 346.853 82.041 347.523L81.0645 349.984C80.5306 349.73 79.9935 349.509 79.4531 349.32C78.9128 349.132 78.3822 349.037 77.8613 349.037ZM86.6895 355.521C86.6895 356.602 86.8652 357.419 87.2168 357.973C87.5749 358.526 88.1543 358.803 88.9551 358.803C89.7493 358.803 90.319 358.529 90.6641 357.982C91.0156 357.429 91.1914 356.609 91.1914 355.521C91.1914 354.441 91.0156 353.63 90.6641 353.09C90.3125 352.549 89.7363 352.279 88.9355 352.279C88.1413 352.279 87.5684 352.549 87.2168 353.09C86.8652 353.624 86.6895 354.434 86.6895 355.521ZM94.2383 355.521C94.2383 357.299 93.7695 358.689 92.832 359.691C91.8945 360.694 90.5892 361.195 88.916 361.195C87.8678 361.195 86.9434 360.967 86.1426 360.512C85.3418 360.049 84.7266 359.389 84.2969 358.529C83.8672 357.67 83.6523 356.667 83.6523 355.521C83.6523 353.738 84.1178 352.351 85.0488 351.361C85.9798 350.372 87.2884 349.877 88.9746 349.877C90.0228 349.877 90.9473 350.105 91.748 350.561C92.5488 351.016 93.1641 351.671 93.5938 352.523C94.0234 353.376 94.2383 354.376 94.2383 355.521ZM106.475 361H103.496V354.623C103.496 353.835 103.363 353.246 103.096 352.855C102.835 352.458 102.422 352.26 101.855 352.26C101.094 352.26 100.54 352.54 100.195 353.1C99.8503 353.66 99.6777 354.581 99.6777 355.863V361H96.6992V350.082H98.9746L99.375 351.479H99.541C99.834 350.977 100.257 350.587 100.811 350.307C101.364 350.02 101.999 349.877 102.715 349.877C104.349 349.877 105.456 350.411 106.035 351.479H106.299C106.592 350.971 107.021 350.577 107.588 350.297C108.161 350.017 108.805 349.877 109.521 349.877C110.758 349.877 111.693 350.196 112.324 350.834C112.962 351.465 113.281 352.481 113.281 353.881V361H110.293V354.623C110.293 353.835 110.16 353.246 109.893 352.855C109.632 352.458 109.219 352.26 108.652 352.26C107.923 352.26 107.376 352.52 107.012 353.041C106.654 353.562 106.475 354.389 106.475 355.521V361ZM122.344 361.195C121.061 361.195 120.055 360.73 119.326 359.799H119.17C119.274 360.71 119.326 361.238 119.326 361.381V365.805H116.348V350.082H118.77L119.189 351.498H119.326C120.023 350.417 121.055 349.877 122.422 349.877C123.711 349.877 124.72 350.375 125.449 351.371C126.178 352.367 126.543 353.751 126.543 355.521C126.543 356.687 126.37 357.699 126.025 358.559C125.687 359.418 125.202 360.072 124.57 360.521C123.939 360.971 123.197 361.195 122.344 361.195ZM121.465 352.26C120.729 352.26 120.192 352.488 119.854 352.943C119.515 353.393 119.339 354.138 119.326 355.18V355.502C119.326 356.674 119.499 357.514 119.844 358.021C120.195 358.529 120.749 358.783 121.504 358.783C122.839 358.783 123.506 357.683 123.506 355.482C123.506 354.408 123.34 353.604 123.008 353.07C122.682 352.53 122.168 352.26 121.465 352.26ZM131.982 361H129.004V345.805H131.982V361ZM139.639 351.996C139.007 351.996 138.512 352.198 138.154 352.602C137.796 352.999 137.591 353.565 137.539 354.301H141.719C141.706 353.565 141.514 352.999 141.143 352.602C140.771 352.198 140.27 351.996 139.639 351.996ZM140.059 361.195C138.301 361.195 136.927 360.71 135.938 359.74C134.948 358.77 134.453 357.396 134.453 355.619C134.453 353.79 134.909 352.377 135.82 351.381C136.738 350.378 138.005 349.877 139.619 349.877C141.162 349.877 142.363 350.316 143.223 351.195C144.082 352.074 144.512 353.288 144.512 354.838V356.283H137.471C137.503 357.13 137.754 357.79 138.223 358.266C138.691 358.741 139.349 358.979 140.195 358.979C140.853 358.979 141.475 358.91 142.061 358.773C142.646 358.637 143.258 358.419 143.896 358.119V360.424C143.376 360.684 142.819 360.876 142.227 361C141.634 361.13 140.911 361.195 140.059 361.195ZM151.533 358.822C152.054 358.822 152.679 358.708 153.408 358.48V360.697C152.666 361.029 151.755 361.195 150.674 361.195C149.482 361.195 148.613 360.896 148.066 360.297C147.526 359.691 147.256 358.786 147.256 357.582V352.318H145.83V351.059L147.471 350.062L148.33 347.758H150.234V350.082H153.291V352.318H150.234V357.582C150.234 358.005 150.352 358.318 150.586 358.52C150.827 358.721 151.143 358.822 151.533 358.822ZM160.146 351.996C159.515 351.996 159.02 352.198 158.662 352.602C158.304 352.999 158.099 353.565 158.047 354.301H162.227C162.214 353.565 162.021 352.999 161.65 352.602C161.279 352.198 160.778 351.996 160.146 351.996ZM160.566 361.195C158.809 361.195 157.435 360.71 156.445 359.74C155.456 358.77 154.961 357.396 154.961 355.619C154.961 353.79 155.417 352.377 156.328 351.381C157.246 350.378 158.512 349.877 160.127 349.877C161.67 349.877 162.871 350.316 163.73 351.195C164.59 352.074 165.02 353.288 165.02 354.838V356.283H157.979C158.011 357.13 158.262 357.79 158.73 358.266C159.199 358.741 159.857 358.979 160.703 358.979C161.361 358.979 161.982 358.91 162.568 358.773C163.154 358.637 163.766 358.419 164.404 358.119V360.424C163.883 360.684 163.327 360.876 162.734 361C162.142 361.13 161.419 361.195 160.566 361.195ZM170.898 361.195C169.616 361.195 168.607 360.697 167.871 359.701C167.142 358.705 166.777 357.325 166.777 355.561C166.777 353.77 167.148 352.377 167.891 351.381C168.639 350.378 169.668 349.877 170.977 349.877C172.35 349.877 173.398 350.411 174.121 351.479H174.219C174.069 350.665 173.994 349.939 173.994 349.301V345.805H176.982V361H174.697L174.121 359.584H173.994C173.317 360.658 172.285 361.195 170.898 361.195ZM171.943 358.822C172.705 358.822 173.262 358.601 173.613 358.158C173.971 357.715 174.167 356.964 174.199 355.902V355.58C174.199 354.408 174.017 353.568 173.652 353.061C173.294 352.553 172.708 352.299 171.895 352.299C171.23 352.299 170.713 352.582 170.342 353.148C169.977 353.708 169.795 354.525 169.795 355.6C169.795 356.674 169.98 357.481 170.352 358.021C170.723 358.555 171.253 358.822 171.943 358.822Z" fill="black"/>
<circle cx="27" cy="27" r="27" fill="url(#paint0_linear)"/>
<circle cx="27" cy="135" r="27" fill="url(#paint1_linear)"/>
<circle cx="27" cy="243" r="27" fill="url(#paint2_linear)"/>
<circle cx="27" cy="351" r="27" fill="url(#paint3_linear)"/>
<g clip-path="url(#clip0)">
<path d="M38.297 346.369L25.636 359.029C24.6985 359.967 23.1776 359.967 22.2391 359.029L15.7034 352.493C14.7655 351.555 14.7655 350.034 15.7034 349.096C16.6415 348.158 18.1623 348.158 19.1 349.096L23.9381 353.934L34.9 342.972C35.8381 342.034 37.3589 342.034 38.2967 342.972C39.2344 343.91 39.2344 345.43 38.297 346.369Z" fill="white"/>
</g>
<rect x="26" y="66" width="1" height="30" fill="#C4C4C4"/>
<rect x="26" y="174" width="1" height="30" fill="#C4C4C4"/>
<rect x="26" y="282" width="1" height="30" fill="#C4C4C4"/>
<g clip-path="url(#clip1)">
<path d="M38.347 32.6136L34.9977 29.2643C33.8015 28.0681 31.7681 28.5467 31.2896 30.1016C30.9307 31.1782 29.7346 31.7763 28.658 31.537C26.2657 30.9389 23.036 27.8289 22.4379 25.317C22.0791 24.2404 22.7968 23.0442 23.8733 22.6854C25.4284 22.2069 25.9068 20.1734 24.7107 18.9773L21.3614 15.628C20.4044 14.7907 18.969 14.7907 18.1317 15.628L15.859 17.9007C13.5863 20.293 16.0982 26.6327 21.7202 32.2547C27.3422 37.8767 33.6819 40.5083 36.0743 38.116L38.347 35.8432C39.1843 34.8863 39.1843 33.4509 38.347 32.6136Z" fill="white"/>
</g>
<path d="M34.5294 130.172H25.8706L24.1482 128.125C24.0903 128.055 24.0035 128.016 23.9129 128.019H16.9271C15.8605 128.027 15 128.894 15 129.96V142.551C15.0013 143.621 15.8686 144.488 16.9388 144.49H34.5294C35.5996 144.488 36.4669 143.621 36.4682 142.551V132.111C36.4669 131.041 35.5996 130.173 34.5294 130.172Z" fill="white"/>
<path d="M37.0727 127.663H28.4116L26.6892 125.616C26.6313 125.547 26.5444 125.508 26.4539 125.51H19.4704C18.5026 125.512 17.6843 126.227 17.5527 127.186H23.9221C24.2561 127.185 24.5733 127.332 24.788 127.588L26.2586 129.336H34.5292C36.0589 129.339 37.2984 130.578 37.301 132.108V141.962C38.2709 141.841 38.999 141.017 38.9998 140.04V129.6C38.9973 128.535 38.1374 127.671 37.0727 127.663Z" fill="white"/>
<g clip-path="url(#clip2)">
<path d="M38.5969 241.729L27.8289 231.917C27.3563 231.487 26.6435 231.487 26.1711 231.917L15.403 241.729C15.0244 242.074 14.8994 242.606 15.0843 243.083C15.2693 243.561 15.7198 243.869 16.232 243.869H17.9519V253.7C17.9519 254.09 18.2679 254.406 18.6577 254.406H24.5599C24.9496 254.406 25.2657 254.09 25.2657 253.7V247.731H28.7345V253.7C28.7345 254.09 29.0505 254.406 29.4403 254.406H35.3422C35.732 254.406 36.048 254.09 36.048 253.7V243.869H37.7682C38.2803 243.869 38.7308 243.561 38.9159 243.083C39.1006 242.606 38.9755 242.074 38.5969 241.729Z" fill="white"/>
<path d="M35.8649 233.003H31.125L36.5707 237.955V233.709C36.5707 233.319 36.2548 233.003 35.8649 233.003Z" fill="white"/>
</g>
<defs>
<linearGradient id="paint0_linear" x1="27" y1="0" x2="27" y2="54" gradientUnits="userSpaceOnUse">
<stop stop-color="#4256AC"/>
<stop offset="1" stop-color="#293991"/>
</linearGradient>
<linearGradient id="paint1_linear" x1="27" y1="108" x2="27" y2="162" gradientUnits="userSpaceOnUse">
<stop stop-color="#4256AC"/>
<stop offset="1" stop-color="#293991"/>
</linearGradient>
<linearGradient id="paint2_linear" x1="27" y1="216" x2="27" y2="270" gradientUnits="userSpaceOnUse">
<stop stop-color="#4256AC"/>
<stop offset="1" stop-color="#293991"/>
</linearGradient>
<linearGradient id="paint3_linear" x1="27" y1="324" x2="27" y2="378" gradientUnits="userSpaceOnUse">
<stop stop-color="#4256AC"/>
<stop offset="1" stop-color="#293991"/>
</linearGradient>
<clipPath id="clip0">
<rect width="24" height="24" fill="white" transform="translate(15 339)"/>
</clipPath>
<clipPath id="clip1">
<rect width="24" height="24" fill="white" transform="translate(15 15)"/>
</clipPath>
<clipPath id="clip2">
<rect width="24" height="24" fill="white" transform="translate(15 231)"/>
</clipPath>
</defs>
</svg>
