<svg width="322" height="478" viewBox="0 0 322 478" fill="none" xmlns="http://www.w3.org/2000/svg">
<path d="M77.8613 23.0371C76.722 23.0371 75.8398 23.4668 75.2148 24.3262C74.5898 25.179 74.2773 26.3704 74.2773 27.9004C74.2773 31.084 75.472 32.6758 77.8613 32.6758C78.8639 32.6758 80.0781 32.4251 81.5039 31.9238V34.4629C80.332 34.9512 79.0234 35.1953 77.5781 35.1953C75.5013 35.1953 73.9128 34.5671 72.8125 33.3105C71.7122 32.0475 71.1621 30.2376 71.1621 27.8809C71.1621 26.3965 71.4323 25.0977 71.9727 23.9844C72.513 22.8646 73.2878 22.0085 74.2969 21.416C75.3125 20.8171 76.5007 20.5176 77.8613 20.5176C79.248 20.5176 80.6413 20.8529 82.041 21.5234L81.0645 23.9844C80.5306 23.7305 79.9935 23.5091 79.4531 23.3203C78.9128 23.1315 78.3822 23.0371 77.8613 23.0371ZM86.6895 29.5215C86.6895 30.6022 86.8652 31.4193 87.2168 31.9727C87.5749 32.526 88.1543 32.8027 88.9551 32.8027C89.7493 32.8027 90.319 32.5293 90.6641 31.9824C91.0156 31.429 91.1914 30.6087 91.1914 29.5215C91.1914 28.4408 91.0156 27.6302 90.6641 27.0898C90.3125 26.5495 89.7363 26.2793 88.9355 26.2793C88.1413 26.2793 87.5684 26.5495 87.2168 27.0898C86.8652 27.6237 86.6895 28.4342 86.6895 29.5215ZM94.2383 29.5215C94.2383 31.2988 93.7695 32.6888 92.832 33.6914C91.8945 34.694 90.5892 35.1953 88.916 35.1953C87.8678 35.1953 86.9434 34.9674 86.1426 34.5117C85.3418 34.0495 84.7266 33.3887 84.2969 32.5293C83.8672 31.6699 83.6523 30.6673 83.6523 29.5215C83.6523 27.7376 84.1178 26.3509 85.0488 25.3613C85.9798 24.3717 87.2884 23.877 88.9746 23.877C90.0228 23.877 90.9473 24.1048 91.748 24.5605C92.5488 25.0163 93.1641 25.6706 93.5938 26.5234C94.0234 27.3763 94.2383 28.3757 94.2383 29.5215ZM106.777 35H103.799V28.623C103.799 27.8353 103.659 27.2461 103.379 26.8555C103.099 26.4583 102.653 26.2598 102.041 26.2598C101.208 26.2598 100.605 26.5397 100.234 27.0996C99.8633 27.653 99.6777 28.5742 99.6777 29.8633V35H96.6992V24.082H98.9746L99.375 25.4785H99.541C99.873 24.9512 100.329 24.554 100.908 24.2871C101.494 24.0137 102.158 23.877 102.9 23.877C104.17 23.877 105.133 24.222 105.791 24.9121C106.449 25.5957 106.777 26.5853 106.777 27.8809V35ZM114.443 32.8223C114.964 32.8223 115.589 32.7083 116.318 32.4805V34.6973C115.576 35.0293 114.665 35.1953 113.584 35.1953C112.393 35.1953 111.523 34.8958 110.977 34.2969C110.436 33.6914 110.166 32.7865 110.166 31.582V26.3184H108.74V25.0586L110.381 24.0625L111.24 21.7578H113.145V24.082H116.201V26.3184H113.145V31.582C113.145 32.0052 113.262 32.3177 113.496 32.5195C113.737 32.7214 114.053 32.8223 114.443 32.8223ZM125.469 35L124.893 33.5156H124.814C124.313 34.1471 123.796 34.5866 123.262 34.834C122.734 35.0749 122.044 35.1953 121.191 35.1953C120.143 35.1953 119.316 34.8958 118.711 34.2969C118.112 33.6979 117.812 32.8451 117.812 31.7383C117.812 30.5794 118.216 29.7266 119.023 29.1797C119.837 28.6263 121.061 28.3203 122.695 28.2617L124.59 28.2031V27.7246C124.59 26.6178 124.023 26.0645 122.891 26.0645C122.018 26.0645 120.993 26.3281 119.814 26.8555L118.828 24.8438C120.085 24.1862 121.478 23.8574 123.008 23.8574C124.473 23.8574 125.596 24.1764 126.377 24.8145C127.158 25.4525 127.549 26.4225 127.549 27.7246V35H125.469ZM124.59 29.9414L123.438 29.9805C122.572 30.0065 121.927 30.1628 121.504 30.4492C121.081 30.7357 120.869 31.1719 120.869 31.7578C120.869 32.5977 121.351 33.0176 122.314 33.0176C123.005 33.0176 123.555 32.819 123.965 32.4219C124.382 32.0247 124.59 31.4974 124.59 30.8398V29.9414ZM135.059 35.1953C131.66 35.1953 129.961 33.3301 129.961 29.5996C129.961 27.7441 130.423 26.3281 131.348 25.3516C132.272 24.3685 133.597 23.877 135.322 23.877C136.585 23.877 137.718 24.1243 138.721 24.6191L137.842 26.9238C137.373 26.735 136.937 26.582 136.533 26.4648C136.13 26.3411 135.726 26.2793 135.322 26.2793C133.773 26.2793 132.998 27.3796 132.998 29.5801C132.998 31.7155 133.773 32.7832 135.322 32.7832C135.895 32.7832 136.426 32.7083 136.914 32.5586C137.402 32.4023 137.891 32.1615 138.379 31.8359V34.3848C137.897 34.6908 137.409 34.9023 136.914 35.0195C136.426 35.1367 135.807 35.1953 135.059 35.1953ZM145.518 32.8223C146.038 32.8223 146.663 32.7083 147.393 32.4805V34.6973C146.65 35.0293 145.739 35.1953 144.658 35.1953C143.467 35.1953 142.598 34.8958 142.051 34.2969C141.51 33.6914 141.24 32.7865 141.24 31.582V26.3184H139.814V25.0586L141.455 24.0625L142.314 21.7578H144.219V24.082H147.275V26.3184H144.219V31.582C144.219 32.0052 144.336 32.3177 144.57 32.5195C144.811 32.7214 145.127 32.8223 145.518 32.8223ZM155.039 35V20.7227H158.066V35H155.039ZM171.504 35H168.525V28.623C168.525 27.8353 168.385 27.2461 168.105 26.8555C167.826 26.4583 167.38 26.2598 166.768 26.2598C165.934 26.2598 165.332 26.5397 164.961 27.0996C164.59 27.653 164.404 28.5742 164.404 29.8633V35H161.426V24.082H163.701L164.102 25.4785H164.268C164.6 24.9512 165.055 24.554 165.635 24.2871C166.221 24.0137 166.885 23.877 167.627 23.877C168.896 23.877 169.86 24.222 170.518 24.9121C171.175 25.5957 171.504 26.5853 171.504 27.8809V35ZM180.605 26.3184H178.027V35H175.049V26.3184H173.408V24.8828L175.049 24.082V23.2812C175.049 22.0378 175.355 21.1296 175.967 20.5566C176.579 19.9837 177.559 19.6973 178.906 19.6973C179.935 19.6973 180.85 19.8503 181.65 20.1562L180.889 22.3438C180.29 22.1549 179.736 22.0605 179.229 22.0605C178.805 22.0605 178.499 22.1875 178.311 22.4414C178.122 22.6888 178.027 23.0078 178.027 23.3984V24.082H180.605V26.3184ZM184.697 29.5215C184.697 30.6022 184.873 31.4193 185.225 31.9727C185.583 32.526 186.162 32.8027 186.963 32.8027C187.757 32.8027 188.327 32.5293 188.672 31.9824C189.023 31.429 189.199 30.6087 189.199 29.5215C189.199 28.4408 189.023 27.6302 188.672 27.0898C188.32 26.5495 187.744 26.2793 186.943 26.2793C186.149 26.2793 185.576 26.5495 185.225 27.0898C184.873 27.6237 184.697 28.4342 184.697 29.5215ZM192.246 29.5215C192.246 31.2988 191.777 32.6888 190.84 33.6914C189.902 34.694 188.597 35.1953 186.924 35.1953C185.876 35.1953 184.951 34.9674 184.15 34.5117C183.35 34.0495 182.734 33.3887 182.305 32.5293C181.875 31.6699 181.66 30.6673 181.66 29.5215C181.66 27.7376 182.126 26.3509 183.057 25.3613C183.988 24.3717 185.296 23.877 186.982 23.877C188.031 23.877 188.955 24.1048 189.756 24.5605C190.557 25.0163 191.172 25.6706 191.602 26.5234C192.031 27.3763 192.246 28.3757 192.246 29.5215ZM200.801 23.877C201.204 23.877 201.54 23.9062 201.807 23.9648L201.582 26.7578C201.341 26.6927 201.048 26.6602 200.703 26.6602C199.753 26.6602 199.01 26.9043 198.477 27.3926C197.949 27.8809 197.686 28.5645 197.686 29.4434V35H194.707V24.082H196.963L197.402 25.918H197.549C197.887 25.306 198.343 24.8145 198.916 24.4434C199.495 24.0658 200.124 23.877 200.801 23.877ZM213.564 35H210.586V28.623C210.586 27.8353 210.452 27.2461 210.186 26.8555C209.925 26.4583 209.512 26.2598 208.945 26.2598C208.184 26.2598 207.63 26.5397 207.285 27.0996C206.94 27.6595 206.768 28.5807 206.768 29.8633V35H203.789V24.082H206.064L206.465 25.4785H206.631C206.924 24.9772 207.347 24.5866 207.9 24.3066C208.454 24.0202 209.089 23.877 209.805 23.877C211.439 23.877 212.546 24.4108 213.125 25.4785H213.389C213.682 24.9707 214.111 24.5768 214.678 24.2969C215.251 24.0169 215.895 23.877 216.611 23.877C217.848 23.877 218.783 24.196 219.414 24.834C220.052 25.4655 220.371 26.4811 220.371 27.8809V35H217.383V28.623C217.383 27.8353 217.249 27.2461 216.982 26.8555C216.722 26.4583 216.309 26.2598 215.742 26.2598C215.013 26.2598 214.466 26.5202 214.102 27.041C213.743 27.5618 213.564 28.3887 213.564 29.5215V35ZM230.371 35L229.795 33.5156H229.717C229.215 34.1471 228.698 34.5866 228.164 34.834C227.637 35.0749 226.947 35.1953 226.094 35.1953C225.046 35.1953 224.219 34.8958 223.613 34.2969C223.014 33.6979 222.715 32.8451 222.715 31.7383C222.715 30.5794 223.118 29.7266 223.926 29.1797C224.74 28.6263 225.964 28.3203 227.598 28.2617L229.492 28.2031V27.7246C229.492 26.6178 228.926 26.0645 227.793 26.0645C226.921 26.0645 225.895 26.3281 224.717 26.8555L223.73 24.8438C224.987 24.1862 226.38 23.8574 227.91 23.8574C229.375 23.8574 230.498 24.1764 231.279 24.8145C232.061 25.4525 232.451 26.4225 232.451 27.7246V35H230.371ZM229.492 29.9414L228.34 29.9805C227.474 30.0065 226.829 30.1628 226.406 30.4492C225.983 30.7357 225.771 31.1719 225.771 31.7578C225.771 32.5977 226.253 33.0176 227.217 33.0176C227.907 33.0176 228.457 32.819 228.867 32.4219C229.284 32.0247 229.492 31.4974 229.492 30.8398V29.9414ZM240.127 32.8223C240.648 32.8223 241.273 32.7083 242.002 32.4805V34.6973C241.26 35.0293 240.348 35.1953 239.268 35.1953C238.076 35.1953 237.207 34.8958 236.66 34.2969C236.12 33.6914 235.85 32.7865 235.85 31.582V26.3184H234.424V25.0586L236.064 24.0625L236.924 21.7578H238.828V24.082H241.885V26.3184H238.828V31.582C238.828 32.0052 238.945 32.3177 239.18 32.5195C239.421 32.7214 239.736 32.8223 240.127 32.8223ZM244.092 21.2598C244.092 20.2897 244.632 19.8047 245.713 19.8047C246.794 19.8047 247.334 20.2897 247.334 21.2598C247.334 21.722 247.197 22.0833 246.924 22.3438C246.657 22.5977 246.253 22.7246 245.713 22.7246C244.632 22.7246 244.092 22.2363 244.092 21.2598ZM247.197 35H244.219V24.082H247.197V35ZM252.705 29.5215C252.705 30.6022 252.881 31.4193 253.232 31.9727C253.59 32.526 254.17 32.8027 254.971 32.8027C255.765 32.8027 256.335 32.5293 256.68 31.9824C257.031 31.429 257.207 30.6087 257.207 29.5215C257.207 28.4408 257.031 27.6302 256.68 27.0898C256.328 26.5495 255.752 26.2793 254.951 26.2793C254.157 26.2793 253.584 26.5495 253.232 27.0898C252.881 27.6237 252.705 28.4342 252.705 29.5215ZM260.254 29.5215C260.254 31.2988 259.785 32.6888 258.848 33.6914C257.91 34.694 256.605 35.1953 254.932 35.1953C253.883 35.1953 252.959 34.9674 252.158 34.5117C251.357 34.0495 250.742 33.3887 250.312 32.5293C249.883 31.6699 249.668 30.6673 249.668 29.5215C249.668 27.7376 250.133 26.3509 251.064 25.3613C251.995 24.3717 253.304 23.877 254.99 23.877C256.038 23.877 256.963 24.1048 257.764 24.5605C258.564 25.0163 259.18 25.6706 259.609 26.5234C260.039 27.3763 260.254 28.3757 260.254 29.5215ZM272.793 35H269.814V28.623C269.814 27.8353 269.674 27.2461 269.395 26.8555C269.115 26.4583 268.669 26.2598 268.057 26.2598C267.223 26.2598 266.621 26.5397 266.25 27.0996C265.879 27.653 265.693 28.5742 265.693 29.8633V35H262.715V24.082H264.99L265.391 25.4785H265.557C265.889 24.9512 266.344 24.554 266.924 24.2871C267.51 24.0137 268.174 23.877 268.916 23.877C270.186 23.877 271.149 24.222 271.807 24.9121C272.464 25.5957 272.793 26.5853 272.793 27.8809V35Z" fill="black"/>
<path d="M80.0195 143H71.7969V128.723H80.0195V131.203H74.8242V134.338H79.6582V136.818H74.8242V140.5H80.0195V143ZM92.5488 143H89.5703V136.623C89.5703 135.835 89.4368 135.246 89.1699 134.855C88.9095 134.458 88.4961 134.26 87.9297 134.26C87.168 134.26 86.6146 134.54 86.2695 135.1C85.9245 135.66 85.752 136.581 85.752 137.863V143H82.7734V132.082H85.0488L85.4492 133.479H85.6152C85.9082 132.977 86.3314 132.587 86.8848 132.307C87.4382 132.02 88.0729 131.877 88.7891 131.877C90.4232 131.877 91.5299 132.411 92.1094 133.479H92.373C92.666 132.971 93.0957 132.577 93.6621 132.297C94.235 132.017 94.8796 131.877 95.5957 131.877C96.8327 131.877 97.7669 132.196 98.3984 132.834C99.0365 133.465 99.3555 134.481 99.3555 135.881V143H96.3672V136.623C96.3672 135.835 96.2337 135.246 95.9668 134.855C95.7064 134.458 95.293 134.26 94.7266 134.26C93.9974 134.26 93.4505 134.52 93.0859 135.041C92.7279 135.562 92.5488 136.389 92.5488 137.521V143ZM108.418 143.195C107.135 143.195 106.13 142.73 105.4 141.799H105.244C105.348 142.71 105.4 143.238 105.4 143.381V147.805H102.422V132.082H104.844L105.264 133.498H105.4C106.097 132.417 107.129 131.877 108.496 131.877C109.785 131.877 110.794 132.375 111.523 133.371C112.253 134.367 112.617 135.751 112.617 137.521C112.617 138.687 112.445 139.699 112.1 140.559C111.761 141.418 111.276 142.072 110.645 142.521C110.013 142.971 109.271 143.195 108.418 143.195ZM107.539 134.26C106.803 134.26 106.266 134.488 105.928 134.943C105.589 135.393 105.413 136.138 105.4 137.18V137.502C105.4 138.674 105.573 139.514 105.918 140.021C106.27 140.529 106.823 140.783 107.578 140.783C108.913 140.783 109.58 139.683 109.58 137.482C109.58 136.408 109.414 135.604 109.082 135.07C108.757 134.53 108.242 134.26 107.539 134.26ZM118.057 143H115.078V127.805H118.057V143ZM123.564 137.521C123.564 138.602 123.74 139.419 124.092 139.973C124.45 140.526 125.029 140.803 125.83 140.803C126.624 140.803 127.194 140.529 127.539 139.982C127.891 139.429 128.066 138.609 128.066 137.521C128.066 136.441 127.891 135.63 127.539 135.09C127.188 134.549 126.611 134.279 125.811 134.279C125.016 134.279 124.443 134.549 124.092 135.09C123.74 135.624 123.564 136.434 123.564 137.521ZM131.113 137.521C131.113 139.299 130.645 140.689 129.707 141.691C128.77 142.694 127.464 143.195 125.791 143.195C124.743 143.195 123.818 142.967 123.018 142.512C122.217 142.049 121.602 141.389 121.172 140.529C120.742 139.67 120.527 138.667 120.527 137.521C120.527 135.738 120.993 134.351 121.924 133.361C122.855 132.372 124.163 131.877 125.85 131.877C126.898 131.877 127.822 132.105 128.623 132.561C129.424 133.016 130.039 133.671 130.469 134.523C130.898 135.376 131.113 136.376 131.113 137.521ZM132.012 132.082H135.273L137.334 138.225C137.51 138.758 137.63 139.39 137.695 140.119H137.754C137.826 139.449 137.965 138.817 138.174 138.225L140.195 132.082H143.389L138.77 144.396C138.346 145.536 137.741 146.389 136.953 146.955C136.172 147.521 135.257 147.805 134.209 147.805C133.695 147.805 133.19 147.749 132.695 147.639V145.275C133.053 145.36 133.444 145.402 133.867 145.402C134.395 145.402 134.854 145.24 135.244 144.914C135.641 144.595 135.951 144.11 136.172 143.459L136.348 142.922L132.012 132.082ZM154.736 143H151.758V136.623C151.758 135.835 151.624 135.246 151.357 134.855C151.097 134.458 150.684 134.26 150.117 134.26C149.355 134.26 148.802 134.54 148.457 135.1C148.112 135.66 147.939 136.581 147.939 137.863V143H144.961V132.082H147.236L147.637 133.479H147.803C148.096 132.977 148.519 132.587 149.072 132.307C149.626 132.02 150.26 131.877 150.977 131.877C152.611 131.877 153.717 132.411 154.297 133.479H154.561C154.854 132.971 155.283 132.577 155.85 132.297C156.423 132.017 157.067 131.877 157.783 131.877C159.02 131.877 159.954 132.196 160.586 132.834C161.224 133.465 161.543 134.481 161.543 135.881V143H158.555V136.623C158.555 135.835 158.421 135.246 158.154 134.855C157.894 134.458 157.48 134.26 156.914 134.26C156.185 134.26 155.638 134.52 155.273 135.041C154.915 135.562 154.736 136.389 154.736 137.521V143ZM169.131 133.996C168.499 133.996 168.005 134.198 167.646 134.602C167.288 134.999 167.083 135.565 167.031 136.301H171.211C171.198 135.565 171.006 134.999 170.635 134.602C170.264 134.198 169.762 133.996 169.131 133.996ZM169.551 143.195C167.793 143.195 166.419 142.71 165.43 141.74C164.44 140.77 163.945 139.396 163.945 137.619C163.945 135.79 164.401 134.377 165.312 133.381C166.23 132.378 167.497 131.877 169.111 131.877C170.654 131.877 171.855 132.316 172.715 133.195C173.574 134.074 174.004 135.288 174.004 136.838V138.283H166.963C166.995 139.13 167.246 139.79 167.715 140.266C168.184 140.741 168.841 140.979 169.688 140.979C170.345 140.979 170.967 140.91 171.553 140.773C172.139 140.637 172.751 140.419 173.389 140.119V142.424C172.868 142.684 172.311 142.876 171.719 143C171.126 143.13 170.404 143.195 169.551 143.195ZM186.504 143H183.525V136.623C183.525 135.835 183.385 135.246 183.105 134.855C182.826 134.458 182.38 134.26 181.768 134.26C180.934 134.26 180.332 134.54 179.961 135.1C179.59 135.653 179.404 136.574 179.404 137.863V143H176.426V132.082H178.701L179.102 133.479H179.268C179.6 132.951 180.055 132.554 180.635 132.287C181.221 132.014 181.885 131.877 182.627 131.877C183.896 131.877 184.86 132.222 185.518 132.912C186.175 133.596 186.504 134.585 186.504 135.881V143ZM194.17 140.822C194.691 140.822 195.316 140.708 196.045 140.48V142.697C195.303 143.029 194.391 143.195 193.311 143.195C192.119 143.195 191.25 142.896 190.703 142.297C190.163 141.691 189.893 140.786 189.893 139.582V134.318H188.467V133.059L190.107 132.062L190.967 129.758H192.871V132.082H195.928V134.318H192.871V139.582C192.871 140.005 192.988 140.318 193.223 140.52C193.464 140.721 193.779 140.822 194.17 140.822ZM203.691 143V128.723H206.719V143H203.691ZM220.156 143H217.178V136.623C217.178 135.835 217.038 135.246 216.758 134.855C216.478 134.458 216.032 134.26 215.42 134.26C214.587 134.26 213.984 134.54 213.613 135.1C213.242 135.653 213.057 136.574 213.057 137.863V143H210.078V132.082H212.354L212.754 133.479H212.92C213.252 132.951 213.708 132.554 214.287 132.287C214.873 132.014 215.537 131.877 216.279 131.877C217.549 131.877 218.512 132.222 219.17 132.912C219.827 133.596 220.156 134.585 220.156 135.881V143ZM229.258 134.318H226.68V143H223.701V134.318H222.061V132.883L223.701 132.082V131.281C223.701 130.038 224.007 129.13 224.619 128.557C225.231 127.984 226.211 127.697 227.559 127.697C228.587 127.697 229.502 127.85 230.303 128.156L229.541 130.344C228.942 130.155 228.389 130.061 227.881 130.061C227.458 130.061 227.152 130.188 226.963 130.441C226.774 130.689 226.68 131.008 226.68 131.398V132.082H229.258V134.318ZM233.35 137.521C233.35 138.602 233.525 139.419 233.877 139.973C234.235 140.526 234.814 140.803 235.615 140.803C236.41 140.803 236.979 140.529 237.324 139.982C237.676 139.429 237.852 138.609 237.852 137.521C237.852 136.441 237.676 135.63 237.324 135.09C236.973 134.549 236.396 134.279 235.596 134.279C234.801 134.279 234.229 134.549 233.877 135.09C233.525 135.624 233.35 136.434 233.35 137.521ZM240.898 137.521C240.898 139.299 240.43 140.689 239.492 141.691C238.555 142.694 237.249 143.195 235.576 143.195C234.528 143.195 233.604 142.967 232.803 142.512C232.002 142.049 231.387 141.389 230.957 140.529C230.527 139.67 230.312 138.667 230.312 137.521C230.312 135.738 230.778 134.351 231.709 133.361C232.64 132.372 233.949 131.877 235.635 131.877C236.683 131.877 237.607 132.105 238.408 132.561C239.209 133.016 239.824 133.671 240.254 134.523C240.684 135.376 240.898 136.376 240.898 137.521ZM249.453 131.877C249.857 131.877 250.192 131.906 250.459 131.965L250.234 134.758C249.993 134.693 249.701 134.66 249.355 134.66C248.405 134.66 247.663 134.904 247.129 135.393C246.602 135.881 246.338 136.564 246.338 137.443V143H243.359V132.082H245.615L246.055 133.918H246.201C246.54 133.306 246.995 132.814 247.568 132.443C248.148 132.066 248.776 131.877 249.453 131.877ZM262.217 143H259.238V136.623C259.238 135.835 259.105 135.246 258.838 134.855C258.577 134.458 258.164 134.26 257.598 134.26C256.836 134.26 256.283 134.54 255.938 135.1C255.592 135.66 255.42 136.581 255.42 137.863V143H252.441V132.082H254.717L255.117 133.479H255.283C255.576 132.977 255.999 132.587 256.553 132.307C257.106 132.02 257.741 131.877 258.457 131.877C260.091 131.877 261.198 132.411 261.777 133.479H262.041C262.334 132.971 262.764 132.577 263.33 132.297C263.903 132.017 264.548 131.877 265.264 131.877C266.501 131.877 267.435 132.196 268.066 132.834C268.704 133.465 269.023 134.481 269.023 135.881V143H266.035V136.623C266.035 135.835 265.902 135.246 265.635 134.855C265.374 134.458 264.961 134.26 264.395 134.26C263.665 134.26 263.118 134.52 262.754 135.041C262.396 135.562 262.217 136.389 262.217 137.521V143ZM279.023 143L278.447 141.516H278.369C277.868 142.147 277.35 142.587 276.816 142.834C276.289 143.075 275.599 143.195 274.746 143.195C273.698 143.195 272.871 142.896 272.266 142.297C271.667 141.698 271.367 140.845 271.367 139.738C271.367 138.579 271.771 137.727 272.578 137.18C273.392 136.626 274.616 136.32 276.25 136.262L278.145 136.203V135.725C278.145 134.618 277.578 134.064 276.445 134.064C275.573 134.064 274.548 134.328 273.369 134.855L272.383 132.844C273.639 132.186 275.033 131.857 276.562 131.857C278.027 131.857 279.15 132.176 279.932 132.814C280.713 133.452 281.104 134.423 281.104 135.725V143H279.023ZM278.145 137.941L276.992 137.98C276.126 138.007 275.482 138.163 275.059 138.449C274.635 138.736 274.424 139.172 274.424 139.758C274.424 140.598 274.906 141.018 275.869 141.018C276.559 141.018 277.109 140.819 277.52 140.422C277.936 140.025 278.145 139.497 278.145 138.84V137.941ZM288.779 140.822C289.3 140.822 289.925 140.708 290.654 140.48V142.697C289.912 143.029 289.001 143.195 287.92 143.195C286.729 143.195 285.859 142.896 285.312 142.297C284.772 141.691 284.502 140.786 284.502 139.582V134.318H283.076V133.059L284.717 132.062L285.576 129.758H287.48V132.082H290.537V134.318H287.48V139.582C287.48 140.005 287.598 140.318 287.832 140.52C288.073 140.721 288.389 140.822 288.779 140.822ZM292.744 129.26C292.744 128.29 293.285 127.805 294.365 127.805C295.446 127.805 295.986 128.29 295.986 129.26C295.986 129.722 295.85 130.083 295.576 130.344C295.309 130.598 294.906 130.725 294.365 130.725C293.285 130.725 292.744 130.236 292.744 129.26ZM295.85 143H292.871V132.082H295.85V143ZM301.357 137.521C301.357 138.602 301.533 139.419 301.885 139.973C302.243 140.526 302.822 140.803 303.623 140.803C304.417 140.803 304.987 140.529 305.332 139.982C305.684 139.429 305.859 138.609 305.859 137.521C305.859 136.441 305.684 135.63 305.332 135.09C304.98 134.549 304.404 134.279 303.604 134.279C302.809 134.279 302.236 134.549 301.885 135.09C301.533 135.624 301.357 136.434 301.357 137.521ZM308.906 137.521C308.906 139.299 308.438 140.689 307.5 141.691C306.562 142.694 305.257 143.195 303.584 143.195C302.536 143.195 301.611 142.967 300.811 142.512C300.01 142.049 299.395 141.389 298.965 140.529C298.535 139.67 298.32 138.667 298.32 137.521C298.32 135.738 298.786 134.351 299.717 133.361C300.648 132.372 301.956 131.877 303.643 131.877C304.691 131.877 305.615 132.105 306.416 132.561C307.217 133.016 307.832 133.671 308.262 134.523C308.691 135.376 308.906 136.376 308.906 137.521ZM321.445 143H318.467V136.623C318.467 135.835 318.327 135.246 318.047 134.855C317.767 134.458 317.321 134.26 316.709 134.26C315.876 134.26 315.273 134.54 314.902 135.1C314.531 135.653 314.346 136.574 314.346 137.863V143H311.367V132.082H313.643L314.043 133.479H314.209C314.541 132.951 314.997 132.554 315.576 132.287C316.162 132.014 316.826 131.877 317.568 131.877C318.838 131.877 319.801 132.222 320.459 132.912C321.117 133.596 321.445 134.585 321.445 135.881V143Z" fill="black"/>
<path d="M83.4961 351H80.4785V344.838H74.8242V351H71.7969V336.723H74.8242V342.318H80.4785V336.723H83.4961V351ZM89.248 345.521C89.248 346.602 89.4238 347.419 89.7754 347.973C90.1335 348.526 90.7129 348.803 91.5137 348.803C92.3079 348.803 92.8776 348.529 93.2227 347.982C93.5742 347.429 93.75 346.609 93.75 345.521C93.75 344.441 93.5742 343.63 93.2227 343.09C92.8711 342.549 92.2949 342.279 91.4941 342.279C90.6999 342.279 90.127 342.549 89.7754 343.09C89.4238 343.624 89.248 344.434 89.248 345.521ZM96.7969 345.521C96.7969 347.299 96.3281 348.689 95.3906 349.691C94.4531 350.694 93.1478 351.195 91.4746 351.195C90.4264 351.195 89.502 350.967 88.7012 350.512C87.9004 350.049 87.2852 349.389 86.8555 348.529C86.4258 347.67 86.2109 346.667 86.2109 345.521C86.2109 343.738 86.6764 342.351 87.6074 341.361C88.5384 340.372 89.847 339.877 91.5332 339.877C92.5814 339.877 93.5059 340.105 94.3066 340.561C95.1074 341.016 95.7227 341.671 96.1523 342.523C96.582 343.376 96.7969 344.376 96.7969 345.521ZM109.033 351H106.055V344.623C106.055 343.835 105.921 343.246 105.654 342.855C105.394 342.458 104.98 342.26 104.414 342.26C103.652 342.26 103.099 342.54 102.754 343.1C102.409 343.66 102.236 344.581 102.236 345.863V351H99.2578V340.082H101.533L101.934 341.479H102.1C102.393 340.977 102.816 340.587 103.369 340.307C103.923 340.02 104.557 339.877 105.273 339.877C106.908 339.877 108.014 340.411 108.594 341.479H108.857C109.15 340.971 109.58 340.577 110.146 340.297C110.719 340.017 111.364 339.877 112.08 339.877C113.317 339.877 114.251 340.196 114.883 340.834C115.521 341.465 115.84 342.481 115.84 343.881V351H112.852V344.623C112.852 343.835 112.718 343.246 112.451 342.855C112.191 342.458 111.777 342.26 111.211 342.26C110.482 342.26 109.935 342.52 109.57 343.041C109.212 343.562 109.033 344.389 109.033 345.521V351ZM123.428 341.996C122.796 341.996 122.301 342.198 121.943 342.602C121.585 342.999 121.38 343.565 121.328 344.301H125.508C125.495 343.565 125.303 342.999 124.932 342.602C124.561 342.198 124.059 341.996 123.428 341.996ZM123.848 351.195C122.09 351.195 120.716 350.71 119.727 349.74C118.737 348.77 118.242 347.396 118.242 345.619C118.242 343.79 118.698 342.377 119.609 341.381C120.527 340.378 121.794 339.877 123.408 339.877C124.951 339.877 126.152 340.316 127.012 341.195C127.871 342.074 128.301 343.288 128.301 344.838V346.283H121.26C121.292 347.13 121.543 347.79 122.012 348.266C122.48 348.741 123.138 348.979 123.984 348.979C124.642 348.979 125.264 348.91 125.85 348.773C126.436 348.637 127.048 348.419 127.686 348.119V350.424C127.165 350.684 126.608 350.876 126.016 351C125.423 351.13 124.701 351.195 123.848 351.195ZM136.152 351V336.723H139.18V351H136.152ZM152.617 351H149.639V344.623C149.639 343.835 149.499 343.246 149.219 342.855C148.939 342.458 148.493 342.26 147.881 342.26C147.048 342.26 146.445 342.54 146.074 343.1C145.703 343.653 145.518 344.574 145.518 345.863V351H142.539V340.082H144.814L145.215 341.479H145.381C145.713 340.951 146.169 340.554 146.748 340.287C147.334 340.014 147.998 339.877 148.74 339.877C150.01 339.877 150.973 340.222 151.631 340.912C152.288 341.596 152.617 342.585 152.617 343.881V351ZM161.719 342.318H159.141V351H156.162V342.318H154.521V340.883L156.162 340.082V339.281C156.162 338.038 156.468 337.13 157.08 336.557C157.692 335.984 158.672 335.697 160.02 335.697C161.048 335.697 161.963 335.85 162.764 336.156L162.002 338.344C161.403 338.155 160.85 338.061 160.342 338.061C159.919 338.061 159.613 338.188 159.424 338.441C159.235 338.689 159.141 339.008 159.141 339.398V340.082H161.719V342.318ZM165.811 345.521C165.811 346.602 165.986 347.419 166.338 347.973C166.696 348.526 167.275 348.803 168.076 348.803C168.87 348.803 169.44 348.529 169.785 347.982C170.137 347.429 170.312 346.609 170.312 345.521C170.312 344.441 170.137 343.63 169.785 343.09C169.434 342.549 168.857 342.279 168.057 342.279C167.262 342.279 166.689 342.549 166.338 343.09C165.986 343.624 165.811 344.434 165.811 345.521ZM173.359 345.521C173.359 347.299 172.891 348.689 171.953 349.691C171.016 350.694 169.71 351.195 168.037 351.195C166.989 351.195 166.064 350.967 165.264 350.512C164.463 350.049 163.848 349.389 163.418 348.529C162.988 347.67 162.773 346.667 162.773 345.521C162.773 343.738 163.239 342.351 164.17 341.361C165.101 340.372 166.41 339.877 168.096 339.877C169.144 339.877 170.068 340.105 170.869 340.561C171.67 341.016 172.285 341.671 172.715 342.523C173.145 343.376 173.359 344.376 173.359 345.521ZM181.914 339.877C182.318 339.877 182.653 339.906 182.92 339.965L182.695 342.758C182.454 342.693 182.161 342.66 181.816 342.66C180.866 342.66 180.124 342.904 179.59 343.393C179.062 343.881 178.799 344.564 178.799 345.443V351H175.82V340.082H178.076L178.516 341.918H178.662C179.001 341.306 179.456 340.814 180.029 340.443C180.609 340.066 181.237 339.877 181.914 339.877ZM194.678 351H191.699V344.623C191.699 343.835 191.566 343.246 191.299 342.855C191.038 342.458 190.625 342.26 190.059 342.26C189.297 342.26 188.743 342.54 188.398 343.1C188.053 343.66 187.881 344.581 187.881 345.863V351H184.902V340.082H187.178L187.578 341.479H187.744C188.037 340.977 188.46 340.587 189.014 340.307C189.567 340.02 190.202 339.877 190.918 339.877C192.552 339.877 193.659 340.411 194.238 341.479H194.502C194.795 340.971 195.225 340.577 195.791 340.297C196.364 340.017 197.008 339.877 197.725 339.877C198.962 339.877 199.896 340.196 200.527 340.834C201.165 341.465 201.484 342.481 201.484 343.881V351H198.496V344.623C198.496 343.835 198.363 343.246 198.096 342.855C197.835 342.458 197.422 342.26 196.855 342.26C196.126 342.26 195.579 342.52 195.215 343.041C194.857 343.562 194.678 344.389 194.678 345.521V351ZM211.484 351L210.908 349.516H210.83C210.329 350.147 209.811 350.587 209.277 350.834C208.75 351.075 208.06 351.195 207.207 351.195C206.159 351.195 205.332 350.896 204.727 350.297C204.128 349.698 203.828 348.845 203.828 347.738C203.828 346.579 204.232 345.727 205.039 345.18C205.853 344.626 207.077 344.32 208.711 344.262L210.605 344.203V343.725C210.605 342.618 210.039 342.064 208.906 342.064C208.034 342.064 207.008 342.328 205.83 342.855L204.844 340.844C206.1 340.186 207.493 339.857 209.023 339.857C210.488 339.857 211.611 340.176 212.393 340.814C213.174 341.452 213.564 342.423 213.564 343.725V351H211.484ZM210.605 345.941L209.453 345.98C208.587 346.007 207.943 346.163 207.52 346.449C207.096 346.736 206.885 347.172 206.885 347.758C206.885 348.598 207.367 349.018 208.33 349.018C209.02 349.018 209.57 348.819 209.98 348.422C210.397 348.025 210.605 347.497 210.605 346.84V345.941ZM221.24 348.822C221.761 348.822 222.386 348.708 223.115 348.48V350.697C222.373 351.029 221.462 351.195 220.381 351.195C219.189 351.195 218.32 350.896 217.773 350.297C217.233 349.691 216.963 348.786 216.963 347.582V342.318H215.537V341.059L217.178 340.062L218.037 337.758H219.941V340.082H222.998V342.318H219.941V347.582C219.941 348.005 220.059 348.318 220.293 348.52C220.534 348.721 220.85 348.822 221.24 348.822ZM225.205 337.26C225.205 336.29 225.745 335.805 226.826 335.805C227.907 335.805 228.447 336.29 228.447 337.26C228.447 337.722 228.311 338.083 228.037 338.344C227.77 338.598 227.367 338.725 226.826 338.725C225.745 338.725 225.205 338.236 225.205 337.26ZM228.311 351H225.332V340.082H228.311V351ZM233.818 345.521C233.818 346.602 233.994 347.419 234.346 347.973C234.704 348.526 235.283 348.803 236.084 348.803C236.878 348.803 237.448 348.529 237.793 347.982C238.145 347.429 238.32 346.609 238.32 345.521C238.32 344.441 238.145 343.63 237.793 343.09C237.441 342.549 236.865 342.279 236.064 342.279C235.27 342.279 234.697 342.549 234.346 343.09C233.994 343.624 233.818 344.434 233.818 345.521ZM241.367 345.521C241.367 347.299 240.898 348.689 239.961 349.691C239.023 350.694 237.718 351.195 236.045 351.195C234.997 351.195 234.072 350.967 233.271 350.512C232.471 350.049 231.855 349.389 231.426 348.529C230.996 347.67 230.781 346.667 230.781 345.521C230.781 343.738 231.247 342.351 232.178 341.361C233.109 340.372 234.417 339.877 236.104 339.877C237.152 339.877 238.076 340.105 238.877 340.561C239.678 341.016 240.293 341.671 240.723 342.523C241.152 343.376 241.367 344.376 241.367 345.521ZM253.906 351H250.928V344.623C250.928 343.835 250.788 343.246 250.508 342.855C250.228 342.458 249.782 342.26 249.17 342.26C248.337 342.26 247.734 342.54 247.363 343.1C246.992 343.653 246.807 344.574 246.807 345.863V351H243.828V340.082H246.104L246.504 341.479H246.67C247.002 340.951 247.458 340.554 248.037 340.287C248.623 340.014 249.287 339.877 250.029 339.877C251.299 339.877 252.262 340.222 252.92 340.912C253.577 341.596 253.906 342.585 253.906 343.881V351Z" fill="black"/>
<path d="M77.8613 447.037C76.722 447.037 75.8398 447.467 75.2148 448.326C74.5898 449.179 74.2773 450.37 74.2773 451.9C74.2773 455.084 75.472 456.676 77.8613 456.676C78.8639 456.676 80.0781 456.425 81.5039 455.924V458.463C80.332 458.951 79.0234 459.195 77.5781 459.195C75.5013 459.195 73.9128 458.567 72.8125 457.311C71.7122 456.048 71.1621 454.238 71.1621 451.881C71.1621 450.396 71.4323 449.098 71.9727 447.984C72.513 446.865 73.2878 446.008 74.2969 445.416C75.3125 444.817 76.5007 444.518 77.8613 444.518C79.248 444.518 80.6413 444.853 82.041 445.523L81.0645 447.984C80.5306 447.73 79.9935 447.509 79.4531 447.32C78.9128 447.132 78.3822 447.037 77.8613 447.037ZM86.6895 453.521C86.6895 454.602 86.8652 455.419 87.2168 455.973C87.5749 456.526 88.1543 456.803 88.9551 456.803C89.7493 456.803 90.319 456.529 90.6641 455.982C91.0156 455.429 91.1914 454.609 91.1914 453.521C91.1914 452.441 91.0156 451.63 90.6641 451.09C90.3125 450.549 89.7363 450.279 88.9355 450.279C88.1413 450.279 87.5684 450.549 87.2168 451.09C86.8652 451.624 86.6895 452.434 86.6895 453.521ZM94.2383 453.521C94.2383 455.299 93.7695 456.689 92.832 457.691C91.8945 458.694 90.5892 459.195 88.916 459.195C87.8678 459.195 86.9434 458.967 86.1426 458.512C85.3418 458.049 84.7266 457.389 84.2969 456.529C83.8672 455.67 83.6523 454.667 83.6523 453.521C83.6523 451.738 84.1178 450.351 85.0488 449.361C85.9798 448.372 87.2884 447.877 88.9746 447.877C90.0228 447.877 90.9473 448.105 91.748 448.561C92.5488 449.016 93.1641 449.671 93.5938 450.523C94.0234 451.376 94.2383 452.376 94.2383 453.521ZM106.475 459H103.496V452.623C103.496 451.835 103.363 451.246 103.096 450.855C102.835 450.458 102.422 450.26 101.855 450.26C101.094 450.26 100.54 450.54 100.195 451.1C99.8503 451.66 99.6777 452.581 99.6777 453.863V459H96.6992V448.082H98.9746L99.375 449.479H99.541C99.834 448.977 100.257 448.587 100.811 448.307C101.364 448.02 101.999 447.877 102.715 447.877C104.349 447.877 105.456 448.411 106.035 449.479H106.299C106.592 448.971 107.021 448.577 107.588 448.297C108.161 448.017 108.805 447.877 109.521 447.877C110.758 447.877 111.693 448.196 112.324 448.834C112.962 449.465 113.281 450.481 113.281 451.881V459H110.293V452.623C110.293 451.835 110.16 451.246 109.893 450.855C109.632 450.458 109.219 450.26 108.652 450.26C107.923 450.26 107.376 450.52 107.012 451.041C106.654 451.562 106.475 452.389 106.475 453.521V459ZM122.344 459.195C121.061 459.195 120.055 458.73 119.326 457.799H119.17C119.274 458.71 119.326 459.238 119.326 459.381V463.805H116.348V448.082H118.77L119.189 449.498H119.326C120.023 448.417 121.055 447.877 122.422 447.877C123.711 447.877 124.72 448.375 125.449 449.371C126.178 450.367 126.543 451.751 126.543 453.521C126.543 454.687 126.37 455.699 126.025 456.559C125.687 457.418 125.202 458.072 124.57 458.521C123.939 458.971 123.197 459.195 122.344 459.195ZM121.465 450.26C120.729 450.26 120.192 450.488 119.854 450.943C119.515 451.393 119.339 452.138 119.326 453.18V453.502C119.326 454.674 119.499 455.514 119.844 456.021C120.195 456.529 120.749 456.783 121.504 456.783C122.839 456.783 123.506 455.683 123.506 453.482C123.506 452.408 123.34 451.604 123.008 451.07C122.682 450.53 122.168 450.26 121.465 450.26ZM131.982 459H129.004V443.805H131.982V459ZM139.639 449.996C139.007 449.996 138.512 450.198 138.154 450.602C137.796 450.999 137.591 451.565 137.539 452.301H141.719C141.706 451.565 141.514 450.999 141.143 450.602C140.771 450.198 140.27 449.996 139.639 449.996ZM140.059 459.195C138.301 459.195 136.927 458.71 135.938 457.74C134.948 456.77 134.453 455.396 134.453 453.619C134.453 451.79 134.909 450.377 135.82 449.381C136.738 448.378 138.005 447.877 139.619 447.877C141.162 447.877 142.363 448.316 143.223 449.195C144.082 450.074 144.512 451.288 144.512 452.838V454.283H137.471C137.503 455.13 137.754 455.79 138.223 456.266C138.691 456.741 139.349 456.979 140.195 456.979C140.853 456.979 141.475 456.91 142.061 456.773C142.646 456.637 143.258 456.419 143.896 456.119V458.424C143.376 458.684 142.819 458.876 142.227 459C141.634 459.13 140.911 459.195 140.059 459.195ZM151.533 456.822C152.054 456.822 152.679 456.708 153.408 456.48V458.697C152.666 459.029 151.755 459.195 150.674 459.195C149.482 459.195 148.613 458.896 148.066 458.297C147.526 457.691 147.256 456.786 147.256 455.582V450.318H145.83V449.059L147.471 448.062L148.33 445.758H150.234V448.082H153.291V450.318H150.234V455.582C150.234 456.005 150.352 456.318 150.586 456.52C150.827 456.721 151.143 456.822 151.533 456.822ZM160.146 449.996C159.515 449.996 159.02 450.198 158.662 450.602C158.304 450.999 158.099 451.565 158.047 452.301H162.227C162.214 451.565 162.021 450.999 161.65 450.602C161.279 450.198 160.778 449.996 160.146 449.996ZM160.566 459.195C158.809 459.195 157.435 458.71 156.445 457.74C155.456 456.77 154.961 455.396 154.961 453.619C154.961 451.79 155.417 450.377 156.328 449.381C157.246 448.378 158.512 447.877 160.127 447.877C161.67 447.877 162.871 448.316 163.73 449.195C164.59 450.074 165.02 451.288 165.02 452.838V454.283H157.979C158.011 455.13 158.262 455.79 158.73 456.266C159.199 456.741 159.857 456.979 160.703 456.979C161.361 456.979 161.982 456.91 162.568 456.773C163.154 456.637 163.766 456.419 164.404 456.119V458.424C163.883 458.684 163.327 458.876 162.734 459C162.142 459.13 161.419 459.195 160.566 459.195ZM170.898 459.195C169.616 459.195 168.607 458.697 167.871 457.701C167.142 456.705 166.777 455.325 166.777 453.561C166.777 451.77 167.148 450.377 167.891 449.381C168.639 448.378 169.668 447.877 170.977 447.877C172.35 447.877 173.398 448.411 174.121 449.479H174.219C174.069 448.665 173.994 447.939 173.994 447.301V443.805H176.982V459H174.697L174.121 457.584H173.994C173.317 458.658 172.285 459.195 170.898 459.195ZM171.943 456.822C172.705 456.822 173.262 456.601 173.613 456.158C173.971 455.715 174.167 454.964 174.199 453.902V453.58C174.199 452.408 174.017 451.568 173.652 451.061C173.294 450.553 172.708 450.299 171.895 450.299C171.23 450.299 170.713 450.582 170.342 451.148C169.977 451.708 169.795 452.525 169.795 453.6C169.795 454.674 169.98 455.481 170.352 456.021C170.723 456.555 171.253 456.822 171.943 456.822Z" fill="black"/>
<path d="M53.4922 194.859C53.4922 195.964 53.1172 196.81 52.3672 197.398C51.6172 197.987 50.5547 198.281 49.1797 198.281H47.4141V203H46.6172V191.578H49.4141C52.1328 191.578 53.4922 192.672 53.4922 194.859ZM47.4141 197.594H48.9844C50.2708 197.594 51.2005 197.383 51.7734 196.961C52.3464 196.534 52.6328 195.844 52.6328 194.891C52.6328 194.01 52.362 193.359 51.8203 192.938C51.2786 192.51 50.4401 192.297 49.3047 192.297H47.4141V197.594ZM59.125 194.344C59.4844 194.344 59.8698 194.38 60.2812 194.453L60.1328 195.195C59.7786 195.107 59.4115 195.062 59.0312 195.062C58.3073 195.062 57.7135 195.37 57.25 195.984C56.7865 196.599 56.5547 197.375 56.5547 198.312V203H55.7812V194.508H56.4375L56.5156 196.039H56.5703C56.9193 195.414 57.2917 194.977 57.6875 194.727C58.0833 194.471 58.5625 194.344 59.125 194.344ZM69.0391 198.742C69.0391 200.128 68.7031 201.211 68.0312 201.992C67.3594 202.768 66.4323 203.156 65.25 203.156C64.5052 203.156 63.849 202.977 63.2812 202.617C62.7135 202.258 62.2786 201.742 61.9766 201.07C61.6745 200.398 61.5234 199.622 61.5234 198.742C61.5234 197.357 61.8594 196.279 62.5312 195.508C63.2031 194.732 64.125 194.344 65.2969 194.344C66.4635 194.344 67.3776 194.737 68.0391 195.523C68.7057 196.305 69.0391 197.378 69.0391 198.742ZM62.3359 198.742C62.3359 199.909 62.5911 200.82 63.1016 201.477C63.6172 202.128 64.3438 202.453 65.2812 202.453C66.2188 202.453 66.9427 202.128 67.4531 201.477C67.9688 200.82 68.2266 199.909 68.2266 198.742C68.2266 197.57 67.9661 196.661 67.4453 196.016C66.9297 195.37 66.2031 195.047 65.2656 195.047C64.3281 195.047 63.6042 195.37 63.0938 196.016C62.5885 196.656 62.3359 197.565 62.3359 198.742ZM73.25 203L69.9688 194.508H70.7656L72.9609 200.281C73.2526 201.021 73.4714 201.667 73.6172 202.219H73.6641C73.8776 201.51 74.0964 200.859 74.3203 200.266L76.5156 194.508H77.3125L74.0312 203H73.25ZM79.5078 203H78.7344V194.508H79.5078V203ZM78.625 192.148C78.625 191.648 78.7891 191.398 79.1172 191.398C79.2786 191.398 79.4036 191.464 79.4922 191.594C79.5859 191.724 79.6328 191.909 79.6328 192.148C79.6328 192.383 79.5859 192.568 79.4922 192.703C79.4036 192.839 79.2786 192.906 79.1172 192.906C78.7891 192.906 78.625 192.654 78.625 192.148ZM85.4688 194.344C86.0833 194.344 86.6146 194.456 87.0625 194.68C87.5104 194.904 87.9115 195.286 88.2656 195.828H88.3125C88.2812 195.172 88.2656 194.529 88.2656 193.898V190.844H89.0312V203H88.5234L88.3281 201.703H88.2656C87.6198 202.672 86.6927 203.156 85.4844 203.156C84.3125 203.156 83.4167 202.792 82.7969 202.062C82.1771 201.333 81.8672 200.271 81.8672 198.875C81.8672 197.406 82.1745 196.284 82.7891 195.508C83.4036 194.732 84.2969 194.344 85.4688 194.344ZM85.4688 195.047C84.5417 195.047 83.8438 195.372 83.375 196.023C82.9115 196.674 82.6797 197.62 82.6797 198.859C82.6797 201.266 83.6146 202.469 85.4844 202.469C86.4427 202.469 87.1458 202.19 87.5938 201.633C88.0417 201.076 88.2656 200.156 88.2656 198.875V198.742C88.2656 197.43 88.0443 196.487 87.6016 195.914C87.1641 195.336 86.4531 195.047 85.4688 195.047ZM95.3203 203.156C94.0859 203.156 93.1224 202.776 92.4297 202.016C91.7422 201.255 91.3984 200.19 91.3984 198.82C91.3984 197.466 91.7318 196.383 92.3984 195.57C93.0651 194.753 93.9635 194.344 95.0938 194.344C96.0938 194.344 96.8828 194.693 97.4609 195.391C98.0391 196.089 98.3281 197.036 98.3281 198.234V198.859H92.2109C92.2214 200.026 92.4922 200.917 93.0234 201.531C93.5599 202.146 94.3255 202.453 95.3203 202.453C95.8047 202.453 96.2292 202.419 96.5938 202.352C96.9635 202.284 97.4297 202.138 97.9922 201.914V202.617C97.513 202.826 97.0703 202.966 96.6641 203.039C96.2578 203.117 95.8099 203.156 95.3203 203.156ZM95.0938 195.031C94.276 195.031 93.6198 195.302 93.125 195.844C92.6302 196.38 92.3411 197.156 92.2578 198.172H97.5078C97.5078 197.188 97.2943 196.419 96.8672 195.867C96.4401 195.31 95.849 195.031 95.0938 195.031ZM103.406 194.508H104.203L106 199.273C106.547 200.737 106.893 201.724 107.039 202.234H107.086C107.305 201.562 107.661 200.56 108.156 199.227L109.953 194.508H110.75L106.945 204.375C106.638 205.177 106.38 205.719 106.172 206C105.964 206.281 105.719 206.492 105.438 206.633C105.161 206.773 104.826 206.844 104.43 206.844C104.133 206.844 103.802 206.789 103.438 206.68V206.008C103.74 206.091 104.065 206.133 104.414 206.133C104.68 206.133 104.914 206.07 105.117 205.945C105.32 205.82 105.503 205.625 105.664 205.359C105.831 205.099 106.021 204.682 106.234 204.109C106.453 203.542 106.594 203.172 106.656 203L103.406 194.508ZM119.195 198.742C119.195 200.128 118.859 201.211 118.188 201.992C117.516 202.768 116.589 203.156 115.406 203.156C114.661 203.156 114.005 202.977 113.438 202.617C112.87 202.258 112.435 201.742 112.133 201.07C111.831 200.398 111.68 199.622 111.68 198.742C111.68 197.357 112.016 196.279 112.688 195.508C113.359 194.732 114.281 194.344 115.453 194.344C116.62 194.344 117.534 194.737 118.195 195.523C118.862 196.305 119.195 197.378 119.195 198.742ZM112.492 198.742C112.492 199.909 112.747 200.82 113.258 201.477C113.773 202.128 114.5 202.453 115.438 202.453C116.375 202.453 117.099 202.128 117.609 201.477C118.125 200.82 118.383 199.909 118.383 198.742C118.383 197.57 118.122 196.661 117.602 196.016C117.086 195.37 116.359 195.047 115.422 195.047C114.484 195.047 113.76 195.37 113.25 196.016C112.745 196.656 112.492 197.565 112.492 198.742ZM122.219 194.508V200.008C122.219 200.862 122.398 201.484 122.758 201.875C123.117 202.26 123.674 202.453 124.43 202.453C125.44 202.453 126.182 202.198 126.656 201.688C127.135 201.177 127.375 200.346 127.375 199.195V194.508H128.141V203H127.484L127.344 201.828H127.297C126.745 202.714 125.763 203.156 124.352 203.156C122.419 203.156 121.453 202.122 121.453 200.055V194.508H122.219ZM134.328 194.344C134.688 194.344 135.073 194.38 135.484 194.453L135.336 195.195C134.982 195.107 134.615 195.062 134.234 195.062C133.51 195.062 132.917 195.37 132.453 195.984C131.99 196.599 131.758 197.375 131.758 198.312V203H130.984V194.508H131.641L131.719 196.039H131.773C132.122 195.414 132.495 194.977 132.891 194.727C133.286 194.471 133.766 194.344 134.328 194.344ZM144.805 203.156C143.57 203.156 142.607 202.776 141.914 202.016C141.227 201.255 140.883 200.19 140.883 198.82C140.883 197.466 141.216 196.383 141.883 195.57C142.549 194.753 143.448 194.344 144.578 194.344C145.578 194.344 146.367 194.693 146.945 195.391C147.523 196.089 147.812 197.036 147.812 198.234V198.859H141.695C141.706 200.026 141.977 200.917 142.508 201.531C143.044 202.146 143.81 202.453 144.805 202.453C145.289 202.453 145.714 202.419 146.078 202.352C146.448 202.284 146.914 202.138 147.477 201.914V202.617C146.997 202.826 146.555 202.966 146.148 203.039C145.742 203.117 145.294 203.156 144.805 203.156ZM144.578 195.031C143.76 195.031 143.104 195.302 142.609 195.844C142.115 196.38 141.826 197.156 141.742 198.172H146.992C146.992 197.188 146.779 196.419 146.352 195.867C145.924 195.31 145.333 195.031 144.578 195.031ZM160.766 203V197.43C160.766 196.602 160.604 195.997 160.281 195.617C159.958 195.237 159.464 195.047 158.797 195.047C157.927 195.047 157.284 195.286 156.867 195.766C156.451 196.245 156.242 196.997 156.242 198.023V203H155.453V197.195C155.453 195.763 154.797 195.047 153.484 195.047C152.594 195.047 151.945 195.307 151.539 195.828C151.133 196.344 150.93 197.172 150.93 198.312V203H150.156V194.508H150.797L150.961 195.672H151.008C151.242 195.25 151.576 194.924 152.008 194.695C152.44 194.461 152.917 194.344 153.438 194.344C154.776 194.344 155.635 194.846 156.016 195.852H156.047C156.323 195.367 156.693 194.995 157.156 194.734C157.625 194.474 158.156 194.344 158.75 194.344C159.677 194.344 160.372 194.591 160.836 195.086C161.299 195.581 161.531 196.367 161.531 197.445V203H160.766ZM167.914 203.156C166.607 203.156 165.654 202.667 165.055 201.688H165L165.023 202.344C165.044 202.729 165.055 203.151 165.055 203.609V206.844H164.281V194.508H164.938L165.086 195.719H165.133C165.716 194.802 166.648 194.344 167.93 194.344C169.076 194.344 169.948 194.721 170.547 195.477C171.151 196.227 171.453 197.32 171.453 198.758C171.453 200.154 171.135 201.237 170.5 202.008C169.87 202.773 169.008 203.156 167.914 203.156ZM167.898 202.469C168.768 202.469 169.44 202.146 169.914 201.5C170.393 200.854 170.633 199.951 170.633 198.789C170.633 196.294 169.732 195.047 167.93 195.047C166.94 195.047 166.214 195.32 165.75 195.867C165.286 196.409 165.055 197.294 165.055 198.523V198.773C165.055 200.102 165.276 201.049 165.719 201.617C166.167 202.185 166.893 202.469 167.898 202.469ZM174.586 203H173.812V190.844H174.586V203ZM184.461 198.742C184.461 200.128 184.125 201.211 183.453 201.992C182.781 202.768 181.854 203.156 180.672 203.156C179.927 203.156 179.271 202.977 178.703 202.617C178.135 202.258 177.701 201.742 177.398 201.07C177.096 200.398 176.945 199.622 176.945 198.742C176.945 197.357 177.281 196.279 177.953 195.508C178.625 194.732 179.547 194.344 180.719 194.344C181.885 194.344 182.799 194.737 183.461 195.523C184.128 196.305 184.461 197.378 184.461 198.742ZM177.758 198.742C177.758 199.909 178.013 200.82 178.523 201.477C179.039 202.128 179.766 202.453 180.703 202.453C181.641 202.453 182.365 202.128 182.875 201.477C183.391 200.82 183.648 199.909 183.648 198.742C183.648 197.57 183.388 196.661 182.867 196.016C182.352 195.37 181.625 195.047 180.688 195.047C179.75 195.047 179.026 195.37 178.516 196.016C178.01 196.656 177.758 197.565 177.758 198.742ZM185.391 194.508H186.188L187.984 199.273C188.531 200.737 188.878 201.724 189.023 202.234H189.07C189.289 201.562 189.646 200.56 190.141 199.227L191.938 194.508H192.734L188.93 204.375C188.622 205.177 188.365 205.719 188.156 206C187.948 206.281 187.703 206.492 187.422 206.633C187.146 206.773 186.81 206.844 186.414 206.844C186.117 206.844 185.786 206.789 185.422 206.68V206.008C185.724 206.091 186.049 206.133 186.398 206.133C186.664 206.133 186.898 206.07 187.102 205.945C187.305 205.82 187.487 205.625 187.648 205.359C187.815 205.099 188.005 204.682 188.219 204.109C188.438 203.542 188.578 203.172 188.641 203L185.391 194.508ZM204.766 203V197.43C204.766 196.602 204.604 195.997 204.281 195.617C203.958 195.237 203.464 195.047 202.797 195.047C201.927 195.047 201.284 195.286 200.867 195.766C200.451 196.245 200.242 196.997 200.242 198.023V203H199.453V197.195C199.453 195.763 198.797 195.047 197.484 195.047C196.594 195.047 195.945 195.307 195.539 195.828C195.133 196.344 194.93 197.172 194.93 198.312V203H194.156V194.508H194.797L194.961 195.672H195.008C195.242 195.25 195.576 194.924 196.008 194.695C196.44 194.461 196.917 194.344 197.438 194.344C198.776 194.344 199.635 194.846 200.016 195.852H200.047C200.323 195.367 200.693 194.995 201.156 194.734C201.625 194.474 202.156 194.344 202.75 194.344C203.677 194.344 204.372 194.591 204.836 195.086C205.299 195.581 205.531 196.367 205.531 197.445V203H204.766ZM211.711 203.156C210.477 203.156 209.513 202.776 208.82 202.016C208.133 201.255 207.789 200.19 207.789 198.82C207.789 197.466 208.122 196.383 208.789 195.57C209.456 194.753 210.354 194.344 211.484 194.344C212.484 194.344 213.273 194.693 213.852 195.391C214.43 196.089 214.719 197.036 214.719 198.234V198.859H208.602C208.612 200.026 208.883 200.917 209.414 201.531C209.951 202.146 210.716 202.453 211.711 202.453C212.195 202.453 212.62 202.419 212.984 202.352C213.354 202.284 213.82 202.138 214.383 201.914V202.617C213.904 202.826 213.461 202.966 213.055 203.039C212.648 203.117 212.201 203.156 211.711 203.156ZM211.484 195.031C210.667 195.031 210.01 195.302 209.516 195.844C209.021 196.38 208.732 197.156 208.648 198.172H213.898C213.898 197.188 213.685 196.419 213.258 195.867C212.831 195.31 212.24 195.031 211.484 195.031ZM222.984 203V197.492C222.984 196.638 222.805 196.018 222.445 195.633C222.086 195.242 221.529 195.047 220.773 195.047C219.758 195.047 219.013 195.305 218.539 195.82C218.07 196.331 217.836 197.161 217.836 198.312V203H217.062V194.508H217.719L217.867 195.672H217.914C218.466 194.786 219.448 194.344 220.859 194.344C222.786 194.344 223.75 195.378 223.75 197.445V203H222.984ZM228.742 202.469C229.232 202.469 229.659 202.427 230.023 202.344V202.969C229.648 203.094 229.216 203.156 228.727 203.156C227.977 203.156 227.422 202.956 227.062 202.555C226.708 202.154 226.531 201.523 226.531 200.664V195.18H225.273V194.727L226.531 194.375L226.922 192.453H227.32V194.508H229.812V195.18H227.32V200.555C227.32 201.206 227.435 201.688 227.664 202C227.893 202.312 228.253 202.469 228.742 202.469ZM241.172 203L240.977 201.656H240.914C240.487 202.203 240.047 202.591 239.594 202.82C239.146 203.044 238.615 203.156 238 203.156C237.167 203.156 236.518 202.943 236.055 202.516C235.591 202.089 235.359 201.497 235.359 200.742C235.359 199.914 235.703 199.271 236.391 198.812C237.083 198.354 238.083 198.112 239.391 198.086L241.008 198.039V197.477C241.008 196.669 240.844 196.06 240.516 195.648C240.188 195.237 239.659 195.031 238.93 195.031C238.143 195.031 237.328 195.25 236.484 195.688L236.195 195.016C237.128 194.578 238.049 194.359 238.961 194.359C239.893 194.359 240.589 194.602 241.047 195.086C241.51 195.57 241.742 196.326 241.742 197.352V203H241.172ZM238.047 202.453C238.953 202.453 239.667 202.195 240.188 201.68C240.714 201.159 240.977 200.438 240.977 199.516V198.68L239.492 198.742C238.299 198.799 237.448 198.987 236.938 199.305C236.432 199.617 236.18 200.107 236.18 200.773C236.18 201.305 236.341 201.719 236.664 202.016C236.992 202.307 237.453 202.453 238.047 202.453ZM250.422 203V197.492C250.422 196.638 250.242 196.018 249.883 195.633C249.523 195.242 248.966 195.047 248.211 195.047C247.195 195.047 246.451 195.305 245.977 195.82C245.508 196.331 245.273 197.161 245.273 198.312V203H244.5V194.508H245.156L245.305 195.672H245.352C245.904 194.786 246.885 194.344 248.297 194.344C250.224 194.344 251.188 195.378 251.188 197.445V203H250.422ZM257.047 194.344C257.661 194.344 258.193 194.456 258.641 194.68C259.089 194.904 259.49 195.286 259.844 195.828H259.891C259.859 195.172 259.844 194.529 259.844 193.898V190.844H260.609V203H260.102L259.906 201.703H259.844C259.198 202.672 258.271 203.156 257.062 203.156C255.891 203.156 254.995 202.792 254.375 202.062C253.755 201.333 253.445 200.271 253.445 198.875C253.445 197.406 253.753 196.284 254.367 195.508C254.982 194.732 255.875 194.344 257.047 194.344ZM257.047 195.047C256.12 195.047 255.422 195.372 254.953 196.023C254.49 196.674 254.258 197.62 254.258 198.859C254.258 201.266 255.193 202.469 257.062 202.469C258.021 202.469 258.724 202.19 259.172 201.633C259.62 201.076 259.844 200.156 259.844 198.875V198.742C259.844 197.43 259.622 196.487 259.18 195.914C258.742 195.336 258.031 195.047 257.047 195.047ZM47.1953 225H46.4219V216.508H47.1953V225ZM46.3125 214.148C46.3125 213.648 46.4766 213.398 46.8047 213.398C46.9661 213.398 47.0911 213.464 47.1797 213.594C47.2734 213.724 47.3203 213.909 47.3203 214.148C47.3203 214.383 47.2734 214.568 47.1797 214.703C47.0911 214.839 46.9661 214.906 46.8047 214.906C46.4766 214.906 46.3125 214.654 46.3125 214.148ZM55.9688 225V219.492C55.9688 218.638 55.7891 218.018 55.4297 217.633C55.0703 217.242 54.513 217.047 53.7578 217.047C52.7422 217.047 51.9974 217.305 51.5234 217.82C51.0547 218.331 50.8203 219.161 50.8203 220.312V225H50.0469V216.508H50.7031L50.8516 217.672H50.8984C51.4505 216.786 52.4323 216.344 53.8438 216.344C55.7708 216.344 56.7344 217.378 56.7344 219.445V225H55.9688ZM62.875 225.156C61.6615 225.156 60.7109 224.773 60.0234 224.008C59.3359 223.242 58.9922 222.174 58.9922 220.805C58.9922 219.398 59.349 218.305 60.0625 217.523C60.776 216.737 61.7526 216.344 62.9922 216.344C63.7266 216.344 64.4297 216.471 65.1016 216.727L64.8906 217.414C64.1562 217.169 63.5182 217.047 62.9766 217.047C61.9349 217.047 61.1458 217.37 60.6094 218.016C60.0729 218.656 59.8047 219.581 59.8047 220.789C59.8047 221.935 60.0729 222.833 60.6094 223.484C61.1458 224.13 61.8958 224.453 62.8594 224.453C63.6302 224.453 64.3464 224.315 65.0078 224.039V224.758C64.4661 225.023 63.7552 225.156 62.875 225.156ZM74.1172 220.742C74.1172 222.128 73.7812 223.211 73.1094 223.992C72.4375 224.768 71.5104 225.156 70.3281 225.156C69.5833 225.156 68.9271 224.977 68.3594 224.617C67.7917 224.258 67.3568 223.742 67.0547 223.07C66.7526 222.398 66.6016 221.622 66.6016 220.742C66.6016 219.357 66.9375 218.279 67.6094 217.508C68.2812 216.732 69.2031 216.344 70.375 216.344C71.5417 216.344 72.4557 216.737 73.1172 217.523C73.7839 218.305 74.1172 219.378 74.1172 220.742ZM67.4141 220.742C67.4141 221.909 67.6693 222.82 68.1797 223.477C68.6953 224.128 69.4219 224.453 70.3594 224.453C71.2969 224.453 72.0208 224.128 72.5312 223.477C73.0469 222.82 73.3047 221.909 73.3047 220.742C73.3047 219.57 73.0443 218.661 72.5234 218.016C72.0078 217.37 71.2812 217.047 70.3438 217.047C69.4062 217.047 68.6823 217.37 68.1719 218.016C67.6667 218.656 67.4141 219.565 67.4141 220.742ZM87.0781 225V219.43C87.0781 218.602 86.9167 217.997 86.5938 217.617C86.2708 217.237 85.776 217.047 85.1094 217.047C84.2396 217.047 83.5964 217.286 83.1797 217.766C82.763 218.245 82.5547 218.997 82.5547 220.023V225H81.7656V219.195C81.7656 217.763 81.1094 217.047 79.7969 217.047C78.9062 217.047 78.2578 217.307 77.8516 217.828C77.4453 218.344 77.2422 219.172 77.2422 220.312V225H76.4688V216.508H77.1094L77.2734 217.672H77.3203C77.5547 217.25 77.888 216.924 78.3203 216.695C78.7526 216.461 79.2292 216.344 79.75 216.344C81.0885 216.344 81.9479 216.846 82.3281 217.852H82.3594C82.6354 217.367 83.0052 216.995 83.4688 216.734C83.9375 216.474 84.4688 216.344 85.0625 216.344C85.9896 216.344 86.6849 216.591 87.1484 217.086C87.612 217.581 87.8438 218.367 87.8438 219.445V225H87.0781ZM94.0234 225.156C92.7891 225.156 91.8255 224.776 91.1328 224.016C90.4453 223.255 90.1016 222.19 90.1016 220.82C90.1016 219.466 90.4349 218.383 91.1016 217.57C91.7682 216.753 92.6667 216.344 93.7969 216.344C94.7969 216.344 95.5859 216.693 96.1641 217.391C96.7422 218.089 97.0312 219.036 97.0312 220.234V220.859H90.9141C90.9245 222.026 91.1953 222.917 91.7266 223.531C92.263 224.146 93.0286 224.453 94.0234 224.453C94.5078 224.453 94.9323 224.419 95.2969 224.352C95.6667 224.284 96.1328 224.138 96.6953 223.914V224.617C96.2161 224.826 95.7734 224.966 95.3672 225.039C94.9609 225.117 94.513 225.156 94.0234 225.156ZM93.7969 217.031C92.9792 217.031 92.3229 217.302 91.8281 217.844C91.3333 218.38 91.0443 219.156 90.9609 220.172H96.2109C96.2109 219.188 95.9974 218.419 95.5703 217.867C95.1432 217.31 94.5521 217.031 93.7969 217.031ZM109.758 225H108.984V216.508H109.758V225ZM108.875 214.148C108.875 213.648 109.039 213.398 109.367 213.398C109.529 213.398 109.654 213.464 109.742 213.594C109.836 213.724 109.883 213.909 109.883 214.148C109.883 214.383 109.836 214.568 109.742 214.703C109.654 214.839 109.529 214.906 109.367 214.906C109.039 214.906 108.875 214.654 108.875 214.148ZM118.531 225V219.492C118.531 218.638 118.352 218.018 117.992 217.633C117.633 217.242 117.076 217.047 116.32 217.047C115.305 217.047 114.56 217.305 114.086 217.82C113.617 218.331 113.383 219.161 113.383 220.312V225H112.609V216.508H113.266L113.414 217.672H113.461C114.013 216.786 114.995 216.344 116.406 216.344C118.333 216.344 119.297 217.378 119.297 219.445V225H118.531ZM125.203 217.18H123.203V225H122.43V217.18H120.852V216.727L122.43 216.438V215.781C122.43 214.74 122.62 213.977 123 213.492C123.385 213.003 124.013 212.758 124.883 212.758C125.352 212.758 125.82 212.828 126.289 212.969L126.109 213.641C125.693 213.51 125.279 213.445 124.867 213.445C124.263 213.445 123.833 213.625 123.578 213.984C123.328 214.339 123.203 214.917 123.203 215.719V216.508H125.203V217.18ZM133.867 220.742C133.867 222.128 133.531 223.211 132.859 223.992C132.188 224.768 131.26 225.156 130.078 225.156C129.333 225.156 128.677 224.977 128.109 224.617C127.542 224.258 127.107 223.742 126.805 223.07C126.503 222.398 126.352 221.622 126.352 220.742C126.352 219.357 126.688 218.279 127.359 217.508C128.031 216.732 128.953 216.344 130.125 216.344C131.292 216.344 132.206 216.737 132.867 217.523C133.534 218.305 133.867 219.378 133.867 220.742ZM127.164 220.742C127.164 221.909 127.419 222.82 127.93 223.477C128.445 224.128 129.172 224.453 130.109 224.453C131.047 224.453 131.771 224.128 132.281 223.477C132.797 222.82 133.055 221.909 133.055 220.742C133.055 219.57 132.794 218.661 132.273 218.016C131.758 217.37 131.031 217.047 130.094 217.047C129.156 217.047 128.432 217.37 127.922 218.016C127.417 218.656 127.164 219.565 127.164 220.742ZM139.562 216.344C139.922 216.344 140.307 216.38 140.719 216.453L140.57 217.195C140.216 217.107 139.849 217.062 139.469 217.062C138.745 217.062 138.151 217.37 137.688 217.984C137.224 218.599 136.992 219.375 136.992 220.312V225H136.219V216.508H136.875L136.953 218.039H137.008C137.357 217.414 137.729 216.977 138.125 216.727C138.521 216.471 139 216.344 139.562 216.344ZM153.062 225V219.43C153.062 218.602 152.901 217.997 152.578 217.617C152.255 217.237 151.76 217.047 151.094 217.047C150.224 217.047 149.581 217.286 149.164 217.766C148.747 218.245 148.539 218.997 148.539 220.023V225H147.75V219.195C147.75 217.763 147.094 217.047 145.781 217.047C144.891 217.047 144.242 217.307 143.836 217.828C143.43 218.344 143.227 219.172 143.227 220.312V225H142.453V216.508H143.094L143.258 217.672H143.305C143.539 217.25 143.872 216.924 144.305 216.695C144.737 216.461 145.214 216.344 145.734 216.344C147.073 216.344 147.932 216.846 148.312 217.852H148.344C148.62 217.367 148.99 216.995 149.453 216.734C149.922 216.474 150.453 216.344 151.047 216.344C151.974 216.344 152.669 216.591 153.133 217.086C153.596 217.581 153.828 218.367 153.828 219.445V225H153.062ZM161.734 225L161.539 223.656H161.477C161.049 224.203 160.609 224.591 160.156 224.82C159.708 225.044 159.177 225.156 158.562 225.156C157.729 225.156 157.081 224.943 156.617 224.516C156.154 224.089 155.922 223.497 155.922 222.742C155.922 221.914 156.266 221.271 156.953 220.812C157.646 220.354 158.646 220.112 159.953 220.086L161.57 220.039V219.477C161.57 218.669 161.406 218.06 161.078 217.648C160.75 217.237 160.221 217.031 159.492 217.031C158.706 217.031 157.891 217.25 157.047 217.688L156.758 217.016C157.69 216.578 158.612 216.359 159.523 216.359C160.456 216.359 161.151 216.602 161.609 217.086C162.073 217.57 162.305 218.326 162.305 219.352V225H161.734ZM158.609 224.453C159.516 224.453 160.229 224.195 160.75 223.68C161.276 223.159 161.539 222.438 161.539 221.516V220.68L160.055 220.742C158.862 220.799 158.01 220.987 157.5 221.305C156.995 221.617 156.742 222.107 156.742 222.773C156.742 223.305 156.904 223.719 157.227 224.016C157.555 224.307 158.016 224.453 158.609 224.453ZM167.305 224.469C167.794 224.469 168.221 224.427 168.586 224.344V224.969C168.211 225.094 167.779 225.156 167.289 225.156C166.539 225.156 165.984 224.956 165.625 224.555C165.271 224.154 165.094 223.523 165.094 222.664V217.18H163.836V216.727L165.094 216.375L165.484 214.453H165.883V216.508H168.375V217.18H165.883V222.555C165.883 223.206 165.997 223.688 166.227 224C166.456 224.312 166.815 224.469 167.305 224.469ZM171.195 225H170.422V216.508H171.195V225ZM170.312 214.148C170.312 213.648 170.477 213.398 170.805 213.398C170.966 213.398 171.091 213.464 171.18 213.594C171.273 213.724 171.32 213.909 171.32 214.148C171.32 214.383 171.273 214.568 171.18 214.703C171.091 214.839 170.966 214.906 170.805 214.906C170.477 214.906 170.312 214.654 170.312 214.148ZM181.07 220.742C181.07 222.128 180.734 223.211 180.062 223.992C179.391 224.768 178.464 225.156 177.281 225.156C176.536 225.156 175.88 224.977 175.312 224.617C174.745 224.258 174.31 223.742 174.008 223.07C173.706 222.398 173.555 221.622 173.555 220.742C173.555 219.357 173.891 218.279 174.562 217.508C175.234 216.732 176.156 216.344 177.328 216.344C178.495 216.344 179.409 216.737 180.07 217.523C180.737 218.305 181.07 219.378 181.07 220.742ZM174.367 220.742C174.367 221.909 174.622 222.82 175.133 223.477C175.648 224.128 176.375 224.453 177.312 224.453C178.25 224.453 178.974 224.128 179.484 223.477C180 222.82 180.258 221.909 180.258 220.742C180.258 219.57 179.997 218.661 179.477 218.016C178.961 217.37 178.234 217.047 177.297 217.047C176.359 217.047 175.635 217.37 175.125 218.016C174.62 218.656 174.367 219.565 174.367 220.742ZM189.344 225V219.492C189.344 218.638 189.164 218.018 188.805 217.633C188.445 217.242 187.888 217.047 187.133 217.047C186.117 217.047 185.372 217.305 184.898 217.82C184.43 218.331 184.195 219.161 184.195 220.312V225H183.422V216.508H184.078L184.227 217.672H184.273C184.826 216.786 185.807 216.344 187.219 216.344C189.146 216.344 190.109 217.378 190.109 219.445V225H189.344ZM192.703 224.391C192.703 223.88 192.911 223.625 193.328 223.625C193.755 223.625 193.969 223.88 193.969 224.391C193.969 224.901 193.755 225.156 193.328 225.156C192.911 225.156 192.703 224.901 192.703 224.391Z" fill="black"/>
<circle cx="27" cy="27" r="27" fill="url(#paint0_linear)"/>
<circle cx="27" cy="135" r="27" fill="url(#paint1_linear)"/>
<circle cx="27" cy="343" r="27" fill="#989898"/>
<circle cx="27" cy="451" r="27" fill="#989898"/>
<g clip-path="url(#clip0)">
<path d="M38.297 446.369L25.636 459.029C24.6985 459.967 23.1776 459.967 22.2391 459.029L15.7034 452.493C14.7655 451.555 14.7655 450.034 15.7034 449.096C16.6415 448.158 18.1623 448.158 19.1 449.096L23.9381 453.934L34.9 442.972C35.8381 442.034 37.3589 442.034 38.2967 442.972C39.2344 443.91 39.2344 445.43 38.297 446.369Z" fill="white"/>
</g>
<rect x="26" y="174" width="1" height="130" fill="#C4C4C4"/>
<rect x="27" y="66" width="1" height="30" fill="#C4C4C4"/>
<rect x="28" y="382" width="1" height="30" fill="#C4C4C4"/>
<g clip-path="url(#clip1)">
<path d="M38.347 32.6136L34.9977 29.2643C33.8015 28.0681 31.7681 28.5467 31.2896 30.1016C30.9307 31.1782 29.7346 31.7763 28.658 31.537C26.2657 30.9389 23.036 27.8289 22.4379 25.317C22.0791 24.2404 22.7968 23.0442 23.8733 22.6854C25.4284 22.2069 25.9068 20.1734 24.7107 18.9773L21.3614 15.628C20.4044 14.7907 18.969 14.7907 18.1317 15.628L15.859 17.9007C13.5863 20.293 16.0982 26.6327 21.7202 32.2547C27.3422 37.8767 33.6819 40.5083 36.0743 38.116L38.347 35.8432C39.1843 34.8863 39.1843 33.4509 38.347 32.6136Z" fill="white"/>
</g>
<path d="M34.5294 130.172H25.8706L24.1482 128.125C24.0903 128.055 24.0035 128.016 23.9129 128.019H16.9271C15.8605 128.027 15 128.894 15 129.96V142.551C15.0013 143.621 15.8686 144.488 16.9388 144.49H34.5294C35.5996 144.488 36.4669 143.621 36.4682 142.551V132.111C36.4669 131.041 35.5996 130.173 34.5294 130.172Z" fill="white"/>
<path d="M37.0727 127.663H28.4116L26.6892 125.616C26.6313 125.547 26.5444 125.508 26.4539 125.51H19.4704C18.5026 125.512 17.6843 126.227 17.5527 127.186H23.9221C24.2561 127.185 24.5733 127.332 24.788 127.588L26.2586 129.336H34.5292C36.0589 129.339 37.2984 130.578 37.301 132.108V141.962C38.2709 141.841 38.999 141.017 38.9998 140.04V129.6C38.9973 128.535 38.1374 127.671 37.0727 127.663Z" fill="white"/>
<g clip-path="url(#clip2)">
<path d="M38.5969 341.73L27.8289 331.918C27.3563 331.487 26.6435 331.487 26.1711 331.918L15.403 341.73C15.0244 342.075 14.8994 342.606 15.0843 343.084C15.2693 343.561 15.7198 343.87 16.232 343.87H17.9519V353.701C17.9519 354.09 18.2679 354.406 18.6577 354.406H24.5599C24.9496 354.406 25.2657 354.09 25.2657 353.701V347.732H28.7345V353.701C28.7345 354.09 29.0505 354.406 29.4403 354.406H35.3422C35.732 354.406 36.048 354.09 36.048 353.701V343.87H37.7682C38.2803 343.87 38.7308 343.561 38.9159 343.084C39.1006 342.606 38.9755 342.075 38.5969 341.73Z" fill="white"/>
<path d="M35.8649 333.003H31.125L36.5707 337.955V333.709C36.5707 333.319 36.2548 333.003 35.8649 333.003Z" fill="white"/>
</g>
<defs>
<linearGradient id="paint0_linear" x1="27" y1="0" x2="27" y2="54" gradientUnits="userSpaceOnUse">
<stop stop-color="#4256AC"/>
<stop offset="1" stop-color="#293991"/>
</linearGradient>
<linearGradient id="paint1_linear" x1="27" y1="108" x2="27" y2="162" gradientUnits="userSpaceOnUse">
<stop stop-color="#4256AC"/>
<stop offset="1" stop-color="#293991"/>
</linearGradient>
<clipPath id="clip0">
<rect width="24" height="24" fill="white" transform="translate(15 439)"/>
</clipPath>
<clipPath id="clip1">
<rect width="24" height="24" fill="white" transform="translate(15 15)"/>
</clipPath>
<clipPath id="clip2">
<rect width="24" height="24" fill="white" transform="translate(15 331)"/>
</clipPath>
</defs>
</svg>
