<svg width="24" height="24" viewBox="0 0 24 24" fill="none" xmlns="http://www.w3.org/2000/svg">
<g clip-path="url(#clip0)">
<path d="M12 6.30566L3.44052 13.3621C3.44052 13.372 3.43802 13.3867 3.43302 13.4066C3.42811 13.4265 3.42551 13.4408 3.42551 13.4511V20.5964C3.42551 20.8544 3.51983 21.078 3.70842 21.2663C3.89696 21.4546 4.12022 21.5494 4.37826 21.5494H10.0944V15.833H13.9057V21.5496H19.6217C19.8797 21.5496 20.1033 21.4551 20.2916 21.2663C20.4802 21.0782 20.5748 20.8545 20.5748 20.5964V13.4511C20.5748 13.4114 20.5694 13.3815 20.5598 13.3621L12 6.30566Z" fill="#6A7FD3"/>
<path d="M23.8344 11.7543L20.5745 9.04499V2.97134C20.5745 2.83249 20.5299 2.7183 20.4403 2.62893C20.3514 2.53967 20.2372 2.49504 20.0981 2.49504H17.24C17.101 2.49504 16.9868 2.53967 16.8974 2.62893C16.8082 2.7183 16.7636 2.83254 16.7636 2.97134V5.87414L13.1314 2.83723C12.8142 2.57919 12.437 2.4502 12.0003 2.4502C11.5636 2.4502 11.1865 2.57919 10.869 2.83723L0.165387 11.7543C0.0661644 11.8336 0.0117822 11.9402 0.00166703 12.0742C-0.00839601 12.2081 0.0262772 12.3251 0.105791 12.4243L1.02872 13.5259C1.10824 13.6151 1.21231 13.6697 1.34136 13.6897C1.4605 13.6997 1.57964 13.6649 1.69878 13.5855L12 4.99584L22.3013 13.5855C22.3809 13.6547 22.4849 13.6893 22.614 13.6893H22.6587C22.7875 13.6697 22.8914 13.6147 22.9713 13.5257L23.8944 12.4242C23.9737 12.3248 24.0085 12.2081 23.9982 12.074C23.988 11.9404 23.9334 11.8337 23.8344 11.7543Z" fill="#6A7FD3"/>
</g>
<defs>
<clipPath id="clip0">
<rect width="24" height="24" fill="white"/>
</clipPath>
</defs>
</svg>
