<svg width="72" height="72" viewBox="0 0 72 72" fill="none" xmlns="http://www.w3.org/2000/svg">
<circle cx="36" cy="36" r="31.5" fill="url(#paint0_linear)" stroke="white" stroke-width="9"/>
<g clip-path="url(#clip0)">
<path d="M39.4063 21H24.5521C22.5888 21 21 22.5888 21 24.5521V44.5729C21 46.5362 22.5888 48.125 24.5521 48.125H35.0792C33.9942 46.4071 33.2708 44.3792 33.2708 42.0542V38.9025C33.0771 39.0187 32.8575 39.0833 32.625 39.0833H26.1667C25.4563 39.0833 24.875 38.5021 24.875 37.7917C24.875 37.0812 25.4563 36.5 26.1667 36.5H32.625C32.8704 36.5 33.09 36.5646 33.2838 36.6808C33.3354 35.5829 33.8521 34.5754 34.6658 33.9167H26.1667C25.4563 33.9167 24.875 33.3354 24.875 32.625C24.875 31.9146 25.4563 31.3333 26.1667 31.3333H37.7917C38.3342 31.3333 38.7992 31.6692 38.9929 32.1471L42.6742 30.8942C42.7646 30.8554 42.855 30.8296 42.9583 30.8167V24.5521C42.9583 22.5888 41.3696 21 39.4063 21V21ZM31.3333 28.75H26.1667C25.4563 28.75 24.875 28.1687 24.875 27.4583C24.875 26.7479 25.4563 26.1667 26.1667 26.1667H31.3333C32.0438 26.1667 32.625 26.7479 32.625 27.4583C32.625 28.1687 32.0438 28.75 31.3333 28.75Z" fill="white"/>
<path d="M51.1242 35.6462L44.343 33.3393C44.073 33.2476 43.7798 33.2476 43.5099 33.3393L36.7286 35.6462C36.2055 35.8245 35.8528 36.3166 35.8528 36.8694V42.0593C35.8528 48.6042 43.1107 51.7662 43.4194 51.898C43.5822 51.9664 43.7553 52 43.9271 52C44.0989 52 44.2719 51.9664 44.4334 51.8967C44.7421 51.7649 52 48.6042 52 42.0593V36.8694C52 36.3153 51.6487 35.8245 51.1242 35.6462ZM48.5125 40.5042L44.6375 45.6708C44.4127 45.9705 44.0704 46.1578 43.6959 46.1836C43.6649 46.1862 43.6339 46.1875 43.6041 46.1875C43.2619 46.1875 42.9338 46.0532 42.6909 45.809L40.1076 43.2257C39.6026 42.7207 39.6026 41.9043 40.1076 41.3993C40.6126 40.8942 41.429 40.8942 41.934 41.3993L43.4646 42.9299L46.4458 38.9542C46.8734 38.3845 47.6832 38.267 48.2529 38.6958C48.8251 39.1234 48.9413 39.9332 48.5125 40.5042Z" fill="white"/>
</g>
<defs>
<linearGradient id="paint0_linear" x1="51.5" y1="2.5" x2="30.5" y2="71" gradientUnits="userSpaceOnUse">
<stop stop-color="#FFAC75"/>
<stop offset="1" stop-color="#FF781B"/>
</linearGradient>
<clipPath id="clip0">
<rect width="31" height="31" fill="white" transform="translate(21 21)"/>
</clipPath>
</defs>
</svg>
