<svg width="31" height="31" viewBox="0 0 31 31" fill="none" xmlns="http://www.w3.org/2000/svg">
<circle cx="15.5" cy="15.5" r="14.5" stroke="white" stroke-width="2"/>
<path d="M22.5645 18.7424L20.3317 16.5095C19.5342 15.7121 18.1786 16.0311 17.8596 17.0678C17.6203 17.7855 16.8229 18.1842 16.1052 18.0247C14.5103 17.626 12.3572 15.5526 11.9585 13.878C11.7192 13.1602 12.1977 12.3628 12.9154 12.1236C13.9521 11.8046 14.2711 10.449 13.4736 9.65151L11.2408 7.41866C10.6028 6.86045 9.64589 6.86045 9.08768 7.41866L7.57253 8.93381C6.05738 10.5287 7.73202 14.7552 11.48 18.5032C15.228 22.2511 19.4545 24.0056 21.0494 22.4106L22.5645 20.8955C23.1227 20.2575 23.1227 19.3006 22.5645 18.7424Z" fill="white"/>
</svg>
