<svg width="116" height="110" viewBox="0 0 116 110" fill="none" xmlns="http://www.w3.org/2000/svg">
<rect width="116" height="110" rx="25" fill="#EEFCF5"/>
<g clip-path="url(#clip0)">
<path d="M79 42.37V62.08C77.53 63.19 75.58 63.49 73.84 62.89L73.27 62.68C75.04 59.2 74.38 54.94 71.59 52.09L61.48 41.98L69.52 39.16L79 42.37Z" fill="url(#paint0_linear)"/>
<path d="M54.61 55.81L65.2 66.22V66.25C64.93 67.21 64.42 68.08 63.7 68.8C62.41 70.06 60.7 70.69 59.02 70.6L47.74 59.32C47.47 59.56 47.35 59.89 47.35 60.22C47.35 60.61 47.53 61.03 47.92 61.27L58.63 71.77C58.33 72.49 57.91 73.15 57.34 73.72C56.11 74.95 54.49 75.55 52.87 75.55C51.31 75.55 49.75 74.98 48.55 73.81L41.95 67.84C40.51 66.52 38.83 65.59 36.97 65.02C37 64.93 37 64.84 37 64.75V39.55L44.71 36.37C46.93 35.44 49.42 35.62 51.46 36.73L50.98 36.97C48.4 38.26 46.57 40.72 46.06 43.66C45.61 46.51 46.57 49.45 48.61 51.52C50.11 53.02 52.12 53.95 54.25 54.13C54.1 54.34 54.04 54.55 54.04 54.76C54.04 55.18 54.22 55.57 54.61 55.81Z" fill="url(#paint1_linear)"/>
<path d="M70.42 61.72C70.18 62.2 69.88 62.62 69.49 63.01C68.32 64.18 66.94 64.84 65.5 64.96L54.67 54.16H55.03C56.47 54.16 57.91 53.8 59.17 53.17L60.13 52.66L65.29 50.05L69.46 54.22C69.46 54.22 69.46 54.22 69.49 54.25C71.47 56.26 71.8 59.35 70.42 61.72Z" fill="url(#paint2_linear)"/>
<path d="M31.75 67H24.25C23.008 67 22 65.992 22 64.75V39.25C22 38.008 23.008 37 24.25 37H31.75C32.992 37 34 38.008 34 39.25V64.75C34 65.992 32.992 67 31.75 67Z" fill="url(#paint3_linear)"/>
<path d="M91.75 67H84.25C83.008 67 82 65.992 82 64.75V39.25C82 38.008 83.008 37 84.25 37H91.75C92.992 37 94 38.008 94 39.25V64.75C94 65.992 92.992 67 91.75 67Z" fill="url(#paint4_linear)"/>
<path d="M75.82 37.3C75.79 37.3 75.76 37.27 75.7 37.27L68.83 34.45C66.7 33.58 64.3 33.64 62.23 34.69L54.04 38.8L52.33 39.64C50.59 40.51 49.36 42.19 49.03 44.11C48.73 46.03 49.36 48.01 50.74 49.39C51.91 50.56 53.47 51.16 55.03 51.16C55.96 51.16 56.92 50.95 57.79 50.5L58.78 49.99L63.07 47.83L75.01 41.83L79 43.48V39.25C79 39.04 79 38.83 79.06 38.65L75.82 37.3Z" fill="url(#paint5_linear)"/>
</g>
<defs>
<linearGradient id="paint0_linear" x1="70.24" y1="39.16" x2="70.24" y2="63.1934" gradientUnits="userSpaceOnUse">
<stop stop-color="#51C789"/>
<stop offset="1" stop-color="#6AEFB2"/>
</linearGradient>
<linearGradient id="paint1_linear" x1="51.085" y1="35.7717" x2="51.085" y2="75.55" gradientUnits="userSpaceOnUse">
<stop stop-color="#51C789"/>
<stop offset="1" stop-color="#6AEFB2"/>
</linearGradient>
<linearGradient id="paint2_linear" x1="62.9646" y1="50.05" x2="62.9646" y2="64.96" gradientUnits="userSpaceOnUse">
<stop stop-color="#51C789"/>
<stop offset="1" stop-color="#6AEFB2"/>
</linearGradient>
<linearGradient id="paint3_linear" x1="28" y1="37" x2="28" y2="67" gradientUnits="userSpaceOnUse">
<stop stop-color="#51C789"/>
<stop offset="1" stop-color="#6AEFB2"/>
</linearGradient>
<linearGradient id="paint4_linear" x1="88" y1="37" x2="88" y2="67" gradientUnits="userSpaceOnUse">
<stop stop-color="#51C789"/>
<stop offset="1" stop-color="#6AEFB2"/>
</linearGradient>
<linearGradient id="paint5_linear" x1="64.0083" y1="33.8456" x2="64.0083" y2="51.16" gradientUnits="userSpaceOnUse">
<stop stop-color="#51C789"/>
<stop offset="1" stop-color="#6AEFB2"/>
</linearGradient>
<clipPath id="clip0">
<rect width="72" height="72" fill="white" transform="translate(22 19)"/>
</clipPath>
</defs>
</svg>
