<svg width="116" height="110" viewBox="0 0 116 110" fill="none" xmlns="http://www.w3.org/2000/svg">
<rect width="116" height="110" rx="25" fill="#E9F8FF"/>
<g clip-path="url(#clip0)">
<path d="M59.1518 68.7162V68.4123C57.5987 68.3954 56.1132 68.311 54.6782 68.1929C53.9017 70.2018 52.8044 72.0756 51.437 73.7469C54.0199 74.1689 56.6365 74.4052 59.2531 74.439L59.1518 68.7162Z" fill="url(#paint0_linear)"/>
<path d="M52.3148 57.5407C51.0656 51.5646 46.6596 46.7028 40.8017 44.8627C39.1811 44.3732 37.5098 44.1199 35.8217 44.1199C31.6351 44.1368 27.5835 45.6899 24.4942 48.4922C17.6235 54.7384 17.1339 65.3905 23.3801 72.2613C29.6262 79.132 40.2784 79.6216 47.1491 73.3755C50.6605 70.1849 52.6693 65.6775 52.6525 60.9338C52.6525 59.8028 52.5343 58.6549 52.3148 57.5407ZM35.8217 58.6717C38.6746 58.6717 41.19 60.5625 41.9665 63.3141C42.9119 66.7073 40.9536 70.2186 37.5436 71.1809V72.6664C37.5436 73.5949 36.7839 74.3546 35.8554 74.3546C34.927 74.3546 34.1673 73.5949 34.1673 72.6664V71.1978C31.3819 70.4381 29.4574 67.9228 29.4405 65.036C29.4405 64.1076 30.2002 63.3479 31.1286 63.3479C32.0571 63.3479 32.8168 64.1076 32.8168 65.036C32.8168 66.6904 34.1673 68.024 35.8217 68.024C37.4761 68.024 38.8097 66.6735 38.8097 65.0191C38.8097 63.3648 37.4592 62.0311 35.8048 62.0311C32.9181 62.0311 30.4027 60.0898 29.6599 57.3043C28.7652 53.928 30.791 50.4167 34.1842 49.5051V48.7792C34.1842 47.8507 34.9438 47.0911 35.8723 47.0911C36.8008 47.0911 37.5605 47.8507 37.5605 48.7792V49.5389C40.3121 50.3154 42.2029 52.8308 42.2029 55.6837C42.2029 56.6122 41.4432 57.3719 40.5147 57.3719C39.5862 57.3719 38.8266 56.6122 38.8266 55.6837C38.8266 54.0293 37.4761 52.6788 35.8217 52.6788C34.1673 52.6788 32.8337 54.0125 32.8168 55.6837C32.8168 57.3381 34.1673 58.6717 35.8217 58.6717Z" fill="url(#paint1_linear)"/>
<path d="M59.1012 65.0191L58.9999 59.0431C57.9532 59.0262 56.9235 58.9925 55.9444 58.9249C55.995 59.6002 56.0288 60.2586 56.0288 60.9169C56.0288 62.2337 55.8937 63.5673 55.6405 64.8672C56.7547 64.9685 57.9195 65.0191 59.1012 65.0191Z" fill="url(#paint2_linear)"/>
<path d="M77.5863 37.0804C76.4215 37.6881 75.1892 38.1777 73.9231 38.5491C70.1248 39.697 65.1447 40.3216 59.9452 40.3216C54.9652 40.3216 50.2215 39.7476 46.5583 38.6841C45.2921 38.3465 44.0767 37.8738 42.9119 37.283L43.03 42.0435C44.9376 42.7525 46.7102 43.7654 48.3139 45.0315C48.3646 45.0484 48.3983 45.0484 48.449 45.0653C51.6902 45.8925 55.7755 46.3314 59.9452 46.3314C64.7733 46.3314 69.517 45.7237 72.9439 44.6939C76.6072 43.5797 77.4175 42.4149 77.4175 42.1955C77.4175 41.9591 77.4006 41.7397 77.5863 41.5033V37.0804Z" fill="url(#paint3_linear)"/>
<path d="M72.9271 30.3784C69.5001 29.3318 64.7565 28.7409 59.9284 28.7409C55.0665 28.7409 50.5085 29.3318 47.0985 30.3784C43.5365 31.4588 42.76 32.5223 42.7431 32.86C42.7431 32.86 42.76 32.86 42.76 32.8937C42.8444 33.2651 43.8572 34.4131 47.4868 35.4597C50.8462 36.4388 55.2691 36.979 59.9284 36.979C64.7565 36.979 69.4833 36.3882 72.9102 35.3584C76.5735 34.2611 77.4007 33.0963 77.4007 32.86C77.4007 32.6405 76.5903 31.4926 72.9271 30.3784Z" fill="url(#paint4_linear)"/>
<path d="M96.9662 77.0893V72.0249C95.8352 72.5989 94.6535 73.0884 93.4211 73.4598C89.6397 74.6078 84.6934 75.2324 79.4771 75.2324C74.8516 75.2324 70.3442 74.7091 66.7991 73.7806C65.3473 73.4092 63.9462 72.9027 62.5956 72.2444L62.68 77.14C62.68 77.1569 62.68 77.1569 62.68 77.1737C62.68 77.427 63.4228 78.558 66.9848 79.6553C70.3611 80.6851 74.9191 81.259 79.7978 81.259C84.6597 81.259 89.2345 80.6682 92.6446 79.6047C96.2066 78.4905 96.9831 77.3257 96.9831 77.0893H96.9662Z" fill="url(#paint5_linear)"/>
<path d="M77.5526 46.5002C76.3878 47.0911 75.1723 47.5807 73.9062 47.952C70.1079 49.1 65.1278 49.7246 59.9115 49.7246C57.3455 49.7246 54.7964 49.5558 52.2642 49.235C53.6316 51.1258 54.6445 53.2528 55.286 55.5149C56.7378 55.6162 58.3077 55.6838 59.9284 55.6838C59.979 55.6838 60.0465 55.6838 60.0972 55.6838C62.8657 52.6451 70.3104 51.1258 77.5526 50.9232V46.5002Z" fill="url(#paint6_linear)"/>
<path d="M93.303 64.1244C89.5384 65.2386 84.6428 65.8463 79.5108 65.8463C74.5308 65.8463 69.7871 65.2724 66.1238 64.2088C64.8577 63.8543 63.6254 63.3817 62.4437 62.7908L62.5112 66.6735L62.5281 68.0916C63.8449 69.7291 70.1416 71.8392 79.4939 71.8392C84.3727 71.8392 88.9813 71.2653 92.442 70.2186C96.0884 69.1045 96.8818 67.9565 96.8818 67.7202C96.8818 67.5345 96.9831 67.3319 96.9831 67.1631H97V62.6895C95.8183 63.2804 94.5859 63.7868 93.303 64.1244Z" fill="url(#paint7_linear)"/>
<path d="M92.5095 55.9369C89.0657 54.8903 84.3389 54.3332 79.5108 54.3332H79.2239C74.7334 54.3332 70.4624 54.8396 67.1874 55.7681C63.6929 56.7472 62.4943 57.8614 62.3424 58.3172C62.3255 58.351 62.3255 58.3679 62.3255 58.3847C62.3255 58.3847 62.3255 58.3847 62.3593 58.4523C62.4606 58.8068 63.4566 59.9547 67.0861 61.0182C70.4455 61.9805 74.8684 62.5207 79.5277 62.5207C84.3389 62.5207 88.8969 61.9636 92.3576 60.9338C96.1053 59.8197 96.9494 58.6548 96.9662 58.4016V58.3847C96.9494 58.1315 96.1053 57.0173 92.5095 55.9369Z" fill="url(#paint8_linear)"/>
</g>
<defs>
<linearGradient id="paint0_linear" x1="55.3451" y1="68.1929" x2="55.3451" y2="74.439" gradientUnits="userSpaceOnUse">
<stop stop-color="#3C77FF"/>
<stop offset="1" stop-color="#25C2FF"/>
</linearGradient>
<linearGradient id="paint1_linear" x1="35.8263" y1="44.1199" x2="35.8263" y2="77.7556" gradientUnits="userSpaceOnUse">
<stop stop-color="#3C77FF"/>
<stop offset="1" stop-color="#25C2FF"/>
</linearGradient>
<linearGradient id="paint2_linear" x1="57.3708" y1="58.9249" x2="57.3708" y2="65.0191" gradientUnits="userSpaceOnUse">
<stop stop-color="#3C77FF"/>
<stop offset="1" stop-color="#25C2FF"/>
</linearGradient>
<linearGradient id="paint3_linear" x1="60.2491" y1="37.0804" x2="60.2491" y2="46.3314" gradientUnits="userSpaceOnUse">
<stop stop-color="#3C77FF"/>
<stop offset="1" stop-color="#25C2FF"/>
</linearGradient>
<linearGradient id="paint4_linear" x1="60.0719" y1="28.7409" x2="60.0719" y2="36.979" gradientUnits="userSpaceOnUse">
<stop stop-color="#3C77FF"/>
<stop offset="1" stop-color="#25C2FF"/>
</linearGradient>
<linearGradient id="paint5_linear" x1="79.7894" y1="72.0249" x2="79.7894" y2="81.259" gradientUnits="userSpaceOnUse">
<stop stop-color="#3C77FF"/>
<stop offset="1" stop-color="#25C2FF"/>
</linearGradient>
<linearGradient id="paint6_linear" x1="64.9084" y1="46.5002" x2="64.9084" y2="55.6838" gradientUnits="userSpaceOnUse">
<stop stop-color="#3C77FF"/>
<stop offset="1" stop-color="#25C2FF"/>
</linearGradient>
<linearGradient id="paint7_linear" x1="79.7218" y1="62.6895" x2="79.7218" y2="71.8392" gradientUnits="userSpaceOnUse">
<stop stop-color="#3C77FF"/>
<stop offset="1" stop-color="#25C2FF"/>
</linearGradient>
<linearGradient id="paint8_linear" x1="79.6459" y1="54.3332" x2="79.6459" y2="62.5207" gradientUnits="userSpaceOnUse">
<stop stop-color="#3C77FF"/>
<stop offset="1" stop-color="#25C2FF"/>
</linearGradient>
<clipPath id="clip0">
<rect width="78" height="78" fill="white" transform="translate(19 16)"/>
</clipPath>
</defs>
</svg>
