<svg width="116" height="110" viewBox="0 0 116 110" fill="none" xmlns="http://www.w3.org/2000/svg">
<rect width="116" height="110" rx="25" fill="#FFF5EF"/>
<g clip-path="url(#clip0)">
<path d="M64.0313 26H35.7604C32.0238 26 29 29.0238 29 32.7604V70.8646C29 74.6012 32.0238 77.625 35.7604 77.625H55.7958C53.7308 74.3554 52.3542 70.4958 52.3542 66.0708V60.0725C51.9854 60.2937 51.5675 60.4167 51.125 60.4167H38.8333C37.4813 60.4167 36.375 59.3104 36.375 57.9583C36.375 56.6062 37.4813 55.5 38.8333 55.5H51.125C51.5921 55.5 52.01 55.6229 52.3788 55.8442C52.4771 53.7546 53.4604 51.8371 55.0092 50.5833H38.8333C37.4813 50.5833 36.375 49.4771 36.375 48.125C36.375 46.7729 37.4813 45.6667 38.8333 45.6667H60.9583C61.9908 45.6667 62.8758 46.3058 63.2446 47.2154L70.2508 44.8308C70.4229 44.7571 70.595 44.7079 70.7917 44.6833V32.7604C70.7917 29.0238 67.7679 26 64.0313 26V26ZM48.6667 40.75H38.8333C37.4813 40.75 36.375 39.6437 36.375 38.2917C36.375 36.9396 37.4813 35.8333 38.8333 35.8333H48.6667C50.0188 35.8333 51.125 36.9396 51.125 38.2917C51.125 39.6437 50.0188 40.75 48.6667 40.75Z" fill="url(#paint0_linear)"/>
<path d="M86.3333 53.8751L73.427 49.4845C72.9132 49.3099 72.3552 49.3099 71.8414 49.4845L58.9351 53.8751C57.9395 54.2143 57.2684 55.1509 57.2684 56.2031V66.0807C57.2684 78.5371 71.0818 84.5551 71.6693 84.8058C71.979 84.9361 72.3085 85 72.6354 85C72.9624 85 73.2918 84.9361 73.5991 84.8034C74.1866 84.5526 88 78.5371 88 66.0807V56.2031C88 55.1485 87.3313 54.2143 86.3333 53.8751ZM81.3625 63.1209L73.9875 72.9542C73.5598 73.5245 72.9083 73.881 72.1954 73.9302C72.1364 73.9351 72.0774 73.9375 72.0208 73.9375C71.3694 73.9375 70.745 73.6819 70.2828 73.2172L65.3661 68.3006C64.4049 67.3394 64.4049 65.7857 65.3661 64.8245C66.3273 63.8633 67.881 63.8633 68.8422 64.8245L71.7553 67.7376L77.4292 60.1709C78.2429 59.0867 79.7843 58.863 80.8684 59.6792C81.9574 60.4929 82.1787 62.0343 81.3625 63.1209Z" fill="url(#paint1_linear)"/>
</g>
<defs>
<linearGradient id="paint0_linear" x1="49.8958" y1="26" x2="49.8958" y2="77.625" gradientUnits="userSpaceOnUse">
<stop stop-color="#FF781B"/>
<stop offset="1" stop-color="#FFAC75"/>
</linearGradient>
<linearGradient id="paint1_linear" x1="72.6342" y1="49.3536" x2="72.6342" y2="85" gradientUnits="userSpaceOnUse">
<stop stop-color="#FF781B"/>
<stop offset="1" stop-color="#FFAC75"/>
</linearGradient>
<clipPath id="clip0">
<rect width="59" height="59" fill="white" transform="translate(29 26)"/>
</clipPath>
</defs>
</svg>
